<?xml version="1.0" encoding="utf-8"?>
<!-- Generator: Adobe Illustrator 19.2.1, SVG Export Plug-In . SVG Version: 6.00 Build 0)  -->
<svg version="1.1" id="Layer_2" xmlns="http://www.w3.org/2000/svg" xmlns:xlink="http://www.w3.org/1999/xlink" x="0px" y="0px"
	 viewBox="0 0 285 348.7" style="enable-background:new 0 0 285 348.7;" xml:space="preserve">
<style type="text/css">
	.st0{fill:#9D9FA2;}
	.st1{fill:#FFFFFF;}
	.st2{fill:#E587B0;}
	.st3{fill:#F6ADCD;}
	.st4{opacity:0.38;fill:#FFFFFF;}
</style>
<g>
	<g>
		<path class="st0" d="M103.8,322.1c-0.1-0.1-0.2-0.2-0.2-0.3l-4.3-27.2c0-0.2,0.1-0.3,0.4-0.3c0.2,0,0.4,0.1,2.5,0.5l4.3,27.2
			c-2,0-2.1,0.1-2.4,0.1C103.9,322.2,103.8,322.2,103.8,322.1z"/>
	</g>
	<g>
		<path class="st0" d="M143.5,325.7c0.1,0,0.3-0.1,0.3-0.2l9-26c0.1-0.2-0.1-0.3-0.3-0.4c-0.2,0-0.4,0.1-2.5,0.1l-9,26
			c1.9,0.3,2.1,0.5,2.3,0.5C143.4,325.7,143.5,325.7,143.5,325.7z"/>
	</g>
	<g>
		<g>
			<path class="st1" d="M261,54c0,0,44.5,41.1,12.3,112.2c-23.2,51.2-76,84.9-124.5,133.5l-3.1-0.3c0,0,80-86.5,101.2-124.1
				C268.1,137.6,274.9,98.7,261,54z"/>
			<path class="st2" d="M230.5,31.4c10.2,1.2,42.3,17.5,46.2,63.2c2.8,31.8-6.1,68.4-52.9,121.2c-11.3,12.7-71.9,75.6-76.4,83.8
				l-8.3-0.8c0,0,81.7-102.1,100.3-157.5C264.4,66.6,230.5,31.4,230.5,31.4z"/>
			<path class="st1" d="M201,15.2c22.8,0.4,51.3,18.1,57.9,63.1c6.4,43.6-26,101-55.4,140.4c-24,32.1-60.9,80.3-60.9,80.3l-9.4-0.8
				c0,0,52.5-99.5,74.7-170.6S201,15.2,201,15.2z"/>
			<path class="st2" d="M175.4,8.6c20.1-4.9,52.3,8.4,54.1,62.9c1.8,54.5-27.2,108.7-45.6,141.3c-18.4,32.6-48.2,85.7-48.2,85.7
				l-8.1-0.7c0,0,45.5-182.6,50.6-227.2C183.3,25.9,175.4,8.6,175.4,8.6z"/>
		</g>
		<g>
			<path class="st3" d="M36.2,34c0,0-51.1,32.6-31.9,108.2c13.8,54.5,59.7,97,98.9,153.4l3.1,0.3c0,0-63.4-99.3-77.6-140.1
				C14.5,115,14.7,75.5,36.2,34z"/>
			<path class="st1" d="M70.3,17.1c-10.2-0.6-44.7,9.7-56.7,54c-8.3,30.8-6.1,68.4,30.6,128.6c8.8,14.5,57.4,87.2,60.4,96.1l8.3,0.7
				c0,0-62.3-114.9-70.8-172.7C30.7,45.7,70.3,17.1,70.3,17.1z"/>
			<path class="st3" d="M102.2,6.4c-22.5-3.7-53.7,8.7-68.1,51.9c-14,41.8,7.7,104,29.7,148c17.9,35.8,45.7,89.9,45.7,89.9l9.4,0.9
				c0,0-34-107.2-43.3-181.2C66.3,41.9,102.2,6.4,102.2,6.4z"/>
			<path class="st1" d="M128.5,4.5c-18.9-8.4-53-1-64.4,52.3C52.7,110.1,71.7,168.6,84,203.9c12.3,35.4,32.2,92.9,32.2,92.9l8.1,0.7
				c0,0-12.4-187.7-9.5-232.6S128.5,4.5,128.5,4.5z"/>
			<path class="st1" d="M153.2,6c0,0,17.6-8.9,32.3,2.1c13.5,10.1,19.3,54.9,11.5,98.1c-13.7,75.5-61.9,178.9-63,192.2
				c-6.6-0.6-8.9-0.8-8.9-0.8S122.6,21.5,153.2,6z"/>
			<path class="st3" d="M151.7,6.3c0,0-13.5-11.3-28.6-3.7c-15.1,7.5-20.8,54.6-20.7,98.5c0.1,76.7,21.3,182.9,20.1,196.2
				c6.6,0.6,6.4,0.5,6.4,0.5S172.8,26.3,151.7,6.3z"/>
		</g>
	</g>
	<g>
		
			<rect x="112.7" y="315.4" transform="matrix(8.889430e-02 -0.996 0.996 8.889430e-02 -224.1313 429.0722)" class="st0" width="19.5" height="43.3"/>
		
			<rect x="120.7" y="298.5" transform="matrix(8.889430e-02 -0.996 0.996 8.889430e-02 -210.5024 418.6712)" class="st0" width="5.9" height="51.8"/>
		
			<rect x="107.8" y="310.3" transform="matrix(8.889430e-02 -0.996 0.996 8.889430e-02 -221.1083 404.774)" class="st4" width="5.9" height="25.9"/>
	</g>
	
		<rect x="97.8" y="295.2" transform="matrix(0.996 8.889430e-02 -8.889430e-02 0.996 26.9286 -10.0082)" class="st3" width="56.1" height="4.2"/>
	
		<rect x="131.2" y="296.7" transform="matrix(0.996 8.889430e-02 -8.889430e-02 0.996 27.1268 -11.4834)" class="st2" width="22.6" height="4.2"/>
</g>
</svg>
