<?xml version="1.0" encoding="utf-8"?>
<!-- Generator: Adobe Illustrator 19.2.1, SVG Export Plug-In . SVG Version: 6.00 Build 0)  -->
<svg version="1.1" id="Layer_1" xmlns="http://www.w3.org/2000/svg" xmlns:xlink="http://www.w3.org/1999/xlink" x="0px" y="0px"
	 viewBox="0 0 67 37" style="enable-background:new 0 0 67 37;" xml:space="preserve">
<style type="text/css">
	.st0{fill:#EEF8FD;}
</style>
<path class="st0" d="M62.7,22.4c0.4-1.1,0.6-2.3,0.6-3.5c0-5.9-4.8-10.7-10.7-10.7c-3.3,0-6.3,1.5-8.3,3.9c-1-0.7-2.1-1.3-3.4-1.7
	c-0.4-5.6-5-10-10.7-10c-5.3,0-9.7,3.9-10.6,8.9c-0.5-0.1-1-0.1-1.5-0.1C12.1,9.3,7.3,14.1,7.3,20c0,0.6,0.1,1.2,0.2,1.8H7.1
	c-3.6,0-6.6,3-6.6,6.6v1.5c0,3.6,3,6.6,6.6,6.6h52.8c3.6,0,6.6-3,6.6-6.6v-1.5C66.5,25.8,64.9,23.5,62.7,22.4z"/>
</svg>
