<?xml version="1.0" encoding="utf-8"?>
<!-- Generator: Adobe Illustrator 19.2.1, SVG Export Plug-In . SVG Version: 6.00 Build 0)  -->
<svg version="1.1" id="Layer_1" xmlns="http://www.w3.org/2000/svg" xmlns:xlink="http://www.w3.org/1999/xlink" x="0px" y="0px"
	 viewBox="0 0 149 76" style="enable-background:new 0 0 149 76;" xml:space="preserve">
<style type="text/css">
	.st0{fill:#FFFFFF;}
</style>
<path class="st0" d="M119.6,60.8v0.8H118v4h-1.3v-4H115v-0.8H119.6z M121.6,60.8l1.1,2.9l0.2,0.6h0.1l0.2-0.6l1.1-2.9h1.4l-2.1,4.8
	h-1.2l-2.1-4.8H121.6z M115.7,50.3v-1.2c0-2.5,2.1-4.4,4.6-4.4c0,0,0,0,0,0h0.2c2.5-0.1,4.5,1.9,4.6,4.4c0,0,0,0,0,0v1.2
	c0.3,0.1,0.7,0.2,1.1,0.4c1.2,0.5,2.4,1.2,3.5,2v-3.6c-0.1-4.9-4.1-8.8-9.1-8.8h-0.2c-4.9-0.1-9,3.8-9.1,8.8v3.5
	c1.1-0.8,2.2-1.5,3.5-2C115.1,50.5,115.4,50.4,115.7,50.3L115.7,50.3L115.7,50.3z M129.6,55c-3.6-3.6-9-4.7-13.8-2.9
	c-1.7,0.6-3.2,1.6-4.5,2.9c-2.3,2.3-3.6,5.4-3.6,8.6c0.2,7.1,6.1,12.6,13.2,12.4c6.8-0.2,12.2-5.6,12.4-12.4
	C133.2,60.4,131.9,57.3,129.6,55L129.6,55L129.6,55z M128.8,67.3c0,0.3-0.3,0.6-0.6,0.6H123v0.5l2.5,1.1c0.3,0.1,0.4,0.5,0.3,0.8
	l0,0c-0.1,0.2-0.3,0.3-0.6,0.3c-0.1,0-0.2,0-0.3-0.1l-2.8-1.2h-3.6l-2.8,1.2c-0.1,0.1-0.2,0.1-0.3,0.1c-0.3,0-0.6-0.2-0.6-0.6
	c0-0.2,0.1-0.5,0.3-0.6l0,0l2.5-1.1v-0.5h-5.1c-0.3,0-0.6-0.3-0.6-0.6v-9c0-0.3,0.3-0.6,0.6-0.6h15.6c0.3,0,0.6,0.3,0.6,0.6
	L128.8,67.3L128.8,67.3L128.8,67.3z M127.4,67.6h-14c-0.5,0-0.9-0.4-0.9-0.9v-7.8c0-0.5,0.4-0.9,0.9-0.9c0,0,0,0,0.1,0h14
	c0.5,0,0.9,0.4,0.9,0.9v7.7C128.3,67.1,128,67.5,127.4,67.6C127.4,67.6,127.4,67.6,127.4,67.6L127.4,67.6L127.4,67.6z M113.5,58.8
	c-0.1,0-0.1,0-0.2,0.1v7.7c0,0.1,0.1,0.1,0.2,0.1c0,0,0,0,0,0h14c0.1,0,0.1,0,0.2-0.1v-7.7c0-0.1-0.1-0.1-0.2-0.1c0,0,0,0,0,0
	L113.5,58.8L113.5,58.8z"/>
<g>
	<path class="st0" d="M105.5,48.1c-2.6,0-4.7,1.7-6.6,3.4l0.7-3.4h-7.8v0l-3.7,17.4c-0.8,2.7-2.8,4.8-4.9,4.8c-1.5,0-2.2-0.5-2.2-2
		c0-0.6,0.1-1.2,0.2-1.7l3.5-16.3h3.3l0.4-2.2h-3.3l1.9-8.6l-8.1,1.1l-1.6,7.5h-1.8L75,50.2h1.8l-3.3,15.2c0,0,0,0,0,0h0
		c-1.2,2.8-2.2,4.8-4.6,4.8c-1.6,0-2.2-0.9-2.2-2.3c0-3,2.6-9.6,2.6-14c0-4.3-2.6-6.1-6.1-6.1c-2.5,0-4.8,1.1-6.4,3l0.6-2.8h-7.9
		l-1.5,7.2c-1.5,0.6-3.1,1.1-4.4,1.1c-0.2,0-0.4,0-0.6-0.1c0-5.7-2.3-8.7-7-8.7l0,0c-10.9,0-14.7,12.3-14.9,18.7
		c-2.5,2.7-5,4.6-8.9,4.6c-2.6,0-3.9-0.9-3.9-4.6c0-6,3.5-15.9,7-15.9c1,0,1.5,0.9,1.5,2.2c0,1.1-0.3,2.2-0.7,3.2
		c0.6,0.4,1.2,0.6,1.9,0.7c1.6,0,2.9-1.3,2.9-4c0-2.5-1.2-5-6.1-5C4,47.6,0.4,60.6,0.4,66.9c0,6.1,3.4,8.6,8.5,8.6
		c5.5,0,9.6-3,12.5-6.6c0.8,4.6,4.1,6.5,8.6,6.5c6.7,0,12.2-6.3,13-16.3c1.6-0.3,3.2-0.7,4.6-1.3l-3.7,17.4h7.9l3.7-17.4
		c0.8-2.7,2.3-5,4.3-5c1.3,0,2,1,2,2.8h0c0,3.5-2.5,10.1-2.5,13.8c0,3.1,1.7,6.1,6.4,6.1c2.1,0,5-0.6,7.6-4.6
		c0.6,3.2,2.9,4.6,5.7,4.6c2,0,5-0.5,7.8-3.5L86,75.2h7.9l4.4-20.6c1.4-1.2,2.3-2.1,4-2.1s0.1,3.6,3.2,3.6c2.2,0,4-1.9,3.9-4.1
		C109.2,49.9,107.6,48.2,105.5,48.1z M37,57c-0.2,1,0.5,2,1.5,2.3c-0.9,6.4-3.7,11.3-6.3,11.3c-2.1,0-2.8-0.8-2.8-4.4
		c0-5.3,3.4-15.2,7.3-15.2c1.4,0,2,0.9,2.1,3.1C37.6,54.6,36.9,55.7,37,57z"/>
	<path class="st0" d="M144.5,70.1c-1.1,0.2-2.1-0.6-2.2-1.6c0-0.2,0-0.4,0-0.6c0-0.5,0.1-1.1,0.2-1.6l6.3-29.3l-8.1,1.1l-5.8,27.2
		c-0.3,1.2-0.4,2.3-0.4,3.5c0,4.6,2.6,6.6,5.8,6.6c3.2,0.1,5.9-2.4,6-5.5c0,0,0-0.1,0-0.1C145.7,70.1,145.1,70.2,144.5,70.1z"/>
</g>
<path id="el" class="st0" d="M61.6,36.1c0-0.5,0.1-0.7,0.1-1c0-2.6-1.4-4.5-4-4.5c-2.8,0-4.5,2.2-4.5,5.3c0,2.9,1.5,5,4.8,5
	c1.3,0,2.5-0.4,3.5-1.2l-0.6-1.2c-0.8,0.7-1.8,1-2.9,1.1c-2.4,0-3.1-1.8-3.1-3.5L61.6,36.1L61.6,36.1z M57.6,31.9
	c1.6,0,2.5,1.3,2.5,3h-5.2C55.1,33,56.1,31.9,57.6,31.9z M64.5,26.4v14.4h1.6V26.4H64.5z"/>
<g>
	<polygon class="st0" points="47.5,0.3 41.8,0.3 36.8,10.5 40.9,10.5 	"/>
	<path class="st0" d="M45.8,34c0-0.6,0.1-1.2,0.2-1.7l3.9-18.4h-7.9l-3.7,17.4C37.6,34,36.1,36,34,36c-1.3,0-1.6-1.1-1.6-2.4
		c0-0.5,0.1-0.9,0.2-1.4l3.9-18.4h-7.9l-3.7,17.4h0C24.1,34,22.1,36,20,36c-1.5,0-2.2-0.5-2.2-2c0-0.6,0.1-1.2,0.2-1.7L21.5,16h3.3
		l0.4-2.2h-3.3l1.9-8.6l-8.1,1.1L14,13.9h-1.8L11.8,16h1.8l-3.3,15.2c-0.3,1.2-0.4,2.3-0.4,3.5c0,4.6,2.6,6.5,5.8,6.5
		c2.2,0,5.9-0.7,8.9-4.9c0.6,3.4,2.9,4.9,5.7,4.9c2.3,0,5.4-0.7,8.1-5.2c0.4,3.2,2.3,5.2,5.3,5.2c3.1,0.2,5.8-2.2,6-5.3
		c0-0.1,0-0.2,0-0.3C49.3,36,48.7,36.1,48,36C46.5,36,45.8,35.6,45.8,34z"/>
</g>
<path id="y" class="st0" d="M3,2.1l3.9,10.2l-0.6,1.6c-0.4,1.1-0.8,1.3-2.2,1.3l0.1,1.2c0.3,0.1,0.6,0.2,0.9,0.1
	c1.4,0,2.1-1.4,2.7-2.9l4.2-11.5h-1.8L8,9.4l-0.2,0.9H7.6L7.4,9.4L4.8,2.1H3z"/>
</svg>
