<svg xmlns="http://www.w3.org/2000/svg" width="120" height="42" viewBox="0 0 120 42">
  <defs>
    <style>
      .cls-1 {
        fill: #1899e5;
        fill-rule: evenodd;
      }
    </style>
  </defs>
  <path id="KIDS" class="cls-1" d="M0.276,40.921H13.39V28.587l8.621,12.334h15.6l-15-21.674L36.888,0.985H21.041l-7.65,9.221V0.985H0.277V40.921Zm38.857,0H52.855V0.985H39.134V40.92Zm29.507,0a36.718,36.718,0,0,0,10.17-1.287,20.8,20.8,0,0,0,7.529-3.8,16.281,16.281,0,0,0,4.675-6.257,21.749,21.749,0,0,0,1.609-8.652,21.755,21.755,0,0,0-1.609-8.652,16.287,16.287,0,0,0-4.675-6.257A20.452,20.452,0,0,0,78.81,2.242,37.561,37.561,0,0,0,68.641.984H57.408V40.92H68.64Zm1.7-28.56q4.554,0,7.043,2.1t2.489,6.466q0,4.371-2.489,6.5T70.34,29.544V12.36ZM94.261,40.5a29.713,29.713,0,0,0,3.218.718q1.517,0.3,3.491.509a40.744,40.744,0,0,0,4.281.209,19.875,19.875,0,0,0,6.617-.988,12.657,12.657,0,0,0,4.584-2.694,10.5,10.5,0,0,0,2.642-4.012,14.175,14.175,0,0,0,.85-4.94,12.076,12.076,0,0,0-.82-4.55,16.718,16.718,0,0,0-2-3.652,17.984,17.984,0,0,0-2.611-2.874q-1.428-1.257-2.611-2.215t-2-1.676a1.917,1.917,0,0,1-.82-1.2,1.028,1.028,0,0,1,.364-0.838,2.13,2.13,0,0,1,.85-0.419,5.668,5.668,0,0,1,1.033-.15q0.546-.029.91-0.03,0.667,0,1.275.06t1.093,0.12q0.606,0.06,1.093.12V0.8q-1.275-.18-2.611-0.359l-2.61-.269a28.694,28.694,0,0,0-2.915-.15,17.949,17.949,0,0,0-5.251.748A12.9,12.9,0,0,0,98.026,2.96a10.012,10.012,0,0,0-2.854,3.592,11.37,11.37,0,0,0-1.032,4.969,11.035,11.035,0,0,0,.85,4.461,14.32,14.32,0,0,0,2.155,3.5,19.99,19.99,0,0,0,2.793,2.754q1.488,1.2,2.793,2.185a25.765,25.765,0,0,1,2.156,1.8,2.271,2.271,0,0,1,.85,1.587q0,2.036-2.793,2.036a27.1,27.1,0,0,1-3.127-.18,22.272,22.272,0,0,1-2.763-.479,20.173,20.173,0,0,1-2.793-.659V40.5Z"/>
</svg>
