<?xml version="1.0" encoding="utf-8"?>
<!-- Generator: Adobe Illustrator 19.2.1, SVG Export Plug-In . SVG Version: 6.00 Build 0)  -->
<svg version="1.1" xmlns="http://www.w3.org/2000/svg" xmlns:xlink="http://www.w3.org/1999/xlink" x="0px" y="0px"
	 viewBox="0 0 96.1 317.2" style="enable-background:new 0 0 96.1 317.2;" xml:space="preserve">
<style type="text/css">
	.st0{fill-rule:evenodd;clip-rule:evenodd;fill:#ED1C24;}
	.st1{fill-rule:evenodd;clip-rule:evenodd;fill:#F37028;}
	.st2{fill-rule:evenodd;clip-rule:evenodd;fill:#F5EB07;}
	.st3{fill-rule:evenodd;clip-rule:evenodd;fill:#C4161C;}
	.st4{fill-rule:evenodd;clip-rule:evenodd;fill:#F15A22;}
	.st5{fill-rule:evenodd;clip-rule:evenodd;fill:#FFC20E;}
	.st6{fill:#636466;}
	.st7{fill:#FFFFFF;}
	.st8{fill:#BFC1C4;}
	.st9{fill:#E7E9EA;}
	.st10{fill:#F7941E;}
	.st11{fill:#3E484F;}
	.st12{fill:#7E8083;}
	.st13{fill:#D2D4D6;}
	.st14{fill:#F47920;}
	.st15{fill:#C7EAFB;}
	.st16{fill:#BFDDDB;}
</style>
<g id="bg">
</g>
<g id="bg_2">
</g>
<g id="shadow">
</g>
<g id="air">
</g>
<g id="rocket">
</g>
<g id="poster">
	<g>
		<g>
			<path class="st0" d="M40.9,179.3c-0.7,0.5-9.8,6.3-9.8,6.3s-10.6,35.5-10.4,34.2c0.2-1.4,9.8-13,9.8-13l-6.2,34l8.8-11.9
				l15.1,88.2l14.9-88.3l8.9,11.9l-6.3-34c0,0,9.6,11.6,9.8,12.9c0.2,1.3-10.5-34.1-10.5-34.1s-9.1-5.8-9.8-6.3l-7.1-0.8L40.9,179.3
				z"/>
			<path class="st1" d="M30.1,201.5l6.4-7.9l-6,32.6l5.7-7.7l11.8,77.6l11.7-77.6l5.7,7.7l-6.1-32.6l6.5,7.9
				c-1.4-4.5-2.8-9-4.1-13.6c-1.3-0.8-2.5-1.6-3.8-2.4c-1.3-0.8-2.9-1.8-4.3-2.7l-5.7-0.6l-5.7,0.6c-1.4,0.9-2.9,1.9-4.2,2.7
				c-1.3,0.8-2.5,1.6-3.8,2.4C32.9,192.5,31.5,197,30.1,201.5z"/>
			<path class="st2" d="M41.3,187.7L37,211.6l2.6-3.5l8.5,67l8.4-67l2.6,3.5l-4.4-23.9c-0.7-0.5-1.5-0.9-2.2-1.4l-4.5-0.5l-4.5,0.5
				C42.8,186.8,42.1,187.2,41.3,187.7z"/>
		</g>
		<g>
			<path class="st3" d="M48.2,317.2l14.9-88.3l8.9,11.9l-6.3-34c0,0,9.6,11.6,9.8,12.9c0.2,1.3-10.5-34.1-10.5-34.1
				s-9.1-5.8-9.8-6.3l-7.1-0.8L48.2,317.2z"/>
			<path class="st4" d="M48.1,296.1l11.7-77.6l5.7,7.7l-6.1-32.6l6.5,7.9c-1.4-4.5-2.8-9-4.1-13.6c-1.3-0.8-2.5-1.6-3.8-2.4
				c-1.3-0.8-2.9-1.8-4.3-2.7l-5.7-0.6L48.1,296.1z"/>
			<path class="st5" d="M48.1,275l8.4-67l2.6,3.5l-4.4-23.9c-0.7-0.5-1.5-0.9-2.2-1.4l-4.5-0.5L48.1,275z"/>
		</g>
		<g>
			<path class="st6" d="M17.7,112.8c-6.9,9.8-25.4,41.9-14.1,88.8c0.4,1.6,3.3,1.5,3.6,0c6.5-33.3,23.1-53.1,26-56
				c0.3-0.3,0.5-0.8,0.3-1.2l-12.5-31.2C20.7,111.8,18.5,111.6,17.7,112.8z"/>
			<path class="st7" d="M78.5,112.8c6.9,9.8,25.4,41.9,14.1,88.8c-0.4,1.6-3.3,1.5-3.6,0c-6.5-33.3-23.1-53.1-26-56
				c-0.3-0.3-0.5-0.8-0.3-1.2L75,113.1C75.4,111.8,77.7,111.6,78.5,112.8z"/>
		</g>
		<path class="st6" d="M69.3,85.5C68.8,61.9,57.5,34,51.9,19.8c-1.8-4.5-5.9-4.5-7.7,0C38.7,34,27.3,61.9,26.8,85.5
			c-0.7,31.6,2.6,71.6,4.6,92.9c0.2,2.4,1.2,4.4,2.6,5.4c3.8,2.7,9.8,3.1,14.1,3.1s10.4-0.4,14.1-3.1c1.4-1,2.4-3,2.6-5.4
			C66.8,157.1,70.1,117.2,69.3,85.5z"/>
		<path class="st8" d="M76.8,80c-0.7-23.6-16-51.5-23.6-65.7c-2.4-4.5-8-4.5-10.4,0C35.4,28.5,20.1,56.4,19.3,80
			c-1,31.6,3.5,71.6,6.2,92.9c0.3,2.4,1.6,4.4,3.5,5.4c5.1,2.7,13.2,3.2,19.1,3.2c5.9,0,14-0.5,19.1-3.2c1.9-1,3.2-3,3.5-5.4
			C73.3,151.6,77.8,111.7,76.8,80z"/>
		<path class="st9" d="M79,69.1C78.2,45.5,62.9,17.6,54.1,3.4c-2.8-4.5-9.3-4.5-12.1,0c-8.8,14.2-24,42.1-24.9,65.7
			c-1.2,31.6,1.5,71.6,4.6,92.9c0.4,2.4,1.9,4.4,4.1,5.4c5.9,2.7,15.4,4.1,22.3,4.1c6.8,0,16.3-1.4,22.3-4.1c2.2-1,3.7-3,4.1-5.4
			C77.5,140.6,80.2,100.7,79,69.1z"/>
		<path class="st6" d="M54.6,143.3c0.1,13.6-3.1,48.7-4.7,57.6c-0.4,2.1-3.2,2.1-3.5,0c-1.6-8.8-4.8-41-4.8-57.6
			c0-26.9,0-31.3,6.6-31.3S54.4,116.4,54.6,143.3z"/>
		<path class="st10" d="M48.1,29.6c6.7,0,13.1-0.8,19.1-2.1c-4.5-9.6-9.4-18.1-13.1-24.1c-2.8-4.5-9.3-4.5-12.1,0
			c-3.7,6-8.6,14.5-13.1,24.1C35,28.9,41.4,29.6,48.1,29.6z"/>
		<path class="st11" d="M64.6,179.5c-3.7,1.3-8.3,1.9-12.5,2.1c-0.2,1.8-0.4,3.6-0.5,5.3c3.7-0.2,7.7-1,10.5-3
			C63.4,183,64.3,181.4,64.6,179.5"/>
		<path class="st12" d="M71.4,166.8c-0.3,0.2-0.7,0.4-1.1,0.6c-4.6,2.1-11.3,3.4-17.3,3.9c-0.3,3.5-0.6,6.9-0.9,10.2
			c4.2-0.2,8.7-0.7,12.5-2.1c0.9-0.3,1.8-0.7,2.5-1.1c1.9-1,3.2-3,3.5-5.4C70.9,171,71.1,169,71.4,166.8"/>
		<path class="st13" d="M54.3,3.7c3.7,6,8.5,14.4,12.9,23.8c-6,1.4-12.5,2.1-19.1,2.1v26c9.9,0,17.8,8,17.8,17.8
			c0,9.9-8,17.8-17.8,17.8V112c0,0,0.1,0,0.1,0c6.6,0,6.3,4.3,6.4,31.3c0,6.3-0.6,17.2-1.5,28c6-0.5,12.7-1.8,17.3-3.9
			c0.4-0.2,0.7-0.4,1.1-0.6c1.6-1.1,2.7-2.8,3-4.8c0,0,0-0.1,0-0.1c1.8-12,3.4-29.9,4.2-48.9c0.7-14.7,0.9-30.1,0.4-43.9
			C78.2,45.6,63.1,17.9,54.3,3.7 M54.2,3.5c0,0,0.1,0.1,0.1,0.1C54.3,3.6,54.2,3.6,54.2,3.5 M54.1,3.4c0,0,0.1,0.1,0.1,0.1
			C54.2,3.5,54.2,3.4,54.1,3.4"/>
		<path class="st11" d="M48.1,112C48.1,112,48.1,112,48.1,112l-0.1,90.4c0,0,0.1,0,0.1,0c0.8,0,1.6-0.5,1.8-1.6
			c0.4-2.2,0.9-6,1.4-10.7c0,0,0-0.1,0-0.1c0.1-1,0.2-2.1,0.3-3.2c0.2-1.7,0.4-3.5,0.5-5.3c0.3-3.3,0.6-6.7,0.9-10.2
			c0.9-10.8,1.5-21.7,1.5-28C54.4,116.4,54.8,112,48.1,112"/>
		<path class="st14" d="M48.1,0v29.6c6.7,0,13.1-0.8,19.1-2.1C62.8,18.1,58,9.7,54.3,3.7c0,0,0,0,0,0c0,0-0.1-0.1-0.1-0.1
			c0,0,0,0,0,0c0,0-0.1-0.1-0.1-0.1l0,0C52.7,1.1,50.4,0,48.1,0"/>
		<g>
			<circle class="st6" cx="48.1" cy="73.4" r="17.8"/>
			<circle class="st15" cx="48.1" cy="73.4" r="12.8"/>
			<path class="st11" d="M48.1,55.6v5.1c7.1,0,12.8,5.7,12.8,12.8c0,7.1-5.7,12.8-12.8,12.8v5.1c9.9,0,17.8-8,17.8-17.8
				C65.9,63.6,57.9,55.6,48.1,55.6"/>
			<path class="st16" d="M48.1,60.6v25.6c7.1,0,12.8-5.7,12.8-12.8C60.9,66.4,55.1,60.6,48.1,60.6"/>
		</g>
		<g>
			<circle class="st6" cx="48.1" cy="46.5" r="7.3"/>
			<circle class="st15" cx="48.1" cy="46.5" r="5.2"/>
			<path class="st11" d="M48.1,39.2v2.1c2.9,0,5.2,2.3,5.2,5.2c0,2.9-2.3,5.2-5.2,5.2v2.1c4,0,7.3-3.3,7.3-7.3
				C55.4,42.4,52.1,39.2,48.1,39.2"/>
			<path class="st16" d="M48.1,41.2v10.5c2.9,0,5.2-2.3,5.2-5.2C53.3,43.6,51,41.2,48.1,41.2"/>
		</g>
		<g>
			<circle class="st6" cx="48.1" cy="100.4" r="7.3"/>
			<circle class="st15" cx="48.1" cy="100.4" r="5.2"/>
			<path class="st11" d="M48.1,93.1v2.1c2.9,0,5.2,2.3,5.2,5.2c0,2.9-2.3,5.2-5.2,5.2v2.1c4,0,7.3-3.3,7.3-7.3
				C55.4,96.4,52.1,93.1,48.1,93.1"/>
			<path class="st16" d="M48.1,95.2v10.5c2.9,0,5.2-2.3,5.2-5.2C53.3,97.5,51,95.2,48.1,95.2"/>
		</g>
		<path class="st11" d="M78.6,113c-0.9,19-2.5,36.8-4.2,48.9c5.4,9.5,11.2,22.9,14.5,39.6c0.2,0.8,1,1.2,1.8,1.2
			c0.8,0,1.6-0.4,1.8-1.2C103.8,155,85.6,123.1,78.6,113"/>
	</g>
</g>
</svg>
