<?xml version="1.0" encoding="utf-8"?>
<!-- Generator: Adobe Illustrator 19.2.1, SVG Export Plug-In . SVG Version: 6.00 Build 0)  -->
<svg version="1.1" id="Layer_1" xmlns="http://www.w3.org/2000/svg" xmlns:xlink="http://www.w3.org/1999/xlink" x="0px" y="0px"
	 viewBox="0 0 130 86" style="enable-background:new 0 0 130 86;" xml:space="preserve">
<style type="text/css">
	.st0{fill:#FFFFFF;}
</style>
<g>
	<path class="st0" d="M35.6,31.3c-4.3,0-6.4,2.4-6.4,5.5c0,2.3,1.2,5.2,3.7,5.2c0.8,0,3-0.3,3.3-1c0,11.3-7.7,34.3-17.7,34.3
		c-2.5,0-3.5-1.3-3.5-3.4c0.1-1.2,0.2-2.5,0.5-3.7l7.4-34.9H8.1L0.7,68.2c-0.3,1.6-0.5,3.3-0.5,4.9c0,8.1,4.8,12.1,12.6,12.1
		c20.9,0,29.2-28.6,29.2-45C42.1,35.7,40.5,31.3,35.6,31.3z"/>
	<path class="st0" d="M126.1,75.3c-3.1,0-4.1-1.7-4.1-4.3c0-5.7,4.9-18.2,4.9-26.5c0-8.2-4.8-11.6-11.4-11.6c-3.2,0-7.7,0.8-12,5.7
		l1.1-5.3H89.9l-7,32.9c-5.1,5.8-10,10.3-18.1,10.3c-4.9,0-7.4-1.6-7.4-8.6c0-1.2,0.1-2.7,0.2-4.1c12.3-0.7,23.6-9.8,23.6-21.6
		c0-5.1-2.2-9.8-11.3-9.8c-21,0-27.7,24.7-27.7,36.5c0,11.6,6.4,16.3,16,16.3c10.2,0,17.7-5.4,23.2-12l-2.4,11.4h14.8l7-32.9
		c1.5-5.1,4.3-9.4,8-9.4c2.5,0,3.7,1.8,3.7,5.2c0,6.6-4.6,19.2-4.6,26.2c0,5.8,2.5,11.6,10.4,11.6c5.4,0,10.4-3.2,11.3-10.6
		C128.4,75.2,127.3,75.4,126.1,75.3z M70.8,37.8c1.9,0,2.6,1.6,2.6,4.2c0,8.5-7,16.4-14.9,16.9C60.5,48.8,65.5,37.8,70.8,37.8z"/>
</g>
<path id="de_lo_que" class="st0" d="M15.1,0.2v8.8c-0.8-1.6-2.5-2.5-4.3-2.4c-4.4,0-6.2,3.6-6.2,7.9c0,3.5,1.2,8,6,8
	c1.9,0.1,3.7-0.9,4.7-2.6l0.3,2.3h2V0.2H15.1L15.1,0.2z M15.1,16.8c0,2-1.7,3.7-3.7,3.7c-0.1,0-0.2,0-0.3,0c-3.5,0-4.1-3.1-4.1-5.9
	s0.6-5.9,4-5.9c2.1-0.2,3.9,1.4,4,3.5c0,0.1,0,0.2,0,0.3L15.1,16.8L15.1,16.8z M34.7,15.1c0.1-0.7,0.1-1.1,0.1-1.5
	c0-4-2.1-6.9-6.1-6.9c-4.3,0-6.9,3.5-6.9,8.2c0,4.4,2.3,7.7,7.3,7.7c1.9,0,3.8-0.6,5.4-1.8l-1-1.9c-1.2,1-2.8,1.6-4.4,1.6
	c-3.7,0-4.7-2.8-4.8-5.4L34.7,15.1L34.7,15.1z M28.6,8.6c2.4,0,3.8,2,3.8,4.6h-8C24.8,10.3,26.4,8.6,28.6,8.6z M46,0.2v22.1h2.4V0.2
	L46,0.2L46,0.2z M59.5,8.7c3.3,0,4.3,2.9,4.3,5.9c0,3.2-1.1,5.9-4.3,5.9c-3.3,0-4.3-2.9-4.3-5.9C55.2,11.3,56.3,8.7,59.5,8.7z
	 M59.5,6.7c-4.4,0-6.8,3.5-6.8,7.9c0,4.8,2.6,8,6.8,8c4.4,0,6.8-3.7,6.8-8C66.2,9.9,63.7,6.7,59.5,6.7z M87.3,6.9L87,9.2
	c-0.8-1.7-2.6-2.7-4.5-2.5c-4.4,0-6.2,3.6-6.2,7.8c0,3.5,1.3,8.1,6,8.1c1.9,0.1,3.6-0.8,4.6-2.4v8.8h2.4v-22
	C89.2,6.9,87.3,6.9,87.3,6.9z M86.8,16.8c0,2.1-1.7,3.7-3.8,3.7c0,0,0,0,0,0c-3.6,0-4.3-2.9-4.3-5.8c0-2.9,0.6-5.9,4-5.9
	c2.1-0.2,3.8,1.4,4,3.4c0,0.1,0,0.2,0,0.3L86.8,16.8L86.8,16.8z M106.5,22.3l-0.3-2.7V6.9h-2.4v9.8c0.1,2-1.5,3.7-3.5,3.8
	c-0.1,0-0.2,0-0.3,0c-0.9,0.1-1.8-0.3-2.5-0.9c-0.5-0.6-0.8-1.4-0.8-2.3V6.9h-2.4v10c-0.1,1.5,0.4,3,1.3,4.2c1,1,2.3,1.5,3.7,1.5
	c2,0.1,3.9-1.1,4.6-2.9l0.3,2.7H106.5L106.5,22.3z M123.5,15.1c0.1-0.7,0.1-1.1,0.1-1.5c0-4-2.1-6.9-6.1-6.9c-4.3,0-6.9,3.5-6.9,8.2
	c0,4.4,2.3,7.7,7.3,7.7c1.9,0,3.8-0.6,5.4-1.8l-1-1.9c-1.2,1-2.8,1.6-4.4,1.6c-3.7,0-4.7-2.8-4.8-5.4L123.5,15.1L123.5,15.1z
	 M117.4,8.6c2.4,0,3.8,2,3.8,4.6h-8C113.5,10.3,115.1,8.6,117.4,8.6L117.4,8.6z"/>
</svg>
