<svg xmlns="http://www.w3.org/2000/svg" width="138" height="36" viewBox="0 0 138 36">
  <defs>
    <style>
      .cls-1 {
        fill: #fff;
        fill-rule: evenodd;
      }
    </style>
  </defs>
  <path id="Cámbiate_a_XFINITY_y_disfruta" data-name="Cámbiate a XFINITY y disfruta" class="cls-1" d="M32.384,12.837A6.486,6.486,0,0,0,35.841,12l-0.4-1.6a5.519,5.519,0,0,1-3.009.816c-2.577,0-3.425-2.225-3.425-4.242,0-2.3,1.008-4.21,3.425-4.21a5.413,5.413,0,0,1,2.993.832l0.416-1.617a6.236,6.236,0,0,0-3.361-.832c-3.489,0-5.426,2.673-5.426,5.89C27.054,10.436,28.894,12.837,32.384,12.837Zm6.43-6.643a5.713,5.713,0,0,1,2.481-.64,1.285,1.285,0,0,1,1.537,1.473V7.57c-3.97.064-5.17,1.152-5.17,2.833a2.319,2.319,0,0,0,2.593,2.417,3.019,3.019,0,0,0,2.673-1.409,3.23,3.23,0,0,0,.336,1.233h1.809a4.486,4.486,0,0,1-.448-2.145V7.122c0-2.161-1.168-2.977-3.265-2.977a5.9,5.9,0,0,0-3.265.832Zm4.018,2.4V9.539a1.88,1.88,0,0,1-2.049,1.937,1.144,1.144,0,0,1-1.345-1.232C39.438,9.555,39.758,8.8,42.832,8.595ZM40.543,3.137h0.928L43.984,1.28V0.688H42.463L40.543,2.656v0.48ZM47.21,4.321l0.16,1.5v6.819h1.777v-5.3a1.662,1.662,0,0,1,1.7-1.713,1.346,1.346,0,0,1,1.441,1.489v5.522h1.793v-5.3A1.666,1.666,0,0,1,55.79,5.634,1.354,1.354,0,0,1,57.23,7.122v5.522h1.793V7.362a3.357,3.357,0,0,0-.736-2.433,2.542,2.542,0,0,0-1.953-.784A2.671,2.671,0,0,0,53.9,5.554a2.479,2.479,0,0,0-2.465-1.409,2.634,2.634,0,0,0-2.417,1.5l-0.16-1.329H47.21ZM61.724,0.864V12.645h1.489l0.16-1.1a2.73,2.73,0,0,0,2.481,1.281c2.577,0,3.313-2.417,3.313-4.354,0-2.321-1.024-4.322-3.409-4.322a2.482,2.482,0,0,0-2.257,1.3V0.864H61.724Zm1.777,6.5a1.759,1.759,0,0,1,1.889-1.729c1.665,0,1.9,1.457,1.9,2.817,0,1.409-.24,2.881-1.9,2.881a1.736,1.736,0,0,1-1.889-1.7V7.362Zm7.985-3.041v8.323h1.777V4.321H71.485Zm-0.08-3.457V2.544h1.937V0.864H71.405Zm5.181,5.33a5.713,5.713,0,0,1,2.481-.64A1.285,1.285,0,0,1,80.6,7.026V7.57c-3.97.064-5.17,1.152-5.17,2.833a2.32,2.32,0,0,0,2.593,2.417A3.019,3.019,0,0,0,80.7,11.412a3.228,3.228,0,0,0,.336,1.233h1.809A4.486,4.486,0,0,1,82.4,10.5V7.122c0-2.161-1.168-2.977-3.265-2.977a5.9,5.9,0,0,0-3.265.832Zm4.018,2.4V9.539a1.88,1.88,0,0,1-2.049,1.937,1.144,1.144,0,0,1-1.345-1.232C77.21,9.555,77.531,8.8,80.6,8.595Zm5.065-6.483L85.461,4.321H84.116V5.682h1.345v5.106A1.909,1.909,0,0,0,87.574,12.8a3.613,3.613,0,0,0,1.5-.192l0.112-1.344H87.942a0.691,0.691,0,0,1-.7-0.8V5.682h1.889V4.321H87.238V2.112H85.669ZM97.9,8.883c0.048-.5.064-0.832,0.064-1.024a3.38,3.38,0,0,0-3.489-3.713c-2.417,0-3.906,1.921-3.906,4.5,0,2.385,1.264,4.178,4.114,4.178a5.123,5.123,0,0,0,3.105-.96L97.241,10.6a4.582,4.582,0,0,1-2.545.816c-1.713,0-2.241-1.264-2.321-2.529H97.9ZM94.456,5.49c1.168,0,1.793.912,1.793,2.225H92.407C92.6,6.306,93.351,5.49,94.456,5.49Zm10.574,0.7a5.717,5.717,0,0,1,2.481-.64,1.286,1.286,0,0,1,1.537,1.473V7.57c-3.97.064-5.17,1.152-5.17,2.833a2.319,2.319,0,0,0,2.593,2.417,3.019,3.019,0,0,0,2.673-1.409,3.231,3.231,0,0,0,.336,1.233h1.809a4.488,4.488,0,0,1-.448-2.145V7.122c0-2.161-1.169-2.977-3.266-2.977a5.9,5.9,0,0,0-3.265.832Zm4.018,2.4V9.539A1.879,1.879,0,0,1,107,11.476a1.143,1.143,0,0,1-1.344-1.232C105.655,9.555,105.975,8.8,109.048,8.595ZM0.289,20.344l3.633,5.442L0.209,31.645H2.37l2.689-4.578L7.62,31.645H9.989L6.228,25.786l3.681-5.442H7.764L5.123,24.506,2.61,20.344H0.289Zm11.783,0v11.3h1.889V26.6h4.626V25.034H13.961V21.9h5.346V20.344H12.072Zm9.429,0v11.3h1.889v-11.3H21.5Zm5.069,11.3h1.825V25.29l-0.176-2.673h0.16l0.976,2.177,3.714,6.851h2.353v-11.3H33.6V26.7l0.176,2.673h-0.16l-0.976-2.193-3.649-6.835H26.569v11.3Zm12.054-11.3v11.3h1.889v-11.3H38.623Zm3.95,0V21.9h3.233v9.748h1.921V21.9h3.217V20.344H42.573Zm9.779,0,4.05,7.315v3.986h1.9V27.659l4.082-7.315H60.259L57.442,25.9l-2.817-5.554H52.352Zm14.624,2.977L70.1,31.773l-0.4,1.072c-0.288.8-.64,0.928-1.809,0.928l0.128,1.3a1.911,1.911,0,0,0,.864.144c1.425,0,2.113-1.233,2.577-2.545l3.361-9.348H72.962L71.25,28.747l-0.208.8h-0.08l-0.208-.8-1.841-5.426H66.976ZM85.73,19.864v4.514a2.428,2.428,0,0,0-2.257-1.233c-2.385,0-3.409,2-3.409,4.322,0,1.937.736,4.354,3.313,4.354a2.76,2.76,0,0,0,2.481-1.344l0.16,1.168h1.489V19.864H85.73Zm0,8.772a1.736,1.736,0,0,1-1.889,1.7c-1.665,0-1.9-1.473-1.9-2.881,0-1.361.24-2.817,1.9-2.817a1.758,1.758,0,0,1,1.889,1.729v2.273Zm4.556-5.314v8.323h1.777V23.321H90.286Zm-0.08-3.457v1.681h1.937V19.864H90.206Zm9.911,3.714a7.1,7.1,0,0,0-2.561-.464c-1.857,0-3.185.816-3.185,2.449,0,1.521,1.3,2.161,2.3,2.465,1.233,0.368,2.017.624,2.017,1.441,0,0.832-.88,1.072-1.7,1.072a5.3,5.3,0,0,1-2.433-.624l-0.256,1.457A6.411,6.411,0,0,0,97,31.917c1.937,0,3.489-.88,3.489-2.657,0-1.617-1.312-2.193-2.417-2.5-1.184-.32-1.937-0.56-1.937-1.345,0-.7.64-0.944,1.377-0.944a5.959,5.959,0,0,1,2.337.544Zm1.673-.256v1.36h1.344v6.963h1.793V24.682H106.7v-1.36h-1.825V21.961a0.731,0.731,0,0,1,.864-0.9,3.933,3.933,0,0,1,.8.1l0.16-1.312a3.006,3.006,0,0,0-1.265-.192,2.122,2.122,0,0,0-2.3,2.257v1.409H101.79Zm6.579,0,0.16,1.489v6.835h1.777v-5.09a1.418,1.418,0,0,1,1.584-1.5,4.02,4.02,0,0,1,.913.1l0.208-1.777a2.334,2.334,0,0,0-.848-0.16,2.529,2.529,0,0,0-2.017,1.489l-0.16-1.376h-1.617Zm13.478,8.323-0.16-1.5V23.321H119.91v5.314a1.711,1.711,0,0,1-1.793,1.7,1.568,1.568,0,0,1-1.232-.448,1.474,1.474,0,0,1-.368-1.024V23.321H114.74V28.6a3.354,3.354,0,0,0,.752,2.433,2.8,2.8,0,0,0,2.065.784,2.617,2.617,0,0,0,2.481-1.5l0.16,1.329h1.649Zm3.232-10.532-0.208,2.209h-1.344v1.36h1.344v5.106a1.909,1.909,0,0,0,2.113,2.017,3.616,3.616,0,0,0,1.505-.192l0.112-1.344h-1.249a0.691,0.691,0,0,1-.7-0.8V24.682h1.889v-1.36h-1.889V21.112h-1.569Zm6.267,4.082a5.717,5.717,0,0,1,2.481-.64,1.286,1.286,0,0,1,1.537,1.473v0.544c-3.97.064-5.17,1.152-5.17,2.833a2.319,2.319,0,0,0,2.593,2.417,3.018,3.018,0,0,0,2.673-1.409,3.231,3.231,0,0,0,.336,1.233H137.6a4.488,4.488,0,0,1-.448-2.145V26.122c0-2.161-1.169-2.977-3.266-2.977a5.9,5.9,0,0,0-3.265.832Zm4.018,2.4v0.944a1.879,1.879,0,0,1-2.049,1.937,1.143,1.143,0,0,1-1.344-1.232C131.971,28.555,132.291,27.8,135.364,27.595Z"/>
</svg>
