<svg xmlns="http://www.w3.org/2000/svg" width="119" height="32" viewBox="0 0 119 32">
  <defs>
    <style>
      .cls-1 {
        fill: #fff;
        fill-rule: evenodd;
      }
    </style>
  </defs>
  <path id="ZONE" class="cls-1" d="M0.941,30.56H23.775V28.548H4L23.775,1.837V0.6H1.644V2.608H20.72L0.941,29.318V30.56ZM42.6,31.073c8.754,0,14.576-7.32,14.576-15.5V15.491c0-8.176-5.739-15.41-14.493-15.41S28.111,7.4,28.111,15.578v0.086C28.11,23.839,33.85,31.073,42.6,31.073Zm0.083-2.012c-7.143,0-12.346-6.078-12.346-13.483V15.492c0-7.405,5.12-13.4,12.264-13.4S54.95,8.172,54.949,15.577v0.086C54.949,23.068,49.829,29.061,42.686,29.061Zm22.007,1.5h2.065V3.934L87.114,30.558h1.61V0.595H86.66V26.663L66.717,0.6H64.694V30.559Zm32.826,0h20.769V28.5H99.666V16.475h16.558V14.42H99.666V2.649h18.415V0.594H97.52V30.558Z"/>
</svg>
