<svg xmlns="http://www.w3.org/2000/svg" width="228" height="17" viewBox="0 0 228 17">
  <defs>
    <style>
      .cls-1 {
        fill: #fff;
        fill-rule: evenodd;
      }
    </style>
  </defs>
  <path id="Cámbiate_a_XFINITY_y_disfruta" data-name="Cámbiate a XFINITY y disfruta" class="cls-1" d="M5.935,12.837A6.486,6.486,0,0,0,9.393,12l-0.4-1.6a5.52,5.52,0,0,1-3.009.816C3.406,11.22,2.558,9,2.558,6.978c0-2.3,1.008-4.21,3.425-4.21A5.414,5.414,0,0,1,8.977,3.6L9.393,1.984a6.236,6.236,0,0,0-3.361-.832c-3.489,0-5.426,2.673-5.426,5.89C0.605,10.436,2.446,12.837,5.935,12.837Zm6.43-6.643a5.713,5.713,0,0,1,2.481-.64,1.286,1.286,0,0,1,1.537,1.473V7.57c-3.97.064-5.17,1.152-5.17,2.833a2.319,2.319,0,0,0,2.593,2.417,3.019,3.019,0,0,0,2.673-1.409,3.23,3.23,0,0,0,.336,1.233h1.809a4.486,4.486,0,0,1-.448-2.145V7.122c0-2.161-1.168-2.977-3.265-2.977a5.9,5.9,0,0,0-3.265.832Zm4.018,2.4V9.539a1.88,1.88,0,0,1-2.049,1.937,1.144,1.144,0,0,1-1.344-1.232C12.99,9.555,13.31,8.8,16.383,8.595ZM14.094,3.137h0.928L17.536,1.28V0.688H16.015L14.094,2.656v0.48Zm6.668,1.184,0.16,1.5v6.819H22.7v-5.3a1.662,1.662,0,0,1,1.7-1.713,1.346,1.346,0,0,1,1.441,1.489v5.522h1.793v-5.3a1.666,1.666,0,0,1,1.713-1.713,1.354,1.354,0,0,1,1.441,1.489v5.522h1.793V7.362a3.357,3.357,0,0,0-.736-2.433,2.542,2.542,0,0,0-1.953-.784,2.671,2.671,0,0,0-2.433,1.409,2.479,2.479,0,0,0-2.465-1.409,2.634,2.634,0,0,0-2.417,1.5l-0.16-1.329H20.762ZM35.276,0.864V12.645h1.489l0.16-1.1a2.73,2.73,0,0,0,2.481,1.281c2.577,0,3.313-2.417,3.313-4.354,0-2.321-1.024-4.322-3.409-4.322a2.482,2.482,0,0,0-2.257,1.3V0.864H35.276Zm1.777,6.5a1.758,1.758,0,0,1,1.889-1.729c1.665,0,1.9,1.457,1.9,2.817,0,1.409-.24,2.881-1.9,2.881a1.736,1.736,0,0,1-1.889-1.7V7.362Zm7.985-3.041v8.323h1.777V4.321H45.037Zm-0.08-3.457V2.544h1.937V0.864H44.957Zm5.181,5.33a5.714,5.714,0,0,1,2.481-.64,1.285,1.285,0,0,1,1.537,1.473V7.57c-3.97.064-5.17,1.152-5.17,2.833a2.319,2.319,0,0,0,2.593,2.417,3.019,3.019,0,0,0,2.673-1.409,3.23,3.23,0,0,0,.336,1.233H56.4a4.486,4.486,0,0,1-.448-2.145V7.122c0-2.161-1.169-2.977-3.265-2.977a5.9,5.9,0,0,0-3.265.832Zm4.018,2.4V9.539a1.88,1.88,0,0,1-2.049,1.937,1.144,1.144,0,0,1-1.345-1.232C50.762,9.555,51.082,8.8,54.156,8.595Zm5.065-6.483L59.013,4.321H57.668V5.682h1.345v5.106A1.909,1.909,0,0,0,61.126,12.8a3.613,3.613,0,0,0,1.5-.192l0.112-1.344H61.494a0.691,0.691,0,0,1-.7-0.8V5.682h1.889V4.321H60.79V2.112H59.221ZM71.449,8.883c0.048-.5.064-0.832,0.064-1.024a3.38,3.38,0,0,0-3.489-3.713c-2.417,0-3.905,1.921-3.905,4.5,0,2.385,1.264,4.178,4.114,4.178a5.123,5.123,0,0,0,3.105-.96L70.793,10.6a4.583,4.583,0,0,1-2.545.816c-1.713,0-2.241-1.264-2.321-2.529h5.522ZM68.007,5.49c1.168,0,1.793.912,1.793,2.225H65.959C66.151,6.306,66.9,5.49,68.007,5.49Zm10.575,0.7a5.713,5.713,0,0,1,2.481-.64A1.285,1.285,0,0,1,82.6,7.026V7.57c-3.97.064-5.17,1.152-5.17,2.833a2.319,2.319,0,0,0,2.593,2.417A3.019,3.019,0,0,0,82.7,11.412a3.23,3.23,0,0,0,.336,1.233h1.809a4.486,4.486,0,0,1-.448-2.145V7.122c0-2.161-1.168-2.977-3.265-2.977a5.9,5.9,0,0,0-3.265.832Zm4.018,2.4V9.539a1.88,1.88,0,0,1-2.049,1.937,1.144,1.144,0,0,1-1.345-1.232C79.206,9.555,79.527,8.8,82.6,8.595Zm7.821-7.251,3.633,5.442-3.713,5.858H92.5l2.689-4.578,2.561,4.578h2.369L96.36,6.786l3.682-5.442H97.9L95.255,5.506,92.742,1.344H90.421Zm11.783,0v11.3h1.889V7.6h4.625V6.034h-4.625V2.9h5.346V1.344H102.2Zm9.428,0v11.3h1.889V1.344h-1.889Zm5.069,11.3h1.825V6.29L118.35,3.617h0.16l0.976,2.177,3.714,6.851h2.353V1.344h-1.825V7.7l0.176,2.673h-0.16l-0.977-2.193-3.649-6.835H116.7v11.3Zm12.054-11.3v11.3h1.889V1.344h-1.889Zm3.95,0V2.9h3.233v9.748h1.921V2.9h3.217V1.344h-8.371Zm9.779,0,4.05,7.315v3.986h1.9V8.659l4.082-7.315h-2.129L147.574,6.9l-2.817-5.554h-2.273Zm14.624,2.977,3.121,8.451-0.4,1.072c-0.288.8-.64,0.928-1.809,0.928l0.128,1.3a1.911,1.911,0,0,0,.865.144c1.424,0,2.112-1.232,2.577-2.545l3.361-9.348h-1.857l-1.713,5.426-0.208.8h-0.08l-0.208-.8-1.84-5.426h-1.937Zm18.754-3.457V5.378a2.428,2.428,0,0,0-2.257-1.232c-2.385,0-3.409,2-3.409,4.322,0,1.937.736,4.354,3.313,4.354a2.76,2.76,0,0,0,2.481-1.344l0.16,1.168h1.489V0.864h-1.777Zm0,8.772a1.736,1.736,0,0,1-1.889,1.7c-1.664,0-1.905-1.473-1.905-2.881,0-1.361.241-2.817,1.905-2.817a1.758,1.758,0,0,1,1.889,1.729V9.635Zm4.556-5.314v8.323H182.2V4.321h-1.777Zm-0.08-3.457V2.544h1.937V0.864h-1.937Zm9.911,3.714a7.1,7.1,0,0,0-2.561-.464c-1.857,0-3.185.816-3.185,2.449,0,1.521,1.3,2.161,2.305,2.465,1.232,0.368,2.016.624,2.016,1.441,0,0.832-.88,1.072-1.7,1.072a5.294,5.294,0,0,1-2.433-.624l-0.256,1.457a6.408,6.408,0,0,0,2.689.544c1.936,0,3.489-.88,3.489-2.657,0-1.617-1.312-2.193-2.417-2.5-1.184-.32-1.937-0.56-1.937-1.345,0-.7.641-0.944,1.377-0.944a5.961,5.961,0,0,1,2.337.544Zm1.673-.256V5.682h1.344v6.963h1.793V5.682h1.777V4.321h-1.825V2.961a0.731,0.731,0,0,1,.864-0.9,3.912,3.912,0,0,1,.8.1l0.161-1.313a3.011,3.011,0,0,0-1.265-.192,2.122,2.122,0,0,0-2.305,2.257V4.321h-1.344Zm6.579,0,0.16,1.489v6.835h1.777V7.554a1.418,1.418,0,0,1,1.584-1.5,4.023,4.023,0,0,1,.913.1l0.208-1.777a2.335,2.335,0,0,0-.848-0.16A2.529,2.529,0,0,0,200.278,5.7l-0.16-1.377H198.5Zm13.478,8.323-0.16-1.5V4.321h-1.777V9.635a1.711,1.711,0,0,1-1.793,1.7,1.568,1.568,0,0,1-1.232-.448,1.474,1.474,0,0,1-.368-1.024V4.321h-1.777V9.6a3.354,3.354,0,0,0,.752,2.433,2.8,2.8,0,0,0,2.065.784,2.617,2.617,0,0,0,2.481-1.5l0.16,1.329h1.649Zm3.232-10.532L215,4.321h-1.344V5.682H215v5.106a1.909,1.909,0,0,0,2.113,2.017,3.616,3.616,0,0,0,1.5-.192l0.112-1.344h-1.249a0.691,0.691,0,0,1-.7-0.8V5.682h1.889V4.321H216.78V2.112h-1.569Zm6.267,4.082a5.717,5.717,0,0,1,2.481-.64A1.286,1.286,0,0,1,225.5,7.026V7.57c-3.97.064-5.17,1.152-5.17,2.833a2.319,2.319,0,0,0,2.593,2.417,3.019,3.019,0,0,0,2.673-1.409,3.231,3.231,0,0,0,.336,1.233h1.809a4.488,4.488,0,0,1-.448-2.145V7.122c0-2.161-1.169-2.977-3.266-2.977a5.9,5.9,0,0,0-3.265.832Zm4.018,2.4V9.539a1.879,1.879,0,0,1-2.049,1.937,1.143,1.143,0,0,1-1.344-1.232C222.1,9.555,222.423,8.8,225.5,8.595Z"/>
</svg>
