<?xml version="1.0" encoding="utf-8"?>
<!-- Generator: Adobe Illustrator 19.2.1, SVG Export Plug-In . SVG Version: 6.00 Build 0)  -->
<svg version="1.1" id="Layer_1" xmlns="http://www.w3.org/2000/svg" xmlns:xlink="http://www.w3.org/1999/xlink" x="0px" y="0px"
	 viewBox="0 0 290 125" style="enable-background:new 0 0 290 125;" xml:space="preserve">
<style type="text/css">
	.st0{fill:#FFFFFF;}
</style>
<path class="st0" d="M237.6,96.8v1.5h-3v7.2h-2.4v-7.2h-3v-1.5H237.6L237.6,96.8z M241.1,96.8l2,5.2l0.3,1.1h0.2l0.3-1.1l2-5.2h2.5
	l-3.8,8.7h-2.2l-3.7-8.7H241.1z M230.6,77.8v-2.1c0.1-4.5,3.8-8,8.2-7.9h0.3c4.5-0.1,8.1,3.5,8.2,7.9v2.1c0.6,0.2,1.2,0.4,1.9,0.7
	c2.2,0.9,4.3,2.1,6.3,3.6v-6.4c0-8.7-7.3-15.8-16.3-15.8h-0.3c-9,0-16.3,7.1-16.3,15.8v6.4c1.9-1.5,4-2.7,6.3-3.6
	C229.4,78.3,230,78,230.6,77.8L230.6,77.8z M255.5,86.4c-2.3-2.3-5.1-4-8.1-5.2c-5.4-2-11.3-2-16.7,0c-3,1.1-5.8,2.9-8.1,5.2
	c-4.2,4.1-6.5,9.6-6.5,15.5c0,12.2,10.3,22.2,23,22.2s23-9.9,23-22.2C262,96,259.6,90.4,255.5,86.4L255.5,86.4z M254.1,108.5
	c0,0.6-0.5,1.1-1.1,1.1h-9.4v0.9l4.5,2c0.5,0.2,0.8,0.8,0.6,1.4c0,0,0,0,0,0c-0.2,0.4-0.6,0.6-1,0.6c-0.2,0-0.3,0-0.5-0.1l-5-2.1
	h-6.5l-5,2.1c-0.1,0.1-0.3,0.1-0.5,0.1c-0.4,0-0.8-0.2-1-0.6c-0.2-0.5,0-1.2,0.5-1.4c0,0,0,0,0,0l4.5-2v-0.9H225
	c-0.6,0-1.1-0.5-1.1-1.1V92.3c0-0.6,0.5-1.1,1.1-1.1h28c0.6,0,1.1,0.5,1.1,1.1L254.1,108.5L254.1,108.5z M251.5,109h-25.1
	c-0.9,0-1.7-0.7-1.7-1.6V93.4c0-0.9,0.8-1.7,1.7-1.6h25.1c0.9,0,1.7,0.7,1.7,1.6v13.9C253.2,108.3,252.5,109,251.5,109L251.5,109z
	 M226.5,93.2c-0.1,0-0.3,0.1-0.3,0.2v13.9c0,0.1,0.1,0.2,0.3,0.2h25.1c0.1,0,0.3-0.1,0.3-0.2V93.4c0-0.1-0.1-0.2-0.3-0.2H226.5z"/>
<g>
	<path class="st0" d="M211.7,74.4c-4.7,0-8.4,3.1-11.9,6.1l1.3-6.1h-14.1l0,0l-6.7,31.6c-1.5,4.9-5,8.6-8.8,8.6c-2.8,0-4-0.9-4-3.6
		c0-1.1,0.1-2.1,0.4-3.1l6.3-29.5h5.9l0.8-3.9h-5.9l3.3-15.5l-14.5,2l-2.9,13.6h-3.2l-0.8,3.9h3.2l-5.9,27.6h0
		c-2.2,5.1-3.9,8.6-8.2,8.6c-2.9,0-3.9-1.7-3.9-4.1c0-5.5,4.7-17.4,4.7-25.3c0-7.9-4.6-11.1-10.9-11.1c-3,0-7.4,0.8-11.5,5.5
		l1.1-5.1h-14.1l-2.8,13.1c-2.7,1.1-5.5,1.9-7.8,1.9c-0.4,0-0.7,0-1.1-0.2c0-10.3-4.1-15.7-12.6-15.7c-19.7,0-26.5,22.3-26.9,33.9
		c-4.4,4.8-9,8.4-16,8.4c-4.7,0-7.1-1.6-7.1-8.3c0-10.9,6.4-28.9,12.6-28.9c1.9,0,2.7,1.6,2.7,4c-0.1,2-0.5,3.9-1.2,5.8
		c1,0.7,2.2,1.1,3.4,1.2c2.8,0,5.2-2.4,5.2-7.2c0-4.5-2.2-9-10.9-9c-19.9,0-26.4,23.6-26.4,35c0,11.1,6.1,15.6,15.3,15.6
		c10,0,17.2-5.4,22.6-11.9c1.4,8.4,7.4,11.7,15.4,11.7c12.1,0,21.9-11.4,23.5-29.6c2.9-0.5,5.7-1.2,8.2-2.3l-6.7,31.4h14.1l6.7-31.5
		c1.5-4.9,4.1-9,7.7-9c2.4,0,3.5,1.8,3.5,5h0c0,6.3-4.4,18.4-4.4,25.1c0,5.6,3,11.1,11.6,11.1c3.9,0,9-1.1,13.7-8.3
		c1.1,5.8,5.2,8.3,10.2,8.3c3.5,0,9.1-1,14-6.4l-1.2,5.8h14.1l7.9-37.3c2.5-2.3,4.2-3.7,7.2-3.7c2.9,0,0.2,6.5,5.7,6.5
		c4.8,0,7.1-3.7,7.1-7.2C218.5,78,216.1,74.4,211.7,74.4z M91,94.6c-1.6,11.6-6.6,20.4-11.4,20.4c-3.7,0-5-1.5-5-8
		c0-9.6,6.1-27.6,13.1-27.6c2.6,0,3.5,1.6,3.7,5.7c-1.8,0.8-3,2.6-3,5.3C88.3,92.5,88.9,94.2,91,94.6z"/>
	<path class="st0" d="M281.9,114.4c-3,0-4-1.7-4-3.9c0-1,0.2-1.9,0.4-2.8l11.3-53l-14.5,2l-10.5,49.2c-0.5,2.1-0.7,4.2-0.8,6.4
		c0,8.4,4.6,12,10.5,12c5.3,0,10.3-3.3,10.8-10.3C284.1,114.3,283,114.5,281.9,114.4z"/>
</g>
<path id="el" class="st0" d="M89.5,54.1c0.1-0.7,0.1-1,0.1-1.5c0-4-2.1-6.9-6.1-6.9c-4.3,0-6.9,3.5-6.9,8.2c0,4.4,2.3,7.7,7.3,7.7
	c1.9,0,3.8-0.6,5.4-1.8l-1-1.9c-1.2,1-2.8,1.6-4.4,1.6c-3.7,0-4.7-2.8-4.8-5.4L89.5,54.1L89.5,54.1z M83.4,47.6c2.4,0,3.8,2,3.8,4.6
	h-8C79.6,49.3,81.2,47.6,83.4,47.6L83.4,47.6z M93.9,39.2v22.1h2.4V39.2L93.9,39.2L93.9,39.2z"/>
<g>
	<polygon class="st0" points="68,-0.9 59.3,-0.9 51.7,14.8 57.9,14.8 	"/>
	<path class="st0" d="M65.4,50.9c0-0.9,0.1-1.8,0.3-2.7l6-28.3h-12L54,46.7c-1.2,4.2-3.4,7.3-6.7,7.3c-1.9,0-2.5-1.8-2.5-3.7
		c0-0.7,0.1-1.4,0.2-2.1l6-28.3h-12l0,0l-5.7,26.7c0,0,0,0,0,0c-1.3,4.2-4.2,7.3-7.5,7.3c-2.3,0-3.4-0.8-3.4-3.1
		c0-0.9,0.1-1.8,0.3-2.7l5.3-25h5l0.7-3.3h-5l2.8-13.2L19.4,8.4l-2.5,11.5h-2.7l-0.7,3.3h2.7l-5,23.4c-0.4,1.8-0.6,3.6-0.7,5.4
		c0,7,3.9,10,8.9,10c3.4,0,9-1.1,13.5-7.5c0.8,5.2,4.4,7.5,8.7,7.5c3.5,0,8.2-1.1,12.4-7.9c0.6,4.9,3.6,7.9,8.2,7.9
		c4.5,0,8.8-2.6,9.2-8.6c-0.9,0.4-1.8,0.5-2.7,0.5C66.4,54,65.4,53.2,65.4,50.9z"/>
</g>
<path id="y" class="st0" d="M0,1.9l5.9,15.7L5.1,20c-0.6,1.7-1.3,2-3.3,2l0.2,1.9c0.5,0.2,1,0.2,1.4,0.2c2.1,0,3.2-2.2,4.1-4.4
	l6.5-17.6h-2.7L7.6,13.1l-0.4,1.4H7.1l-0.3-1.4l-4-11.3H0L0,1.9z"/>
</svg>
