<?xml version="1.0" encoding="utf-8"?>
<!-- Generator: Adobe Illustrator 19.2.1, SVG Export Plug-In . SVG Version: 6.00 Build 0)  -->
<svg version="1.1" xmlns="http://www.w3.org/2000/svg" xmlns:xlink="http://www.w3.org/1999/xlink" x="0px" y="0px"
	 viewBox="0 0 301.3 413.3" style="enable-background:new 0 0 301.3 413.3;" xml:space="preserve">
<style type="text/css">
	.st0{fill:none;stroke:#B42F25;stroke-miterlimit:10;}
	.st1{fill:#1A667E;}
	.st2{fill:#F78D1E;}
	.st3{fill:#E42A26;}
	.st4{fill:#B42F25;}
	.st5{fill:#D1D3D4;}
	.st6{fill:#E4E6E8;}
	.st7{fill:#2A485A;}
	.st8{fill:#F5ECB7;}
	.st9{fill:#F78E1E;}
	.st10{fill:#0B667A;}
	.st11{fill:#EEF4D5;}
	.st12{fill:#FEFAD5;}
	.st13{fill:#B23E25;}
	.st14{fill:#EDEDED;}
	.st15{fill:none;stroke:#ECEDEE;stroke-width:2;stroke-linecap:round;stroke-linejoin:round;stroke-miterlimit:10;}
</style>
<g id="bg">
</g>
<g id="clouds">
</g>
<g id="cont">
</g>
<g id="rope_sh">
</g>
<g id="rope">
</g>
<g id="clouds_top">
	<path class="st0" d="M28.5,113.1c0,0-30.2,59.3,1.3,79.3C56.9,209.7,75,152.3,75,152.3s12.2-39.3,38.7-28.5
		c26.4,10.8,5.9,50.4-0.1,66.7"/>
	<g>
		<rect x="84.3" y="-11.1" transform="matrix(0.6117 -0.7911 0.7911 0.6117 0.3596 83.035)" class="st1" width="1" height="104.5"/>
	</g>
	<g>
		<rect x="112.2" y="1.6" transform="matrix(0.6206 -0.7841 0.7841 0.6206 41.7724 90.554)" class="st1" width="4.6" height="1"/>
	</g>
	<polygon class="st2" points="50.4,14.5 49.3,14.7 26.5,116.3 26.5,116.3 84.6,40.8 	"/>
	<polygon class="st3" points="110.8,6.6 50.4,14.5 84.6,40.8 	"/>
	<polygon class="st3" points="26.5,116.3 118.8,68.1 118.7,67 84.6,40.8 	"/>
	<polygon class="st4" points="110.8,6.6 84.6,40.8 118.7,67 110.8,6.6 	"/>
	<ellipse transform="matrix(0.2516 -0.9678 0.9678 0.2516 23.604 171.4028)" class="st5" cx="122.6" cy="70.4" rx="0.7" ry="0.7"/>
	<ellipse transform="matrix(0.2516 -0.9678 0.9678 0.2516 23.5162 53.9398)" class="st5" cx="46.6" cy="11.8" rx="0.7" ry="0.7"/>
	<polygon class="st5" points="121.7,70.4 121.4,70.4 118.7,70.1 76,80.1 47.8,13.6 47.2,13 46.6,12 46.2,12.3 75.2,80.8 75,90.9 
		76,90.4 76.2,81.1 	"/>
	<polygon class="st6" points="75.1,70.8 46.2,12.3 46.4,11.5 46.9,11.4 75.9,70.2 122.8,69.8 122.9,70.3 122.9,70.3 122,70.8 
		76.2,71.2 	"/>
	<g>
		<g>
			<polygon class="st7" points="22.8,125.1 7.2,123.9 7.2,130.5 22.8,125.9 			"/>
		</g>
		<g>
			<polygon class="st4" points="22.8,125.9 33.4,137.5 37.9,132.8 23.4,125.3 			"/>
		</g>
		
			<ellipse transform="matrix(0.2516 -0.9678 0.9678 0.2516 -105.0845 116.605)" class="st8" cx="22.9" cy="126.3" rx="1.9" ry="1.9"/>
	</g>
	<g>
		<g>
			<polygon class="st9" points="16.3,155.9 1,152.5 0,158.9 16.1,156.8 			"/>
		</g>
		<g>
			<polygon class="st7" points="15.6,156.8 31.2,158.7 31.5,152.2 15.7,155.9 			"/>
		</g>
		
			<ellipse transform="matrix(0.2516 -0.9678 0.9678 0.2516 -139.4856 132.0614)" class="st8" cx="15.7" cy="156.2" rx="1.9" ry="1.9"/>
	</g>
	<g>
		<g>
			<polygon class="st10" points="16.9,176.2 9.9,190.2 15.9,192.7 17.7,176.5 			"/>
		</g>
		<g>
			<polygon class="st11" points="17.3,177 32.1,171.8 29.4,165.8 16.9,176.2 			"/>
		</g>
		
			<ellipse transform="matrix(0.2516 -0.9678 0.9678 0.2516 -157.5805 148.8217)" class="st8" cx="17.4" cy="176.3" rx="1.9" ry="1.9"/>
	</g>
	<g>
		<g>
			<polygon class="st12" points="30.6,193.6 26.9,208.9 33.3,209.9 31.4,193.8 			"/>
		</g>
		<g>
			<polygon class="st13" points="31.1,194.4 44.3,185.9 40.4,180.7 30.6,193.7 			"/>
		</g>
		<ellipse transform="matrix(0.8415 -0.5402 0.5402 0.8415 -99.636 47.4322)" class="st8" cx="31" cy="193.5" rx="1.9" ry="1.9"/>
	</g>
	<g>
		<g>
			<polygon class="st12" points="55.3,186.4 62.7,200.2 68.2,196.7 56,185.9 			"/>
		</g>
		<g>
			<polygon class="st4" points="56.3,186.6 59.3,171.2 52.9,170.4 55.4,186.5 			"/>
		</g>
		<ellipse transform="matrix(0.6969 -0.7172 0.7172 0.6969 -116.6184 96.6317)" class="st8" cx="56" cy="186.3" rx="1.9" ry="1.9"/>
	</g>
	<g>
		<g>
			<polygon class="st13" points="67.3,166.4 79.1,176.9 83,171.7 67.8,165.8 			"/>
		</g>
		<g>
			<polygon class="st7" points="68.6,166.6 70.8,151 64.3,150.6 67.8,166.5 			"/>
		</g>
		
			<ellipse transform="matrix(0.8592 -0.5116 0.5116 0.8592 -75.4355 58.4719)" class="st8" cx="68.5" cy="166.3" rx="1.9" ry="1.9"/>
	</g>
	<g>
		<g>
			<polygon class="st12" points="82.8,135.6 88.4,150.2 94.3,147.4 83.5,135.2 			"/>
		</g>
		<g>
			<polygon class="st11" points="83.6,136.4 92.7,123.6 87.1,120.3 82.9,136 			"/>
		</g>
		
			<ellipse transform="matrix(0.2516 -0.9678 0.9678 0.2516 -68.8616 182.6703)" class="st8" cx="83.7" cy="135.9" rx="1.9" ry="1.9"/>
	</g>
	<g>
		<g>
			<polygon class="st14" points="110.8,124.3 125.5,119 122.9,113 110.4,123.5 			"/>
		</g>
		<g>
			<polygon class="st9" points="110.9,123.3 98.1,132.3 102.2,137.4 111.5,124 			"/>
		</g>
		
			<ellipse transform="matrix(0.2717 -0.9624 0.9624 0.2717 -38.0715 196.9665)" class="st8" cx="111.1" cy="123.6" rx="1.9" ry="1.9"/>
	</g>
	<g>
		<g>
			<polygon class="st12" points="126.7,144.3 142.4,145.7 142.5,139.2 126.8,143.4 			"/>
		</g>
		<g>
			<polygon class="st10" points="127,143.4 111.3,143.4 111.8,149.9 127,144.2 			"/>
		</g>
		
			<ellipse transform="matrix(0.7029 -0.7112 0.7112 0.7029 -64.6456 132.9041)" class="st8" cx="126.8" cy="143.8" rx="1.9" ry="1.9"/>
	</g>
	<g>
		<g>
			<polygon class="st9" points="122.1,170.9 137.8,170.1 136.9,163.6 122,170 			"/>
		</g>
		<g>
			<polygon class="st4" points="123.1,169.9 107.6,172.2 109.1,178.5 123.3,170.7 			"/>
		</g>
		
			<ellipse transform="matrix(0.2972 -0.9548 0.9548 0.2972 -76.0689 237.4515)" class="st8" cx="123.3" cy="170.4" rx="1.9" ry="1.9"/>
	</g>
	<g>
		<g>
			<polygon class="st12" points="115.7,189.5 100.3,192.8 102.2,199 115.9,190.3 			"/>
		</g>
		<g>
			<polygon class="st14" points="115.1,190.5 126.2,201.6 130.4,196.6 115.6,189.9 			"/>
		</g>
		
			<ellipse transform="matrix(0.9962 -8.748392e-02 8.748392e-02 0.9962 -16.2033 10.8242)" class="st8" cx="115.4" cy="190.3" rx="1.9" ry="1.9"/>
	</g>
	<path class="st6" d="M138,335.6"/>
	<path class="st15" d="M75.7,70.4C134,195.4,188,289.5,300.3,412.3"/>
</g>
</svg>
