<?xml version="1.0" encoding="utf-8"?>
<!-- Generator: Adobe Illustrator 19.2.1, SVG Export Plug-In . SVG Version: 6.00 Build 0)  -->
<svg version="1.1" id="Layer_1" xmlns="http://www.w3.org/2000/svg" xmlns:xlink="http://www.w3.org/1999/xlink" x="0px" y="0px"
	 viewBox="0 0 222.9 54.5" style="enable-background:new 0 0 222.9 54.5;" xml:space="preserve">
<style type="text/css">
	.st0{fill:#FFFFFF;}
</style>
<g>
	<path class="st0" d="M34.7,19.6c0-0.1,0-0.3,0-0.4c0-3.1-2-6.2-5.6-6.2c-3.9,0-7,2.6-9.8,5.1l1.1-5.1H8.6L0,54h11.7l6.5-31.2
		c2-1.9,3.5-3.1,5.9-3.1s0.2,5.4,4.7,5.4C32,25.3,34.6,22.8,34.7,19.6z"/>
	<path class="st0" d="M147.2,12.3L147.2,12.3L147.2,12.3z"/>
	<path class="st0" d="M204.4,12.3L204.4,12.3L204.4,12.3z"/>
	<path class="st0" d="M220.5,17.7c-0.9,1.6-2.9,5.1-5.8,5.7c-0.5-7.3-3.9-11.1-10.3-11.1c-16.8,0-22,19.7-22,29.1c0,0.2,0,0.4,0,0.6
		c-1.5,2.7-3.8,4.5-6.2,4.5c-2.3,0-3.3-0.7-3.3-3c0-0.9,0.1-1.8,0.3-2.6l5.2-24.6h4.9L184,13h-5l2.8-13l-12,1.6l-2.4,11.3h-2.7
		l-0.7,3.3h2.7l-1.6,7.7c-2.3,1-4.6,1.6-6.5,1.6c-0.3,0-0.6,0-0.9-0.2c0-8.6-3.4-13.1-10.4-13.1c-16.8,0-22.3,19.7-22.3,29.1
		c0,0.2,0,0.3,0,0.5c-1.4,2.9-2.9,4.7-5.7,4.7c-2.4,0-3.3-1.4-3.3-3.4c0-4.6,3.9-14.5,3.9-21.2c0-6.6-3.8-9.3-9-9.3
		c-3,0-7.4,0.9-11.3,7c-0.9-5.1-4.1-7.1-8.4-7.1c-3.9-0.1-7.5,1.7-9.9,4.7l0.9-4.3H70.4l-5.5,26.3c-4.1,4.7-8,8.3-14.4,8.3
		c-3.9,0-5.9-1.3-5.9-6.9l0,0c0-1,0.1-2.1,0.2-3.3c9.8-0.6,18.7-7.9,18.7-17.3c0-4.1-1.7-7.9-8.9-7.9c-16.7,0-22,19.8-22,29.2
		c0,9.3,5,13,12.7,13c8.1,0,14-4.3,18.4-9.6l-1.9,9.1h11.7L79,27.5c1.2-4.1,3.4-7.6,6.6-7.6c1.8,0,2.4,1.8,2.4,3.6
		c0,0.7-0.1,1.4-0.2,2.1l-5.9,28.3h11.7l5.5-26.3c1.2-4.1,3.4-7.5,6.3-7.5c2,0,2.9,1.5,2.9,4.2l0,0c0,5.2-3.7,15.3-3.7,20.9
		c0,4.7,2.5,9.3,9.6,9.3c3.3,0,7.6-1,11.5-7.2c1.9,5,6.4,7.1,12.1,7.1c10,0,18.1-9.5,19.4-24.7c2.4-0.4,4.7-1.1,6.8-1.9l-2.5,11.6
		c-0.4,1.8-0.6,3.5-0.7,5.3c0,6.9,3.8,9.8,8.7,9.8c3.4,0,8.9-1.1,13.4-7.6c1.8,5.3,6.4,7.4,12.2,7.4c10.2,0,18.4-9.9,19.4-25.7
		c4.3-2.4,6.8-7.5,8.4-11h-2.4V17.7z M55.2,16.7c1.5,0,2,1.3,2,3.4c0,6.8-5.5,13.1-11.8,13.5C47.1,25.5,51.1,16.7,55.2,16.7z
		 M148.4,26.5c0,1.6,0.5,3,2.2,3.4c-1.3,9.7-5.5,17.1-9.4,17.1c-3.1,0-4.1-1.2-4.1-6.6c0-8,5-23,10.8-23c2.1,0,2.9,1.3,3.1,4.8
		C149.3,22.9,148.3,24.7,148.4,26.5z M207.8,30c-1.2,9.7-5.2,17.1-9.2,17.1c-3.1,0-4.1-1.2-4.1-6.6c0-8,4.8-23,10.6-23
		c2,0,2.9,1.2,3.1,4.7c-1.4,0.7-2.3,2-2.3,4.3C205.8,28.3,206.5,29.5,207.8,30z"/>
</g>
</svg>
