<svg xmlns="http://www.w3.org/2000/svg" xmlns:xlink="http://www.w3.org/1999/xlink" viewBox="0 0 51.29 49.88"><defs><style>.cls-1{fill:url(#linear-gradient);}.cls-2{fill:url(#linear-gradient-2);}.cls-3{fill:url(#linear-gradient-3);}.cls-4{fill:url(#linear-gradient-4);}</style><linearGradient id="linear-gradient" x1="228.96" y1="-152.11" x2="254.33" y2="-152.11" gradientTransform="translate(246.91 -154.79) rotate(177.25)" gradientUnits="userSpaceOnUse"><stop offset="0.04" stop-color="#710000"/><stop offset="0.08" stop-color="#780002"/><stop offset="0.13" stop-color="#8c0007"/><stop offset="0.18" stop-color="#ac0010"/><stop offset="0.23" stop-color="#c80017"/><stop offset="0.31" stop-color="#cf0017"/><stop offset="0.42" stop-color="#e30017"/><stop offset="0.49" stop-color="#f10017"/><stop offset="0.72" stop-color="#ff001d"/><stop offset="0.74" stop-color="#f8001c"/><stop offset="0.77" stop-color="#e40018"/><stop offset="0.8" stop-color="#c40011"/><stop offset="0.84" stop-color="#970008"/><stop offset="0.87" stop-color="#710000"/></linearGradient><linearGradient id="linear-gradient-2" x1="97.6" y1="-244.74" x2="100.44" y2="-216.35" gradientTransform="translate(255.83 140.89) rotate(-87.98)" xlink:href="#linear-gradient"/><linearGradient id="linear-gradient-3" x1="228.24" y1="-168.94" x2="245.58" y2="-168.94" xlink:href="#linear-gradient"/><linearGradient id="linear-gradient-4" x1="210.02" y1="-197.33" x2="211.39" y2="-163.31" xlink:href="#linear-gradient"/></defs><title>confetti_3</title><g id="Layer_2" data-name="Layer 2"><g id="OBJECTS"><path class="cls-1" d="M25.62,12a6,6,0,0,0-3.36-4.53C19.23,6.13,0,0,0,0L.07,7.23s.5-.07,5.88,2,10.93,3.8,12.41,4.37,6.12,1.12,6.7,3.82A11.24,11.24,0,0,0,25.62,12Z"/><path class="cls-2" d="M43.17,33.1S40.33,28,31.74,29c0,0-11.77,2-15.8,2.7l-3.6,3.51,1.82,3.85s.75.45,3.33-.16,18.76-3.75,18.76-3.75,6.42-1.52,8.08.1Z"/><path class="cls-3" d="M14.16,39.1l-3.95-6.54a1.08,1.08,0,0,1,.16-1.42,56.8,56.8,0,0,1,5.11-5.53c3.6-3.54,11.17-10.16,10-14.27l1.2,7.32a10.43,10.43,0,0,1-.59,5.21,45.26,45.26,0,0,1-5.75,7.79C17,35.24,14.05,37.65,14.16,39.1Z"/><path class="cls-4" d="M41.16,31s2.91,2.48,3.09,9.89-3.26,9-3.26,9l9.63-.46S52.92,43.3,49,38.3C49,38.3,42.48,32.18,41.16,31Z"/></g></g></svg>