<svg xmlns="http://www.w3.org/2000/svg" viewBox="0 0 108 36.43"><defs><style>.cls-1{fill: #000000;}</style></defs><path class="cls-1" d="M12.07,18.4l6.78-9.09H16a3.15,3.15,0,0,0-2.76,1.34L9.69,15.46,6.22,10.65A3.15,3.15,0,0,0,3.46,9.31H.63L7.34,18.4,0,28.31H2.68A3.13,3.13,0,0,0,5.44,27l4.25-5.62,9.94,13.74a3.09,3.09,0,0,0,2.76,1.34H25.3Zm54.28,9.91h3.84v-19H66.35Zm-30.44,0h3.84v-19H35.91ZM94.1,35,108,9.31h-2.09a2.84,2.84,0,0,0-2.75,1.34L97.68,20.83,93,10.65a2.75,2.75,0,0,0-2.76-1.34h-2l7.3,15.5L89.11,36.43H91.2A3,3,0,0,0,94.1,35ZM44.33,9.31v19h3.84v-13a6.06,6.06,0,0,1,5-2.72C56,12.55,58,14.34,58,17.92v8.57a1.72,1.72,0,0,0,1.79,1.82h2V17.25c0-4.92-3.12-8.35-7.67-8.35a8.55,8.55,0,0,0-6,2.28V9.31Zm33,12.26c0,4.14,2.54,7.08,7.08,7.08a9.82,9.82,0,0,0,2.79-.37l-.78-3.36a7.93,7.93,0,0,1-1.75.19,3.26,3.26,0,0,1-3.5-3.61V12.74H86.5L84.94,9.31h-3.8V1.68L77.3,3.35v6H73.24v3.43H77.3ZM24.1,12.74V28.31h3.84V12.74h4.92V9.31H27.94V7.9c0-3.24,1.94-4.32,3.84-4.32a4.64,4.64,0,0,1,1.3.18L33.86.37A6.81,6.81,0,0,0,31.48,0C26.71,0,24.1,3.54,24.1,7.82V9.31h-2l-2.42,3.43Z"/></svg>