<?xml version="1.0" encoding="utf-8"?>
<!-- Generator: Adobe Illustrator 19.2.1, SVG Export Plug-In . SVG Version: 6.00 Build 0)  -->
<svg version="1.1" id="Layer_1" xmlns="http://www.w3.org/2000/svg" xmlns:xlink="http://www.w3.org/1999/xlink" x="0px" y="0px"
	 viewBox="0 0 135 25" style="enable-background:new 0 0 135 25;" xml:space="preserve">
<style type="text/css">
	.st0{fill:#3D3D3D;}
</style>
<path id="Descubre_cómo_agregar_el_servicio_X1_DVR_" class="st0" d="M0,0.5v9.3h2.8c2.5,0,4.5-1.2,4.5-4.7c0-3.3-2-4.6-4.5-4.6H0z
	 M1.1,1.5h1.8c2.4,0,3.3,1.9,3.3,3.6c0,2-0.9,3.8-3.3,3.8H1.1V1.5z M14.4,6.6c0-0.3,0-0.5,0-0.7c0-1.7-0.9-3-2.6-3
	c-1.9,0-3,1.5-3,3.6c0,1.9,1,3.4,3.2,3.4c0.8,0,1.7-0.3,2.3-0.8l-0.4-0.8C13.3,8.7,12.7,9,12,9c-1.6,0-2-1.2-2.1-2.4L14.4,6.6
	L14.4,6.6z M11.8,3.8c1,0,1.7,0.9,1.6,1.8c0,0.1,0,0.1,0,0.2H9.9C10.1,4.6,10.8,3.8,11.8,3.8z M20.1,3.3c-0.6-0.2-1.2-0.4-1.9-0.4
	c-1.4,0-2.3,0.7-2.3,1.9c0.1,0.9,0.8,1.7,1.7,1.9c1,0.3,1.7,0.6,1.7,1.4s-0.8,1.1-1.6,1.1c-0.6,0-1.2-0.2-1.7-0.4l-0.2,0.9
	c0.6,0.3,1.3,0.4,2,0.4c1.4,0,2.6-0.6,2.6-2.1c0-1-0.8-1.8-1.8-2c-1-0.3-1.7-0.5-1.7-1.3c0.1-0.6,0.6-1,1.2-1c0,0,0.1,0,0.1,0
	c0.6,0,1.2,0.2,1.7,0.4L20.1,3.3z M24.7,9c-1.6,0-2-1.3-2-2.5c0-1.5,0.6-2.6,2-2.6c0.6,0,1.2,0.2,1.6,0.5l0.3-0.9
	c-0.6-0.4-1.2-0.5-1.9-0.5c-2,0-3,1.5-3,3.5c0,2,1,3.4,3,3.4c0.7,0,1.4-0.2,2-0.5l-0.3-0.9C25.8,8.8,25.2,9,24.7,9L24.7,9z
	 M33.4,9.8l-0.1-1.2V3.1h-1v4.3c0,0.9-0.6,1.6-1.5,1.7c0,0-0.1,0-0.1,0c-0.4,0-0.8-0.1-1.1-0.4c-0.2-0.3-0.4-0.6-0.3-1V3.1h-1v4.4
	c-0.1,0.7,0.2,1.3,0.6,1.8c0.4,0.4,1,0.7,1.6,0.6c0.9,0.1,1.7-0.5,2-1.3l0.1,1.2L33.4,9.8L33.4,9.8z M35.5,0.1v9.7h0.8l0.1-1
	c0.4,0.7,1.2,1.1,2,1.1c2.1,0,2.6-2,2.6-3.5c0-1.9-0.8-3.5-2.7-3.5c-0.8,0-1.5,0.4-1.9,1.1V0.1H35.5z M36.5,5.5
	c0-0.9,0.7-1.6,1.6-1.6c0,0,0.1,0,0.1,0c1.5,0,1.7,1.3,1.7,2.6S39.7,9,38.2,9c-0.9,0.1-1.7-0.6-1.7-1.5c0,0,0-0.1,0-0.1L36.5,5.5
	L36.5,5.5z M42.7,3.1l0.1,1.2v5.6h1V5.6c-0.1-0.7,0.5-1.4,1.2-1.4c0.1,0,0.2,0,0.3,0c0.2,0,0.5,0,0.7,0.1l0.1-1.1
	C45.9,3,45.7,3,45.4,3c-0.7,0.1-1.3,0.5-1.6,1.2l-0.1-1.2H42.7z M52.5,6.6c0-0.3,0-0.5,0-0.7c0-1.7-0.9-3-2.6-3c-1.9,0-3,1.5-3,3.6
	c0,1.9,1,3.4,3.2,3.4c0.8,0,1.7-0.3,2.3-0.8L52,8.3C51.4,8.7,50.8,9,50.1,9c-1.6,0-2-1.2-2.1-2.4L52.5,6.6L52.5,6.6z M49.9,3.8
	c1,0,1.7,0.9,1.6,1.8c0,0.1,0,0.1,0,0.2H48C48.2,4.6,48.9,3.8,49.9,3.8z M60,9c-1.6,0-2-1.3-2-2.5c0-1.5,0.6-2.6,2-2.6
	c0.6,0,1.2,0.2,1.6,0.5l0.3-0.9c-0.6-0.4-1.2-0.5-1.9-0.5c-2,0-3,1.5-3,3.5c0,2,1,3.4,3,3.4c0.7,0,1.4-0.2,2-0.5l-0.3-0.9
	C61.1,8.8,60.6,9,60,9z M65.9,3.9c1.4,0,1.9,1.3,1.9,2.6c0,1.4-0.5,2.6-1.9,2.6C64.5,9,64,7.7,64,6.4C64,5,64.5,3.9,65.9,3.9z
	 M65.9,3c-1.9,0-3,1.5-3,3.5c0,2.1,1.1,3.5,3,3.5c1.9,0,2.9-1.6,2.9-3.5C68.8,4.4,67.7,3,65.9,3z M65.4,1.9h0.5L68,0.4V0h-1.1
	l-1.5,1.6V1.9z M70.5,3.1l0.1,1.2v5.6h1V5.5c0-0.9,0.6-1.6,1.5-1.7c0,0,0.1,0,0.1,0c0.7,0,1.3,0.5,1.3,1.1c0,0.1,0,0.2,0,0.3v4.6
	h1.1V5.5c0-0.9,0.6-1.6,1.5-1.7c0,0,0.1,0,0.1,0c0.7,0,1.3,0.5,1.3,1.1c0,0.1,0,0.2,0,0.3v4.6h1.1V5.4c0.1-0.7-0.1-1.4-0.6-1.9
	c-0.4-0.4-1-0.6-1.6-0.6c-0.8,0-1.6,0.4-1.9,1.2c-0.3-0.8-1.1-1.3-2-1.2c-0.9,0-1.6,0.5-1.9,1.3l-0.1-1.2H70.5z M84.2,3.9
	c1.4,0,1.9,1.3,1.9,2.6C86,7.8,85.5,9,84.2,9c-1.4,0-1.9-1.3-1.9-2.6C82.3,5,82.8,3.9,84.2,3.9L84.2,3.9z M84.2,2.9
	c-1.9,0-3,1.5-3,3.5c0,2.1,1.1,3.5,3,3.5c1.9,0,2.9-1.6,2.9-3.5C87.1,4.4,86,3,84.2,2.9L84.2,2.9z M92.1,4.4
	c0.6-0.3,1.3-0.5,2.1-0.5c0.6-0.1,1.3,0.3,1.4,0.9c0,0.1,0,0.3,0,0.4v0.6c-3.2,0-4.2,0.9-4.2,2.2c0,1,0.8,1.9,1.8,1.9
	c0.1,0,0.2,0,0.3,0c0.9,0,1.7-0.4,2.2-1.1c0,0.4,0.1,0.7,0.3,1h1c-0.3-0.5-0.4-1.2-0.4-1.8V5.4c0-1.8-0.9-2.4-2.4-2.4
	c-0.9,0-1.7,0.2-2.5,0.6L92.1,4.4z M95.6,6.5v0.8c0,1-0.7,1.8-1.6,1.8c-0.1,0-0.2,0-0.2,0c-0.6,0.1-1.1-0.3-1.2-0.8
	c0-0.1,0-0.2,0-0.3C92.4,7.3,92.7,6.6,95.6,6.5L95.6,6.5z M103,3.1l-0.1,1c-0.4-0.7-1.1-1.2-1.9-1.1c-2,0-2.8,1.6-2.8,3.4
	c0,1.5,0.6,3.5,2.6,3.5c0.8,0,1.6-0.4,2-1.1v1c0,1.7-0.8,2-1.7,2c-0.7,0-1.5-0.2-2.1-0.6l-0.3,0.9c0.7,0.4,1.5,0.6,2.3,0.6
	c1.4,0.1,2.6-0.9,2.7-2.2c0-0.2,0-0.4,0-0.6V3.1L103,3.1L103,3.1z M102.8,7.4c0,0.9-0.7,1.6-1.6,1.6c0,0-0.1,0-0.1,0
	c-1.5,0-1.8-1.3-1.8-2.6s0.3-2.6,1.7-2.6c0.9-0.1,1.7,0.6,1.7,1.5c0,0,0,0.1,0,0.1V7.4L102.8,7.4z M105.9,3.1l0.1,1.2v5.6h1V5.6
	c-0.1-0.7,0.5-1.4,1.2-1.4c0.1,0,0.2,0,0.3,0c0.2,0,0.5,0,0.7,0.1l0.1-1.1C109.1,3,108.9,3,108.6,3c-0.7,0.1-1.3,0.5-1.6,1.2
	l-0.1-1.2L105.9,3.1L105.9,3.1z M115.7,6.6c0-0.3,0-0.5,0-0.7c0-1.7-0.9-3-2.6-3c-1.9,0-3,1.5-3,3.6c0,1.9,1,3.4,3.2,3.4
	c0.8,0,1.7-0.3,2.3-0.8l-0.4-0.8C114.7,8.7,114,9,113.3,9c-1.6,0-2-1.2-2.1-2.4L115.7,6.6L115.7,6.6z M113.1,3.8
	c1,0,1.7,0.9,1.6,1.8c0,0.1,0,0.1,0,0.2h-3.5C111.4,4.6,112.1,3.8,113.1,3.8L113.1,3.8z M121.9,3.1l-0.1,1c-0.4-0.7-1.1-1.2-1.9-1.1
	c-2,0-2.8,1.6-2.8,3.4c0,1.6,0.6,3.5,2.6,3.5c0.8,0,1.6-0.4,2-1.1v1c0,1.7-0.8,2-1.7,2c-0.7,0-1.5-0.2-2.1-0.6l-0.3,0.9
	c0.7,0.4,1.5,0.6,2.3,0.6c1.4,0.1,2.6-0.9,2.7-2.2c0-0.2,0-0.4,0-0.6V3.1L121.9,3.1L121.9,3.1z M121.7,7.4c0,0.9-0.7,1.6-1.6,1.6
	c0,0-0.1,0-0.1,0c-1.5,0-1.8-1.3-1.8-2.6s0.3-2.6,1.7-2.6c0.9-0.1,1.7,0.6,1.7,1.5c0,0,0,0.1,0,0.1V7.4L121.7,7.4z M125.2,4.4
	c0.6-0.3,1.3-0.5,2.1-0.5c0.6-0.1,1.3,0.3,1.4,0.9c0,0.1,0,0.3,0,0.4v0.6c-3.2,0-4.2,0.9-4.2,2.2c0,1,0.8,1.9,1.8,1.9
	c0.1,0,0.2,0,0.3,0c0.9,0,1.7-0.4,2.2-1.1c0,0.4,0.1,0.7,0.3,1h1c-0.3-0.5-0.4-1.2-0.4-1.8V5.4c0-1.8-0.9-2.4-2.4-2.4
	c-0.9,0-1.7,0.2-2.5,0.6L125.2,4.4z M128.6,6.5v0.8c0,1-0.7,1.8-1.6,1.8c-0.1,0-0.2,0-0.2,0c-0.6,0.1-1.1-0.3-1.2-0.8
	c0-0.1,0-0.2,0-0.3C125.5,7.3,125.7,6.6,128.6,6.5z M131.6,3.1l0.1,1.2v5.6h1V5.6c-0.1-0.7,0.5-1.4,1.2-1.4c0.1,0,0.2,0,0.3,0
	c0.2,0,0.5,0,0.7,0.1l0.1-1.1C134.8,3,134.5,3,134.3,3c-0.7,0.1-1.3,0.5-1.6,1.2l-0.1-1.2L131.6,3.1L131.6,3.1z M17.1,21.6
	c0-0.3,0-0.5,0-0.7c0-1.7-0.9-3-2.6-3c-1.9,0-3,1.5-3,3.6c0,1.9,1,3.4,3.2,3.4c0.8,0,1.7-0.3,2.3-0.8l-0.4-0.8
	C16,23.7,15.3,24,14.6,24c-1.6,0-2-1.2-2.1-2.4L17.1,21.6L17.1,21.6z M14.4,18.8c1,0,1.7,0.9,1.6,1.8c0,0.1,0,0.1,0,0.2h-3.5
	C12.8,19.6,13.5,18.8,14.4,18.8z M18.9,15.1v9.7h1v-9.7L18.9,15.1L18.9,15.1z M29.1,18.3c-0.6-0.2-1.2-0.4-1.9-0.4
	c-1.4,0-2.3,0.7-2.3,1.9c0.1,0.9,0.8,1.7,1.7,1.9c1,0.3,1.7,0.6,1.7,1.4s-0.8,1.1-1.6,1.1c-0.6,0-1.2-0.2-1.7-0.4l-0.2,0.9
	c0.6,0.3,1.3,0.4,2,0.4c1.4,0,2.6-0.6,2.6-2.1c0-1-0.8-1.8-1.8-2c-1-0.3-1.7-0.5-1.7-1.3c0.1-0.6,0.6-1,1.2-1c0,0,0.1,0,0.1,0
	c0.6,0,1.2,0.2,1.7,0.4L29.1,18.3z M36.2,21.6c0-0.3,0-0.5,0-0.7c0-1.7-0.9-3-2.6-3c-1.9,0-3,1.5-3,3.6c0,1.9,1,3.4,3.2,3.4
	c0.8,0,1.7-0.3,2.3-0.8l-0.4-0.8c-0.5,0.4-1.2,0.7-1.9,0.7c-1.6,0-2-1.2-2.1-2.4L36.2,21.6L36.2,21.6z M33.6,18.8
	c1,0,1.7,0.9,1.6,1.8c0,0.1,0,0.1,0,0.2h-3.5C31.9,19.6,32.6,18.8,33.6,18.8z M37.9,18.1l0.1,1.2v5.6h1v-4.2
	c-0.1-0.7,0.5-1.4,1.2-1.4c0.1,0,0.2,0,0.3,0c0.2,0,0.5,0,0.7,0.1l0.1-1.1c-0.2-0.1-0.5-0.1-0.7-0.1c-0.7,0.1-1.3,0.5-1.6,1.2
	l-0.1-1.2H37.9z M42.1,18.1l2.5,6.8h1.1l2.5-6.8h-1.1L45.3,23l-0.2,0.6h-0.1L44.9,23l-1.6-4.9H42.1L42.1,18.1z M49.4,18.1v6.8h1
	v-6.8H49.4L49.4,18.1z M49.3,15.1v1.2h1.2v-1.2C50.5,15.1,49.3,15.1,49.3,15.1z M55.2,24c-1.6,0-2-1.3-2-2.5c0-1.5,0.6-2.6,2-2.6
	c0.6,0,1.2,0.2,1.6,0.5l0.3-0.9c-0.6-0.4-1.2-0.5-1.9-0.5c-2,0-3,1.5-3,3.5c0,2,1,3.4,3,3.4c0.7,0,1.4-0.2,2-0.5l-0.3-0.9
	C56.4,23.8,55.8,24,55.2,24L55.2,24z M58.7,18.1v6.8h1v-6.8L58.7,18.1L58.7,18.1z M58.7,15.1v1.2h1.2v-1.2
	C59.9,15.1,58.7,15.1,58.7,15.1z M64.5,18.9c1.4,0,1.9,1.3,1.9,2.6c0,1.4-0.5,2.6-1.9,2.6c-1.4,0-1.9-1.3-1.9-2.6
	C62.6,20,63.1,18.9,64.5,18.9L64.5,18.9z M64.5,18c-1.9,0-3,1.5-3,3.5c0,2.1,1.1,3.5,3,3.5c1.9,0,2.9-1.6,2.9-3.5
	C67.4,19.4,66.3,18,64.5,18L64.5,18z M71.5,15.5l2.9,4.4l-3,4.8h1.3l2.4-4.1l2.3,4.1h1.4L75.8,20l3-4.4h-1.3l-2.4,3.7l-2.2-3.7
	L71.5,15.5L71.5,15.5z M83.1,24.8v-8.4l0.1-0.9h-0.9l-2.2,0.8v1.1l1.9-0.8h0l0,0.2v8L83.1,24.8L83.1,24.8z M90.2,15.5v9.3h2.8
	c2.5,0,4.5-1.2,4.5-4.7c0-3.3-2-4.6-4.5-4.6L90.2,15.5L90.2,15.5z M91.4,16.5h1.8c2.4,0,3.3,1.9,3.3,3.6c0,2-0.9,3.8-3.3,3.8h-1.8
	L91.4,16.5L91.4,16.5z M98.4,15.5l3,9.3h1.2l3-9.3h-1.2l-2.1,7.2l-0.2,0.8h-0.1l-0.2-0.8l-2.1-7.2H98.4L98.4,15.5z M107.1,15.5v9.3
	h1.1v-4h2.3l2.4,4h1.3l-2.5-4.2c1.2-0.2,2.1-1.3,1.9-2.5c0-0.7-0.2-1.3-0.7-1.8c-0.6-0.6-1.5-0.9-2.3-0.8L107.1,15.5L107.1,15.5z
	 M108.2,16.5h2.4c0.9-0.1,1.7,0.5,1.8,1.3c0,0.1,0,0.2,0,0.3c0.1,0.9-0.5,1.7-1.3,1.8c-0.2,0-0.3,0-0.5,0h-2.4V16.5L108.2,16.5z
	 M118.5,19.3h0.6v-2.9l0-0.4h0.1l0.1,0.4l0.8,2.2h0.7l0.8-2.2l0.1-0.4h0.1l0,0.4v2.9h0.6v-3.8h-1l-0.8,2.4h-0.1l-0.8-2.4h-1
	L118.5,19.3L118.5,19.3z M115.9,19.3h0.6v-3.2h1.1v-0.5h-2.7V16h1.1V19.3z"/>
</svg>
