<?xml version="1.0" encoding="utf-8"?>
<!-- Generator: Adobe Illustrator 19.2.1, SVG Export Plug-In . SVG Version: 6.00 Build 0)  -->
<svg version="1.1" id="Robots" xmlns="http://www.w3.org/2000/svg" xmlns:xlink="http://www.w3.org/1999/xlink" x="0px" y="0px"
	 viewBox="0 0 110 192.1" style="enable-background:new 0 0 110 192.1;" xml:space="preserve">
<style type="text/css">
	.st0{fill:#008FA5;}
	.st1{fill:#3EBEB8;}
	.st2{fill:#77523A;}
	.st3{fill:#F9A11B;}
	.st4{fill:#F05A22;}
	.st5{fill:#F9A11B;stroke:#FFFFFF;stroke-width:1.6578;stroke-miterlimit:10;}
	.st6{fill:#6B4224;stroke:#77523A;stroke-width:1.6578;stroke-miterlimit:10;}
	.st7{fill:#6B4224;stroke:#F05A22;stroke-width:1.0328;stroke-miterlimit:10;}
</style>
<g>
	<g>
		<g>
			<path class="st0" d="M45.1,188.8c0,1.8-1.5,3.3-3.3,3.3H28c-1.8,0-3.3-1.5-3.3-3.3V178c0-1.8,1.5-3.3,3.3-3.3h13.8
				c1.8,0,3.3,1.5,3.3,3.3V188.8z"/>
			<rect x="31.4" y="135.7" class="st0" width="13.6" height="51.1"/>
			<path class="st0" d="M43.8,190c0,1.1-0.9,2-2,2H18.2c-1.1,0-2-0.9-2-2l0,0c0-1.1,0.9-2,2-2h23.6C42.9,188,43.8,188.9,43.8,190
				L43.8,190z"/>
			<path class="st1" d="M48,159.1c0,1.2-1,2.2-2.2,2.2H30.6c-1.2,0-2.2-1-2.2-2.2V153c0-1.2,1-2.2,2.2-2.2h15.2c1.2,0,2.2,1,2.2,2.2
				V159.1z"/>
		</g>
		<g>
			<path class="st0" d="M64.9,188.8c0,1.8,1.5,3.3,3.3,3.3H82c1.8,0,3.3-1.5,3.3-3.3V178c0-1.8-1.5-3.3-3.3-3.3H68.2
				c-1.8,0-3.3,1.5-3.3,3.3V188.8z"/>
			<rect x="64.9" y="135.7" class="st0" width="13.6" height="51.1"/>
			<path class="st0" d="M66.2,190c0,1.1,0.9,2,2,2h23.6c1.1,0,2-0.9,2-2l0,0c0-1.1-0.9-2-2-2H68.2C67.1,188,66.2,188.9,66.2,190
				L66.2,190z"/>
			<path class="st1" d="M62,159.1c0,1.2,1,2.2,2.2,2.2h15.2c1.2,0,2.2-1,2.2-2.2V153c0-1.2-1-2.2-2.2-2.2H64.1c-1.2,0-2.2,1-2.2,2.2
				V159.1z"/>
		</g>
	</g>
	<g>
		<g>
			<g>
				<path class="st2" d="M78.1,93.2c0,1.7,1.4,3.1,3.1,3.1h22.1c1.7,0,3.1-1.4,3.1-3.1v-8.8c0-1.7-1.4-3.1-3.1-3.1H81.3
					c-1.7,0-3.1,1.4-3.1,3.1V93.2z"/>
				<rect x="94.9" y="88.4" class="st2" width="9.2" height="48.3"/>
				<path class="st2" d="M92.9,123c0,1.7,1.4,3.1,3.1,3.1h7.4c1.7,0,3.1-1.4,3.1-3.1v-4.4c0-1.7-1.4-3.1-3.1-3.1H96
					c-1.7,0-3.1,1.4-3.1,3.1V123z"/>
				<path class="st2" d="M104.5,148.4c1-1.1,1.6-2.6,1.6-4.2c0-3.5-2.9-6.4-6.4-6.4c-3.5,0-6.4,2.9-6.4,6.4c0,1.6,0.6,3,1.5,4.1
					l-3,2.5c-1.5-1.8-2.4-4.1-2.4-6.6c0-5.7,4.6-10.3,10.3-10.3c5.7,0,10.3,4.6,10.3,10.3c0,2.6-1,5-2.6,6.8L104.5,148.4z"/>
			</g>
			<g>
				<rect x="86.1" y="78.6" class="st3" width="3.7" height="19.6"/>
			</g>
		</g>
		<g>
			<g>
				<path class="st2" d="M31.8,93.2c0,1.7-1.4,3.1-3.1,3.1H6.6c-1.7,0-3.1-1.4-3.1-3.1v-8.8c0-1.7,1.4-3.1,3.1-3.1h22.1
					c1.7,0,3.1,1.4,3.1,3.1V93.2z"/>
				<rect x="5.9" y="88.4" class="st2" width="9.2" height="48.3"/>
				<path class="st2" d="M17.1,123c0,1.7-1.4,3.1-3.1,3.1H6.6c-1.7,0-3.1-1.4-3.1-3.1v-4.4c0-1.7,1.4-3.1,3.1-3.1H14
					c1.7,0,3.1,1.4,3.1,3.1V123z"/>
				<path class="st2" d="M5.4,148.4c-1-1.1-1.6-2.6-1.6-4.2c0-3.5,2.9-6.4,6.4-6.4c3.5,0,6.4,2.9,6.4,6.4c0,1.6-0.6,3-1.5,4.1l3,2.5
					c1.5-1.8,2.4-4.1,2.4-6.6c0-5.7-4.6-10.3-10.3-10.3C4.6,134,0,138.6,0,144.2c0,2.6,1,5,2.6,6.8L5.4,148.4z"/>
			</g>
			<g>
				<rect x="20.2" y="78.6" class="st3" width="3.7" height="19.6"/>
			</g>
		</g>
	</g>
	<g>
		<g>
			<polygon class="st0" points="32.1,50 24.2,47.1 24.2,37.9 32.1,34.8 			"/>
			<rect x="30.7" y="32.9" class="st1" width="3.7" height="19.6"/>
		</g>
		<g>
			<polygon class="st0" points="77.9,50 85.8,47.1 85.8,37.9 77.9,34.8 			"/>
			<rect x="75.6" y="32.9" class="st1" width="3.7" height="19.6"/>
		</g>
	</g>
	<path class="st2" d="M62.2,0c-2.1,0-3.9,0.8-5.4,2c-0.5,0.4-1.1,0.7-1.8,0.7c-0.7,0-1.3-0.2-1.8-0.7c-1.5-1.2-3.3-2-5.4-2
		c-4.6,0-8.4,3.8-8.4,8.4c0,4.6,3.8,8.4,8.4,8.4c1.3,0,2.5-0.3,3.5-0.8v15.4h7.3V16c1.1,0.5,2.3,0.8,3.5,0.8c4.6,0,8.4-3.8,8.4-8.4
		C70.6,3.8,66.8,0,62.2,0z M42.6,8.4c0-2.9,2.3-5.2,5.2-5.2c2.9,0,5.2,2.3,5.2,5.2c0,2.9-2.3,5.2-5.2,5.2
		C44.9,13.7,42.6,11.3,42.6,8.4z M62.2,13.7c-2.9,0-5.2-2.3-5.2-5.2c0-2.9,2.3-5.2,5.2-5.2c2.9,0,5.2,2.3,5.2,5.2
		C67.4,11.3,65.1,13.7,62.2,13.7z"/>
	<path class="st4" d="M77.3,62c0,1.7-1.4,3.1-3.1,3.1H35.8c-1.7,0-3.1-1.4-3.1-3.1V23.7c0-1.7,1.4-3.1,3.1-3.1h38.3
		c1.7,0,3.1,1.4,3.1,3.1V62z"/>
	<g>
		<circle class="st5" cx="45.3" cy="35.6" r="6.9"/>
		<circle class="st5" cx="64.7" cy="35.6" r="6.9"/>
	</g>
	<path class="st6" d="M70,53.5c0,1.7-1.4,3.1-3.1,3.1H43.1c-1.7,0-3.1-1.4-3.1-3.1v-1.7c0-1.7,1.4-3.1,3.1-3.1h23.8
		c1.7,0,3.1,1.4,3.1,3.1V53.5z"/>
	<path class="st2" d="M66.4,68.8c0,0.9-0.7,1.7-1.7,1.7H45.2c-0.9,0-1.7-0.7-1.7-1.7l0,0c0-0.9,0.7-1.7,1.7-1.7h19.5
		C65.7,67.2,66.4,67.9,66.4,68.8L66.4,68.8z"/>
	<path class="st4" d="M87.7,134.6c0,1.7-1.4,3.1-3.1,3.1H25.4c-1.7,0-3.1-1.4-3.1-3.1V75.5c0-1.7,1.4-3.1,3.1-3.1h59.1
		c1.7,0,3.1,1.4,3.1,3.1V134.6z"/>
	<path class="st7" d="M77.3,109.7c0,1.7-1.4,3.1-3.1,3.1H35.8c-1.7,0-3.1-1.4-3.1-3.1V87.3c0-1.7,1.4-3.1,3.1-3.1h38.3
		c1.7,0,3.1,1.4,3.1,3.1V109.7z"/>
	<circle class="st3" cx="36.6" cy="121.3" r="4.8"/>
	<circle class="st1" cx="49.5" cy="121.3" r="4.8"/>
	<g>
		<polygon class="st4" points="32.5,91.2 32.5,89.6 77.5,89.6 77.5,91.2 32.5,91.2 		"/>
	</g>
	<g>
		<polygon class="st4" points="32.5,95.6 32.5,94 77.5,94 77.5,95.6 32.5,95.6 		"/>
	</g>
	<g>
		<polygon class="st4" points="32.5,100 32.5,98.5 77.5,98.5 77.5,100 32.5,100 		"/>
	</g>
	<g>
		<polygon class="st4" points="32.5,104.4 32.5,102.9 77.5,102.9 77.5,104.4 32.5,104.4 		"/>
	</g>
</g>
</svg>
