<?xml version="1.0" encoding="utf-8"?>
<!-- Generator: Adobe Illustrator 19.2.1, SVG Export Plug-In . SVG Version: 6.00 Build 0)  -->
<svg version="1.1" id="Layer_1" xmlns="http://www.w3.org/2000/svg" xmlns:xlink="http://www.w3.org/1999/xlink" x="0px" y="0px"
	 viewBox="0 0 270 62" style="enable-background:new 0 0 270 62;" xml:space="preserve">
<style type="text/css">
	.st0{fill:#FFFFFF;}
</style>
<g>
	<path class="st0" d="M164.2,1.1c-4.8,0-7.1,2.6-7.1,6.2c0,2.5,1.4,5.8,4.1,5.8c0.9,0,3.3-0.3,3.7-1.1c0,12.6-8.6,38.2-19.8,38.2
		c-2.7,0-3.9-1.5-3.9-3.8c0.1-1.4,0.3-2.8,0.6-4.1L150,3.4h-16.4l-8.2,38.8c-0.4,1.8-0.6,3.6-0.6,5.5c0,9,5.4,13.5,14,13.5
		c23.3,0,32.6-31.9,32.6-50.2C171.4,6,169.7,1.1,164.2,1.1z"/>
	<path class="st0" d="M265,50.1c-3.4,0-4.6-1.9-4.6-4.8c0-6.4,5.5-20.2,5.5-29.5c0-9.1-5.4-12.9-12.7-12.9c-3.5,0-8.6,0.9-13.4,6.4
		l1.3-5.9h-16.4l-7.8,36.7c-5.7,6.5-11.2,11.5-20.2,11.5c-5.5,0-8.2-1.8-8.2-9.6c0-1.4,0.1-3,0.2-4.6c13.7-0.8,26.3-11,26.3-24.1
		c0-5.7-2.4-11-12.6-11c-23.4,0-30.8,27.5-30.8,40.7c0,12.9,7.1,18.2,17.8,18.2c11.4,0,19.7-6,25.9-13.4l-2.7,12.7h16.4l7.8-36.7
		c1.7-5.7,4.8-10.5,8.9-10.5c2.7,0,4.1,2.1,4.1,5.8h0c0,7.3-5.1,21.4-5.1,29.1c0,6.5,2.7,12.9,11.5,12.9c6.1,0,11.5-3.5,12.6-11.8
		C267.6,50,266.3,50.3,265,50.1z M203.4,8.4c2.2,0,2.9,1.8,2.9,4.7l0,0c0,9.5-7.8,18.3-16.6,18.9C191.9,20.6,197.5,8.4,203.4,8.4z"
		/>
</g>
<path id="de_lo_que" class="st0" d="M11.1,17.2v8.8c-0.8-1.6-2.5-2.5-4.3-2.4c-4.4,0-6.2,3.6-6.2,7.9c0,3.5,1.2,8,6,8
	c1.9,0.1,3.7-0.9,4.7-2.6l0.3,2.3h2V17.2H11.1L11.1,17.2z M11.1,33.8c0,2-1.7,3.7-3.7,3.7c-0.1,0-0.2,0-0.3,0
	c-3.5,0-4.1-3.1-4.1-5.9s0.6-5.9,4-5.9c2.1-0.2,3.9,1.4,4,3.5c0,0.1,0,0.2,0,0.3L11.1,33.8L11.1,33.8z M30.7,32.1
	c0.1-0.7,0.1-1,0.1-1.5c0-4-2.1-6.9-6.1-6.9c-4.3,0-6.9,3.5-6.9,8.2c0,4.4,2.3,7.7,7.3,7.7c1.9,0,3.8-0.6,5.4-1.8l-1-1.9
	c-1.2,1-2.8,1.6-4.4,1.6c-3.7,0-4.7-2.8-4.8-5.4L30.7,32.1L30.7,32.1z M24.6,25.6c2.4,0,3.8,2,3.8,4.6h-8
	C20.8,27.3,22.4,25.6,24.6,25.6L24.6,25.6z M42,17.2v22.1h2.4V17.2L42,17.2L42,17.2z M55.5,25.7c3.3,0,4.3,2.9,4.3,5.9
	c0,3.2-1.1,5.9-4.3,5.9c-3.3,0-4.3-2.9-4.3-5.9C51.2,28.3,52.3,25.7,55.5,25.7L55.5,25.7z M55.5,23.7c-4.4,0-6.8,3.5-6.8,7.9
	c0,4.8,2.6,8,6.8,8c4.4,0,6.8-3.7,6.8-8C62.2,26.9,59.7,23.7,55.5,23.7L55.5,23.7z M83.3,23.9L83,26.2c-0.8-1.7-2.6-2.7-4.5-2.6
	c-4.4,0-6.2,3.6-6.2,7.8c0,3.5,1.3,8.1,6,8.1c1.9,0.1,3.6-0.8,4.6-2.4v8.8h2.4v-22L83.3,23.9L83.3,23.9z M82.8,33.8
	c0,2.1-1.7,3.7-3.8,3.7c0,0,0,0,0,0c-3.6,0-4.3-2.9-4.3-5.8c0-2.9,0.6-5.9,4-5.9c2.1-0.2,3.8,1.4,4,3.4c0,0.1,0,0.2,0,0.3L82.8,33.8
	L82.8,33.8z M102.5,39.3l-0.3-2.7V23.9h-2.4v9.8c0.1,2-1.5,3.7-3.5,3.8c-0.1,0-0.2,0-0.3,0c-0.9,0.1-1.8-0.3-2.5-0.9
	c-0.5-0.6-0.8-1.4-0.8-2.3V23.9h-2.4v10c-0.1,1.5,0.4,3,1.3,4.2c1,1,2.3,1.5,3.7,1.5c2,0.1,3.9-1.1,4.6-2.9l0.3,2.7L102.5,39.3
	L102.5,39.3z M119.5,32.1c0.1-0.7,0.1-1,0.1-1.5c0-4-2.1-6.9-6.1-6.9c-4.3,0-6.9,3.5-6.9,8.2c0,4.4,2.3,7.7,7.3,7.7
	c1.9,0,3.8-0.6,5.4-1.8l-1-1.9c-1.2,1-2.8,1.6-4.4,1.6c-3.7,0-4.7-2.8-4.8-5.4L119.5,32.1L119.5,32.1z M113.4,25.6
	c2.4,0,3.8,2,3.8,4.6h-8C109.5,27.3,111.1,25.6,113.4,25.6L113.4,25.6z"/>
</svg>
