<svg xmlns="http://www.w3.org/2000/svg" width="131" height="36" viewBox="0 0 131 36">
  <defs>
    <style>
      .cls-1 {
        fill: #fff;
        fill-rule: evenodd;
      }
    </style>
  </defs>
  <path id="ZONE" class="cls-1" d="M0.357,34.887h25.41V32.609H3.757L25.768,2.36V0.954H1.139V3.233H22.367L0.357,33.482v1.406ZM46.72,35.468c9.741,0,16.22-8.289,16.22-17.548v-0.1c0-9.259-6.387-17.451-16.128-17.451s-16.22,8.29-16.22,17.548v0.1C30.592,27.276,36.978,35.468,46.72,35.468Zm0.092-2.278c-7.949,0-13.739-6.883-13.739-15.269v-0.1c0-8.386,5.7-15.173,13.647-15.173S60.459,9.534,60.459,17.92v0.1C60.459,26.4,54.761,33.19,46.812,33.19Zm24.49,1.7h2.3V4.735L96.253,34.886h1.792V0.953h-2.3V30.475L73.554,0.954H71.3V34.886Zm36.529,0h23.113V32.558H110.221V18.937h18.426V16.61H110.221V3.28h20.494V0.953H107.832V34.886Z"/>
</svg>
