<?xml version="1.0" encoding="utf-8"?>
<!-- Generator: Adobe Illustrator 19.2.1, SVG Export Plug-In . SVG Version: 6.00 Build 0)  -->
<svg version="1.1" id="Layer_1" xmlns="http://www.w3.org/2000/svg" xmlns:xlink="http://www.w3.org/1999/xlink" x="0px" y="0px"
	 viewBox="0 0 287 63" style="enable-background:new 0 0 287 63;" xml:space="preserve">
<style type="text/css">
	.st0{fill:#FFFFFF;}
	.st1{fill:none;enable-background:new    ;}
</style>
<path class="st0" d="M249.9,42.3v1h-2v5h-1.6v-5h-2.1v-1H249.9z M252.4,42.3l1.4,3.6l0.2,0.8h0.1l0.2-0.8l1.4-3.6h1.7l-2.6,6h-1.5
	l-2.6-6C250.7,42.3,252.4,42.3,252.4,42.3z M245,29.2v-1.5c0-3.1,2.6-5.5,5.8-5.5l0,0h0.2c3.1-0.1,5.6,2.4,5.7,5.5l0,0v1.5
	c0.4,0.1,0.9,0.2,1.4,0.5c1.5,0.6,3,1.5,4.4,2.5v-4.5c-0.1-6.1-5.1-11-11.4-11h-0.2c-6.1-0.1-11.2,4.7-11.4,11v4.4
	c1.4-1,2.7-1.9,4.4-2.5C244.2,29.4,244.6,29.3,245,29.2L245,29.2L245,29.2z M262.4,35.1c-4.5-4.5-11.2-5.9-17.2-3.6
	c-2.1,0.8-4,2-5.6,3.6c-2.9,2.9-4.5,6.8-4.5,10.7c0.2,8.9,7.6,15.8,16.5,15.5c8.5-0.2,15.2-7,15.5-15.5
	C266.9,41.8,265.2,37.9,262.4,35.1L262.4,35.1L262.4,35.1z M261.4,50.4c0,0.4-0.4,0.7-0.8,0.7h-6.5v0.6l3.1,1.4
	c0.4,0.1,0.5,0.6,0.4,1l0,0c-0.1,0.2-0.4,0.4-0.8,0.4c-0.1,0-0.2,0-0.4-0.1l-3.5-1.5h-4.5l-3.5,1.5c-0.1,0.1-0.2,0.1-0.4,0.1
	c-0.4,0-0.8-0.2-0.8-0.8c0-0.2,0.1-0.6,0.4-0.7l0,0l3.1-1.4v-0.6H241c-0.4,0-0.8-0.4-0.8-0.7V39.1c0-0.4,0.4-0.8,0.8-0.8h19.5
	c0.4,0,0.8,0.4,0.8,0.8L261.4,50.4L261.4,50.4L261.4,50.4z M259.6,50.8h-17.5c-0.6,0-1.1-0.5-1.1-1.1v-9.8c0-0.6,0.5-1.1,1.1-1.1
	c0,0,0,0,0.1,0h17.5c0.6,0,1.1,0.5,1.1,1.1v9.6C260.8,50.2,260.4,50.7,259.6,50.8L259.6,50.8L259.6,50.8L259.6,50.8z M242.2,39.8
	c-0.1,0-0.1,0-0.2,0.1v9.6c0,0.1,0.1,0.1,0.2,0.1l0,0h17.5c0.1,0,0.1,0,0.2-0.1v-9.6c0-0.1-0.1-0.1-0.2-0.1l0,0H242.2L242.2,39.8z"
	/>
<path class="st1" d="z"/>
<g>
	<path class="st0" d="M281.3,54.6c-2.1,0-2.8-1.2-2.8-2.8c0-0.7,0.1-1.3,0.3-2l8-37.1l-10.2,1.4L269,48.5c-0.3,1.5-0.5,3-0.6,4.5
		c0,5.8,3.3,8.4,7.4,8.4c4,0.2,7.5-3,7.6-7c0-0.1,0-0.1,0-0.2C282.8,54.5,282,54.6,281.3,54.6z"/>
	<path class="st0" d="M231.8,26.6c-3.3,0-6,2.2-8.4,4.3l0.9-4.3h-10l-4.7,22.1c-1,3.4-3.5,6-6.2,6c-1.9,0-2.8-0.6-2.8-2.5
		c0-0.7,0.1-1.5,0.3-2.2l4.4-20.6h4.2l0.6-2.8h-4.2l2.4-10.9l-10.3,1.4l-2.1,9.5h-2.3l-0.6,2.8h2.3l-4.2,19.3c0,0,0,0,0,0
		c-1.5,3.6-2.8,6-5.8,6c-2.1,0-2.8-1.2-2.8-2.9c0-3.9,3.3-12.2,3.3-17.7c0-5.5-3.3-7.8-7.7-7.8c-3.1,0-6.1,1.4-8.1,3.9l0.8-3.6h-10
		l-2,9.2c-1.9,0.8-3.9,1.3-5.5,1.3c-0.3,0-0.5,0-0.8-0.1c0-7.2-2.9-11-8.9-11v0c-13.9,0-18.7,15.6-19,23.7
		c-3.1,3.4-6.3,5.9-11.3,5.9c-3.3,0-5-1.1-5-5.8c0-7.6,4.5-20.2,8.9-20.2c1.3,0,1.9,1.1,1.9,2.8c0,1.4-0.3,2.8-0.8,4.1
		c0.7,0.5,1.6,0.8,2.4,0.8c2,0,3.7-1.6,3.7-5c0-3.2-1.5-6.3-7.7-6.3c-14.1,0-18.6,16.5-18.6,24.5c0,7.8,4.3,10.9,10.8,10.9
		c7.1,0,12.2-3.8,15.9-8.3c1,5.9,5.2,8.2,10.9,8.2c8.5,0,15.4-8,16.6-20.7c2.1-0.3,4-0.9,5.8-1.6l-4.7,22h10l4.7-22.1
		c1-3.4,2.9-6.3,5.4-6.3c1.7,0,2.5,1.2,2.5,3.5v0c0,4.4-3.1,12.9-3.1,17.5c0,3.9,2.1,7.8,8.2,7.8c2.7,0,6.4-0.8,9.6-5.8
		c0.8,4,3.7,5.8,7.2,5.8c2.5,0,6.4-0.7,9.9-4.5L207,61h10l5.5-26.1c1.7-1.6,3-2.6,5.1-2.6c2.1,0,0.1,4.5,4,4.5c2.7,0.1,4.9-2,5-4.6
		c0-0.1,0-0.2,0-0.4C236.5,29.1,234.9,26.6,231.8,26.6z M144.8,37.9c0,1.4,0.4,2.5,1.9,2.9c-1.1,8.1-4.6,14.3-8,14.3v0
		c-2.6,0-3.5-1-3.5-5.6c0-6.7,4.3-19.3,9.2-19.3c1.8,0,2.5,1.1,2.6,4C145.5,34.8,144.7,36.3,144.8,37.9z"/>
</g>
<path id="el" class="st0" d="M78.5,53.1c0.1-0.7,0.1-1,0.1-1.5c0-4-2.1-6.9-6.1-6.9c-4.3,0-6.9,3.5-6.9,8.2c0,4.4,2.3,7.7,7.3,7.7
	c1.9,0,3.8-0.6,5.4-1.8l-1-1.9c-1.2,1-2.8,1.6-4.4,1.6c-3.7,0-4.7-2.8-4.8-5.4L78.5,53.1L78.5,53.1z M72.4,46.6c2.4,0,3.8,2,3.8,4.6
	h-8C68.6,48.3,70.2,46.6,72.4,46.6L72.4,46.6z M82.9,38.2v22.1h2.4V38.2L82.9,38.2L82.9,38.2z"/>
<g>
	<polygon class="st0" points="57.1,9.8 49.9,9.8 43.6,22.9 48.8,22.9 	"/>
	<path class="st0" d="M54.9,52.8c0-0.7,0.1-1.5,0.3-2.2l5-23.5h-10l-4.7,22.2c-1,3.5-2.8,6.1-5.5,6.1c-1.6,0-2.1-1.5-2.1-3
		c0-0.6,0.1-1.2,0.2-1.7l5-23.5h-9.9h0l-4.7,22.2c0,0,0,0,0,0c-1,3.4-3.5,6-6.2,6c-1.9,0-2.8-0.6-2.8-2.6c0-0.7,0.1-1.5,0.3-2.2
		l4.4-20.7h4.1l0.6-2.8h-4.1L27,16.2l-10.2,1.4l-2.1,9.5h-2.3l-0.6,2.8h2.3L10,49.3c-0.3,1.5-0.5,3-0.6,4.5c0,5.8,3.2,8.3,7.4,8.3
		c2.8,0,7.4-0.9,11.2-6.2c0.7,4.3,3.6,6.2,7.2,6.2c2.9,0,6.8-0.9,10.3-6.6c0.5,4.1,3,6.6,6.8,6.6c3.7,0,7.3-2.1,7.7-7.1
		c-0.7,0.3-1.5,0.4-2.3,0.4C55.8,55.4,54.9,54.7,54.9,52.8z"/>
</g>
<path id="y" class="st0" d="M0,0.9l5.9,15.7L5.1,19c-0.6,1.7-1.3,2-3.3,2l0.2,1.9c0.5,0.2,1,0.2,1.4,0.2c2.1,0,3.2-2.2,4.1-4.4
	l6.5-17.6h-2.7L7.6,12.1l-0.4,1.4H7.1l-0.3-1.4l-4-11.3H0L0,0.9z"/>
</svg>
