<svg xmlns="http://www.w3.org/2000/svg" width="96" height="12" viewBox="0 0 96 12">
  <defs>
    <style>
      .cls-1 {
        fill: #fff;
        fill-rule: evenodd;
      }
    </style>
  </defs>
  <path id="Adquiérelo_aquí" data-name="Adquiérelo aquí" class="cls-1" d="M3.392,1.378L0.621,9.145H2.377L2.839,7.6h2.8L6.089,9.145h1.9L5.283,1.378H3.392ZM4.2,3.183H4.316L4.5,3.929l0.714,2.3H3.269l0.725-2.3ZM12.569,1.05v2.97a3.283,3.283,0,0,0-.309-0.363,1.488,1.488,0,0,0-.333-0.252,1.56,1.56,0,0,0-.395-0.15A2.1,2.1,0,0,0,11.049,3.2a2.212,2.212,0,0,0-1.082.25,2.179,2.179,0,0,0-.747.669,2.974,2.974,0,0,0-.435.969,4.562,4.562,0,0,0-.142,1.147,5.188,5.188,0,0,0,.051.72,4.008,4.008,0,0,0,.164.706,3.052,3.052,0,0,0,.3.639,2.128,2.128,0,0,0,.443.518,2.014,2.014,0,0,0,.61.349,2.3,2.3,0,0,0,.8.129,2.544,2.544,0,0,0,.524-0.048A1.557,1.557,0,0,0,11.951,9.1a1.692,1.692,0,0,0,.371-0.277,4.453,4.453,0,0,0,.371-0.414L12.8,9.145h1.354V1.05H12.569Zm0,5.973a0.94,0.94,0,0,1-.067.344,0.93,0.93,0,0,1-.207.314,1.061,1.061,0,0,1-.349.231,1.278,1.278,0,0,1-.5.089,1.078,1.078,0,0,1-.61-0.153,0.98,0.98,0,0,1-.347-0.4,1.775,1.775,0,0,1-.153-0.572A6.15,6.15,0,0,1,10.3,6.207a5.3,5.3,0,0,1,.035-0.61,1.707,1.707,0,0,1,.15-0.545,0.974,0.974,0,0,1,.344-0.395A1.089,1.089,0,0,1,11.446,4.5a1.245,1.245,0,0,1,.5.091,1.1,1.1,0,0,1,.349.234,0.918,0.918,0,0,1,.207.32,0.969,0.969,0,0,1,.067.344V7.023ZM19.608,3.36L19.5,4.074a3.378,3.378,0,0,0-.346-0.384,1.858,1.858,0,0,0-.368-0.271,1.636,1.636,0,0,0-.422-0.161,2.456,2.456,0,0,0-1.59.2,2.179,2.179,0,0,0-.747.669,2.979,2.979,0,0,0-.435.964,4.5,4.5,0,0,0-.142,1.141,5.222,5.222,0,0,0,.051.725,3.906,3.906,0,0,0,.166.709,3.127,3.127,0,0,0,.3.642,2.1,2.1,0,0,0,.446.518,2.058,2.058,0,0,0,.61.349,2.262,2.262,0,0,0,.792.129,2.143,2.143,0,0,0,.513-0.056,1.63,1.63,0,0,0,.414-0.161,1.732,1.732,0,0,0,.341-0.252,2.591,2.591,0,0,0,.3-0.336v3.072h1.584V3.36H19.608ZM19.377,7.023a0.911,0.911,0,0,1-.073.352,0.986,0.986,0,0,1-.209.314,1.029,1.029,0,0,1-.341.226A1.194,1.194,0,0,1,18.286,8a1.145,1.145,0,0,1-.623-0.148,0.984,0.984,0,0,1-.355-0.392A1.672,1.672,0,0,1,17.148,6.9a5.716,5.716,0,0,1-.038-0.669,5.514,5.514,0,0,1,.035-0.62,1.747,1.747,0,0,1,.15-0.553,0.97,0.97,0,0,1,.344-0.4A1.09,1.09,0,0,1,18.254,4.5a1.277,1.277,0,0,1,.5.089,1.062,1.062,0,0,1,.349.231,0.921,0.921,0,0,1,.207.32,0.982,0.982,0,0,1,.067.349V7.023Zm8.435,2.122L27.7,8.065V3.36H26.12v3.7a0.859,0.859,0,0,1-.089.395,0.908,0.908,0,0,1-.236.3,1.121,1.121,0,0,1-.336.188A1.141,1.141,0,0,1,25.072,8a1.3,1.3,0,0,1-.478-0.075,0.8,0.8,0,0,1-.3-0.2,0.625,0.625,0,0,1-.158-0.279,1.217,1.217,0,0,1-.04-0.306V3.36H22.51V6.953a3.881,3.881,0,0,0,.129,1.085,1.72,1.72,0,0,0,.419.73,1.631,1.631,0,0,0,.607.392,2.437,2.437,0,0,0,.87.14,2.623,2.623,0,0,0,.451-0.038,1.383,1.383,0,0,0,.419-0.148,1.983,1.983,0,0,0,.408-0.3,3.391,3.391,0,0,0,.424-0.5l0.113,0.827h1.461ZM29.329,3.36V9.145h1.584V3.36H29.329ZM29.286,1.05V2.355h1.67V1.05h-1.67ZM37.56,6.636q0.043-.322.054-0.551t0.011-.3a3.093,3.093,0,0,0-.177-1.029,2.336,2.336,0,0,0-.5-0.822,2.29,2.29,0,0,0-.8-0.542,3.064,3.064,0,0,0-2.272.046,2.613,2.613,0,0,0-.9.669A2.994,2.994,0,0,0,32.4,5.123a3.923,3.923,0,0,0-.2,1.269,3.637,3.637,0,0,0,.177,1.156,2.435,2.435,0,0,0,.548.922,2.538,2.538,0,0,0,.94.61,3.731,3.731,0,0,0,1.348.22A4.168,4.168,0,0,0,36.5,9.12a4.042,4.042,0,0,0,1.01-.481l-0.4-1.058a4.628,4.628,0,0,1-.875.381,3.3,3.3,0,0,1-1,.145A1.445,1.445,0,0,1,34.6,7.984a1.243,1.243,0,0,1-.427-0.328,1.444,1.444,0,0,1-.258-0.47,2.956,2.956,0,0,1-.126-0.551H37.56ZM35.871,4.695A1.665,1.665,0,0,1,36.142,5.7H33.8a1.862,1.862,0,0,1,.416-1.015,1.087,1.087,0,0,1,.846-0.36A0.94,0.94,0,0,1,35.871,4.695ZM34.251,2.678h0.854l1.676-1.246v-0.5H35.6L34.251,2.313V2.678ZM38.895,3.36L39,4.426V9.145h1.584V5.706a0.924,0.924,0,0,1,.075-0.389,0.785,0.785,0,0,1,.2-0.274,0.84,0.84,0,0,1,.306-0.164,1.31,1.31,0,0,1,.381-0.054h0.153q0.089,0,.183.008t0.183,0.019a1.074,1.074,0,0,1,.164.032L42.4,3.373a0.834,0.834,0,0,0-.268-0.109,1.269,1.269,0,0,0-.29-0.038,1.067,1.067,0,0,0-.4.078,1.558,1.558,0,0,0-.371.215,2.443,2.443,0,0,0-.344.328,4.029,4.029,0,0,0-.317.417L40.3,3.36H38.895Zm9.284,3.276q0.043-.322.054-0.551t0.011-.3a3.1,3.1,0,0,0-.177-1.029,2.338,2.338,0,0,0-.5-0.822,2.29,2.29,0,0,0-.8-0.542,3.065,3.065,0,0,0-2.272.046,2.614,2.614,0,0,0-.9.669,3,3,0,0,0-.569,1.013,3.926,3.926,0,0,0-.2,1.269A3.639,3.639,0,0,0,43,7.548a2.435,2.435,0,0,0,.548.922,2.537,2.537,0,0,0,.94.61,3.731,3.731,0,0,0,1.348.22,4.169,4.169,0,0,0,1.278-.18,4.042,4.042,0,0,0,1.01-.481l-0.4-1.058a4.629,4.629,0,0,1-.876.381,3.3,3.3,0,0,1-1,.145,1.445,1.445,0,0,1-.628-0.124,1.242,1.242,0,0,1-.427-0.328,1.442,1.442,0,0,1-.258-0.47,2.965,2.965,0,0,1-.126-0.551h3.771ZM46.489,4.695A1.665,1.665,0,0,1,46.761,5.7H44.419a1.862,1.862,0,0,1,.416-1.015,1.087,1.087,0,0,1,.846-0.36A0.94,0.94,0,0,1,46.489,4.695ZM49.621,1.05V9.145h1.584V1.05H49.621Zm6.322,3.6a0.989,0.989,0,0,1,.357.387,1.6,1.6,0,0,1,.161.545,5.12,5.12,0,0,1,.038.623,5.277,5.277,0,0,1-.043.69,1.771,1.771,0,0,1-.166.569,0.966,0.966,0,0,1-.355.389A1.328,1.328,0,0,1,54.7,7.842a1.037,1.037,0,0,1-.357-0.414,1.783,1.783,0,0,1-.161-0.575,5.526,5.526,0,0,1-.038-0.647,4.337,4.337,0,0,1,.048-0.666A1.585,1.585,0,0,1,54.371,5a0.964,0.964,0,0,1,.357-0.363A1.161,1.161,0,0,1,55.322,4.5,1.149,1.149,0,0,1,55.942,4.652Zm-1.789-1.23a2.509,2.509,0,0,0-.892.615,2.749,2.749,0,0,0-.567.951,3.584,3.584,0,0,0-.2,1.219,3.882,3.882,0,0,0,.212,1.3,2.822,2.822,0,0,0,.577.972,2.471,2.471,0,0,0,.889.612,3.029,3.029,0,0,0,1.157.212,2.965,2.965,0,0,0,1.2-.228,2.467,2.467,0,0,0,.883-0.639,2.835,2.835,0,0,0,.551-0.98,4.115,4.115,0,0,0,.2-1.246,3.893,3.893,0,0,0-.223-1.268A2.7,2.7,0,0,0,57.366,4a2.462,2.462,0,0,0-.884-0.588,3.1,3.1,0,0,0-1.149-.2A3.047,3.047,0,0,0,54.154,3.422Zm8.516,1.4a4.118,4.118,0,0,1,.843-0.333A3.238,3.238,0,0,1,64.34,4.38a1.788,1.788,0,0,1,.435.046,0.715,0.715,0,0,1,.3.15,0.61,0.61,0,0,1,.174.272,1.318,1.318,0,0,1,.056.414V5.541a8.09,8.09,0,0,0-1.74.156,3.462,3.462,0,0,0-1.1.421,1.518,1.518,0,0,0-.58.628,1.89,1.89,0,0,0-.169.806,2.031,2.031,0,0,0,.132.763,1.47,1.47,0,0,0,.371.545,1.563,1.563,0,0,0,.575.329,2.353,2.353,0,0,0,.738.111,2.108,2.108,0,0,0,1.093-.266,2.161,2.161,0,0,0,.733-0.717,1.788,1.788,0,0,0,.091.513,3.154,3.154,0,0,0,.129.314H67.2A2.73,2.73,0,0,1,67,8.6a3.4,3.4,0,0,1-.1-0.929V5.283a2.469,2.469,0,0,0-.164-0.948,1.592,1.592,0,0,0-.481-0.647,2.018,2.018,0,0,0-.781-0.368A4.416,4.416,0,0,0,64.4,3.2a5.494,5.494,0,0,0-.838.059,5,5,0,0,0-.682.15,3.35,3.35,0,0,0-.521.2,2.63,2.63,0,0,0-.355.207Zm2.637,2.191a1.157,1.157,0,0,1-.091.467,1.027,1.027,0,0,1-.255.357,1.153,1.153,0,0,1-.389.228,1.46,1.46,0,0,1-.494.081,0.863,0.863,0,0,1-.61-0.185,0.715,0.715,0,0,1-.2-0.545,0.873,0.873,0,0,1,.062-0.32,0.671,0.671,0,0,1,.274-0.3,2.156,2.156,0,0,1,.615-0.247,6.6,6.6,0,0,1,1.085-.167V7.012ZM72.329,3.36l-0.107.714a3.378,3.378,0,0,0-.346-0.384,1.858,1.858,0,0,0-.368-0.271,1.636,1.636,0,0,0-.422-0.161,2.456,2.456,0,0,0-1.59.2,2.179,2.179,0,0,0-.747.669,2.981,2.981,0,0,0-.435.964,4.5,4.5,0,0,0-.142,1.141,5.237,5.237,0,0,0,.051.725,3.923,3.923,0,0,0,.166.709,3.138,3.138,0,0,0,.3.642,2.1,2.1,0,0,0,.446.518,2.058,2.058,0,0,0,.61.349,2.262,2.262,0,0,0,.792.129,2.143,2.143,0,0,0,.513-0.056,1.63,1.63,0,0,0,.414-0.161A1.734,1.734,0,0,0,71.8,8.83a2.591,2.591,0,0,0,.3-0.336v3.072h1.584V3.36H72.329ZM72.1,7.023a0.911,0.911,0,0,1-.073.352,0.986,0.986,0,0,1-.209.314,1.029,1.029,0,0,1-.341.226A1.194,1.194,0,0,1,71.008,8a1.145,1.145,0,0,1-.623-0.148,0.984,0.984,0,0,1-.355-0.392A1.672,1.672,0,0,1,69.869,6.9a5.716,5.716,0,0,1-.038-0.669,5.514,5.514,0,0,1,.035-0.62,1.742,1.742,0,0,1,.15-0.553,0.969,0.969,0,0,1,.344-0.4A1.09,1.09,0,0,1,70.976,4.5a1.277,1.277,0,0,1,.5.089,1.062,1.062,0,0,1,.349.231,0.919,0.919,0,0,1,.207.32,0.98,0.98,0,0,1,.067.349V7.023Zm8.435,2.122-0.107-1.08V3.36H78.841v3.7a0.86,0.86,0,0,1-.089.395,0.908,0.908,0,0,1-.236.3,1.12,1.12,0,0,1-.336.188A1.14,1.14,0,0,1,77.794,8a1.3,1.3,0,0,1-.478-0.075,0.8,0.8,0,0,1-.3-0.2,0.625,0.625,0,0,1-.158-0.279,1.217,1.217,0,0,1-.04-0.306V3.36H75.232V6.953a3.881,3.881,0,0,0,.129,1.085,1.72,1.72,0,0,0,.419.73,1.63,1.63,0,0,0,.607.392,2.437,2.437,0,0,0,.87.14,2.623,2.623,0,0,0,.451-0.038,1.383,1.383,0,0,0,.419-0.148,1.983,1.983,0,0,0,.408-0.3,3.385,3.385,0,0,0,.424-0.5l0.113,0.827h1.461ZM82.051,3.36V9.145h1.585V3.36H82.051Zm0-.682H82.91l1.681-1.246v-0.5H83.415L82.051,2.313V2.678Z"/>
  <path class="cls-1" d="M91,9V1l5,4Z"/>
</svg>
