<?xml version="1.0" encoding="utf-8"?>
<!-- Generator: Adobe Illustrator 19.2.1, SVG Export Plug-In . SVG Version: 6.00 Build 0)  -->
<svg version="1.1" id="Layer_1" xmlns="http://www.w3.org/2000/svg" xmlns:xlink="http://www.w3.org/1999/xlink" x="0px" y="0px"
	 viewBox="0 0 107 41" style="enable-background:new 0 0 107 41;" xml:space="preserve">
<style type="text/css">
	.st0{fill:#3D3D3D;}
</style>
<path id="Descubre_cómo_agregar_el_servicio_X1_DVR_" class="st0" d="M9,0.6v9.5h2.9c2.6,0,4.7-1.3,4.7-4.8c0-3.3-2.1-4.7-4.7-4.7
	C11.9,0.6,9,0.6,9,0.6z M10.1,1.5H12c2.5,0,3.4,1.9,3.4,3.7c0,2.1-0.9,3.9-3.4,3.9h-1.9C10.1,9.1,10.1,1.5,10.1,1.5z M23.8,6.8
	c0-0.3,0-0.5,0-0.7c0-1.8-1-3.1-2.7-3.1c-1.9,0-3.1,1.5-3.1,3.7c0,2,1,3.5,3.3,3.5c0.9,0,1.7-0.3,2.4-0.8l-0.4-0.8
	c-0.6,0.5-1.3,0.7-2,0.7c-1.7,0-2.1-1.2-2.1-2.4L23.8,6.8L23.8,6.8z M21.1,3.9c1,0,1.7,0.9,1.7,1.8c0,0.1,0,0.1,0,0.2h-3.6
	C19.4,4.7,20.1,3.9,21.1,3.9z M29.7,3.4c-0.6-0.2-1.3-0.4-2-0.4c-1.4,0-2.4,0.7-2.4,1.9c0.1,1,0.8,1.8,1.8,2c1,0.3,1.8,0.6,1.8,1.4
	S28,9.4,27.2,9.4c-0.6,0-1.2-0.2-1.8-0.5l-0.2,0.9c0.6,0.3,1.3,0.4,2,0.4c1.4,0,2.7-0.6,2.7-2.1c0-1-0.8-1.9-1.8-2
	c-1.1-0.3-1.8-0.5-1.8-1.3c0.1-0.6,0.6-1,1.2-1c0,0,0.1,0,0.1,0c0.6,0,1.2,0.2,1.8,0.4L29.7,3.4z M34.4,9.3c-1.7,0-2.1-1.3-2.1-2.6
	c0-1.6,0.6-2.7,2-2.7c0.6,0,1.2,0.2,1.7,0.5l0.3-0.9c-0.6-0.4-1.3-0.6-2-0.5c-2.1,0-3.1,1.5-3.1,3.6c0,2,1,3.5,3.1,3.5
	c0.7,0,1.4-0.2,2-0.5l-0.3-0.9C35.6,9.1,35,9.3,34.4,9.3L34.4,9.3z M43.4,10.1l-0.1-1.2V3.2h-1.1v4.4c0,0.9-0.7,1.7-1.6,1.7
	c0,0-0.1,0-0.1,0c-0.4,0-0.8-0.1-1.1-0.4c-0.2-0.3-0.4-0.6-0.3-1V3.2H38v4.5c-0.1,0.7,0.2,1.4,0.6,1.9c0.4,0.4,1,0.7,1.7,0.7
	c0.9,0.1,1.7-0.5,2.1-1.3l0.1,1.2L43.4,10.1L43.4,10.1z M45.6,0.2v9.9h0.9l0.1-1c0.4,0.7,1.3,1.1,2.1,1.1c2.2,0,2.7-2,2.7-3.6
	c0-1.9-0.8-3.5-2.8-3.5c-0.8,0-1.6,0.4-1.9,1.1v-4L45.6,0.2L45.6,0.2z M46.6,5.6c0-0.9,0.8-1.7,1.7-1.7c0,0,0.1,0,0.1,0
	c1.5,0,1.8,1.4,1.8,2.6S50,9.3,48.4,9.3c-0.9,0.1-1.7-0.6-1.8-1.5c0,0,0-0.1,0-0.1L46.6,5.6L46.6,5.6z M53,3.2l0.1,1.2v5.7h1.1V5.7
	c-0.1-0.7,0.5-1.4,1.2-1.5c0.1,0,0.2,0,0.3,0c0.2,0,0.5,0,0.7,0.1l0.1-1.1c-0.2-0.1-0.5-0.1-0.7-0.1c-0.7,0.1-1.4,0.6-1.7,1.3
	l-0.1-1.2L53,3.2L53,3.2z M63.2,6.8c0-0.3,0-0.5,0-0.7c0-1.8-1-3.1-2.7-3.1c-1.9,0-3.1,1.5-3.1,3.7c0,2,1,3.5,3.3,3.5
	c0.9,0,1.7-0.3,2.4-0.8l-0.4-0.8c-0.6,0.5-1.3,0.7-2,0.7c-1.7,0-2.1-1.2-2.1-2.4H63.2L63.2,6.8z M60.4,3.9c1,0,1.7,0.9,1.7,1.8
	c0,0.1,0,0.1,0,0.2h-3.6C58.7,4.7,59.4,3.9,60.4,3.9z M70.9,9.3c-1.7,0-2.1-1.3-2.1-2.6c0-1.6,0.6-2.7,2-2.7c0.6,0,1.2,0.2,1.7,0.5
	l0.3-0.9c-0.6-0.4-1.3-0.6-2-0.5c-2.1,0-3.1,1.5-3.1,3.6c0,2,1,3.5,3.1,3.5c0.7,0,1.4-0.2,2-0.5l-0.3-0.9
	C72.1,9.1,71.5,9.3,70.9,9.3z M77,4c1.5,0,1.9,1.3,1.9,2.6c0,1.5-0.5,2.6-1.9,2.6c-1.5,0-1.9-1.3-1.9-2.6C75,5.2,75.5,4,77,4z
	 M77,3.1c-1.9,0-3.1,1.6-3.1,3.5c0,2.1,1.2,3.6,3.1,3.6c1.9,0,3-1.6,3-3.6C80,4.5,78.9,3.1,77,3.1z M76.4,2H77l2.2-1.6V0H78
	l-1.6,1.6L76.4,2L76.4,2z M81.7,3.2l0.1,1.2v5.7h1.1V5.7c0-0.9,0.7-1.7,1.6-1.7c0,0,0.1,0,0.1,0c0.7-0.1,1.3,0.5,1.4,1.2
	c0,0.1,0,0.2,0,0.3v4.7h1.1V5.7c0-0.9,0.7-1.7,1.6-1.7c0,0,0.1,0,0.1,0c0.7-0.1,1.3,0.5,1.4,1.2c0,0.1,0,0.2,0,0.3v4.7H91V5.6
	c0.1-0.7-0.1-1.4-0.6-1.9c-0.4-0.4-1-0.7-1.6-0.6c-0.8,0-1.6,0.4-2,1.2c-0.3-0.8-1.2-1.3-2-1.2c-0.9,0-1.7,0.5-2,1.3l-0.1-1.2H81.7
	L81.7,3.2z M95.8,4c1.5,0,1.9,1.3,1.9,2.6c0,1.5-0.5,2.6-1.9,2.6c-1.5,0-1.9-1.3-1.9-2.6C93.9,5.2,94.4,4,95.8,4z M95.8,3.1
	c-1.9,0-3.1,1.6-3.1,3.5c0,2.1,1.2,3.6,3.1,3.6c1.9,0,3-1.6,3-3.6C98.8,4.5,97.7,3.1,95.8,3.1L95.8,3.1z M1,19.9
	c0.7-0.3,1.4-0.5,2.1-0.5c0.7-0.1,1.3,0.3,1.4,1c0,0.1,0,0.3,0,0.5v0.6c-3.3,0-4.3,0.9-4.3,2.3c0,1.1,0.8,1.9,1.8,2
	c0.1,0,0.2,0,0.3,0c0.9,0,1.8-0.4,2.2-1.2c0,0.4,0.1,0.7,0.3,1.1H6c-0.3-0.6-0.4-1.2-0.4-1.8v-2.8c0-1.8-0.9-2.5-2.5-2.5
	c-0.9,0-1.8,0.2-2.6,0.6L1,19.9z M4.5,22v0.8c0,1-0.7,1.8-1.7,1.8c-0.1,0-0.2,0-0.2,0c-0.6,0.1-1.1-0.3-1.3-0.9c0-0.1,0-0.2,0-0.3
	C1.3,22.9,1.6,22.2,4.5,22L4.5,22z M12.3,18.5l-0.1,1c-0.4-0.7-1.1-1.2-1.9-1.1c-2,0-2.8,1.6-2.8,3.5c0,1.6,0.6,3.6,2.7,3.6
	c0.8,0,1.6-0.4,2-1.1v1.1c0,1.7-0.8,2.1-1.7,2.1c-0.8,0-1.5-0.2-2.1-0.6l-0.3,0.9c0.7,0.4,1.6,0.6,2.4,0.6c1.4,0.2,2.7-0.9,2.8-2.3
	c0-0.2,0-0.4,0-0.6v-7.1H12.3z M12.1,23c0,0.9-0.7,1.7-1.7,1.7c0,0-0.1,0-0.1,0c-1.5,0-1.8-1.4-1.8-2.6s0.3-2.6,1.8-2.6
	c0.9-0.1,1.7,0.6,1.8,1.5c0,0,0,0.1,0,0.1L12.1,23L12.1,23z M15.2,18.5l0.1,1.2v5.7h1.1v-4.3c-0.1-0.7,0.5-1.4,1.2-1.5
	c0.1,0,0.2,0,0.3,0c0.2,0,0.5,0,0.7,0.1l0.1-1.1c-0.2-0.1-0.5-0.1-0.7-0.1c-0.7,0.1-1.4,0.6-1.7,1.3l-0.1-1.2L15.2,18.5L15.2,18.5z
	 M25.4,22.2c0-0.3,0-0.5,0-0.7c0-1.8-1-3.1-2.7-3.1c-1.9,0-3.1,1.5-3.1,3.7c0,2,1,3.5,3.3,3.5c0.9,0,1.7-0.3,2.4-0.8l-0.4-0.8
	c-0.6,0.5-1.3,0.7-2,0.7c-1.7,0-2.1-1.2-2.1-2.4C20.7,22.2,25.4,22.2,25.4,22.2z M22.6,19.3c1,0,1.7,0.9,1.7,1.8c0,0.1,0,0.1,0,0.2
	h-3.6C20.9,20.1,21.6,19.3,22.6,19.3z M31.7,18.5l-0.1,1c-0.4-0.7-1.1-1.2-1.9-1.1c-2,0-2.8,1.6-2.8,3.5c0,1.6,0.6,3.6,2.7,3.6
	c0.8,0,1.6-0.4,2-1.1v1.1c0,1.7-0.8,2.1-1.7,2.1c-0.8,0-1.5-0.2-2.1-0.6l-0.3,0.9c0.7,0.4,1.6,0.6,2.4,0.6c1.4,0.2,2.7-0.9,2.8-2.3
	c0-0.2,0-0.4,0-0.6v-7.1L31.7,18.5L31.7,18.5z M31.5,23c0,0.9-0.7,1.7-1.7,1.7c0,0-0.1,0-0.1,0c-1.5,0-1.8-1.4-1.8-2.6
	s0.3-2.6,1.8-2.6c0.9-0.1,1.7,0.6,1.8,1.5c0,0,0,0.1,0,0.1L31.5,23L31.5,23z M35.1,19.9c0.7-0.3,1.4-0.5,2.1-0.5
	c0.7-0.1,1.3,0.3,1.4,1c0,0.1,0,0.3,0,0.4v0.6c-3.3,0-4.3,0.9-4.3,2.3c0,1.1,0.8,1.9,1.8,2c0.1,0,0.2,0,0.3,0c0.9,0,1.8-0.4,2.2-1.2
	c0,0.4,0.1,0.7,0.3,1.1h1.1c-0.3-0.6-0.4-1.2-0.4-1.8v-2.8c0-1.8-0.9-2.5-2.5-2.5c-0.9,0-1.8,0.2-2.6,0.6L35.1,19.9z M38.6,22v0.8
	c0,1-0.7,1.8-1.7,1.8c-0.1,0-0.2,0-0.2,0c-0.6,0.1-1.1-0.3-1.3-0.9c0-0.1,0-0.2,0-0.3C35.4,22.9,35.7,22.2,38.6,22L38.6,22z
	 M41.7,18.5l0.1,1.2v5.7h1.1v-4.3c-0.1-0.7,0.5-1.4,1.2-1.5c0.1,0,0.2,0,0.3,0c0.2,0,0.5,0,0.7,0.1l0.1-1.1
	c-0.2-0.1-0.5-0.1-0.7-0.1c-0.7,0.1-1.4,0.6-1.7,1.3l-0.1-1.2L41.7,18.5L41.7,18.5z M55,22.2c0-0.3,0-0.5,0-0.7c0-1.8-1-3.1-2.7-3.1
	c-1.9,0-3.1,1.5-3.1,3.7c0,2,1,3.5,3.3,3.5c0.9,0,1.7-0.3,2.4-0.8l-0.4-0.8c-0.6,0.5-1.3,0.7-2,0.7c-1.7,0-2.1-1.2-2.1-2.4L55,22.2
	L55,22.2z M52.2,19.3c1,0,1.7,0.9,1.7,1.8c0,0.1,0,0.1,0,0.2h-3.6C50.5,20.1,51.2,19.3,52.2,19.3z M56.8,15.5v9.9h1.1v-9.9
	L56.8,15.5L56.8,15.5z M67.4,18.8c-0.6-0.2-1.3-0.4-2-0.4c-1.4,0-2.4,0.7-2.4,1.9c0.1,1,0.8,1.8,1.8,2c1,0.3,1.8,0.6,1.8,1.4
	s-0.8,1.1-1.6,1.1c-0.6,0-1.2-0.2-1.8-0.5l-0.2,0.9c0.6,0.3,1.3,0.4,2,0.4c1.4,0,2.7-0.6,2.7-2.1c0-1-0.8-1.9-1.8-2
	C64.7,21.2,64,21,64,20.2c0.1-0.6,0.6-1,1.2-1c0,0,0.1,0,0.1,0c0.6,0,1.2,0.2,1.8,0.4L67.4,18.8z M74.7,22.2c0-0.3,0-0.5,0-0.7
	c0-1.8-1-3.1-2.7-3.1c-1.9,0-3.1,1.5-3.1,3.7c0,2,1,3.5,3.3,3.5c0.9,0,1.7-0.3,2.4-0.8l-0.4-0.8c-0.6,0.5-1.3,0.7-2,0.7
	c-1.7,0-2.1-1.2-2.1-2.4L74.7,22.2L74.7,22.2z M72,19.3c1,0,1.7,0.9,1.7,1.8c0,0.1,0,0.1,0,0.2h-3.6C70.3,20.1,71,19.3,72,19.3z
	 M76.4,18.5l0.1,1.2v5.7h1.1v-4.3c-0.1-0.7,0.5-1.4,1.2-1.5c0.1,0,0.2,0,0.3,0c0.2,0,0.5,0,0.7,0.1l0.1-1.1
	c-0.2-0.1-0.5-0.1-0.7-0.1c-0.7,0.1-1.4,0.6-1.7,1.3l-0.1-1.2L76.4,18.5L76.4,18.5z M80.8,18.5l2.5,6.9h1.1l2.6-6.9h-1.2l-1.7,5
	l-0.2,0.6h-0.1l-0.1-0.6l-1.7-5L80.8,18.5L80.8,18.5z M88.3,18.5v6.9h1.1v-6.9L88.3,18.5L88.3,18.5z M88.2,15.5v1.2h1.2v-1.2
	L88.2,15.5L88.2,15.5z M94.3,24.6c-1.7,0-2.1-1.3-2.1-2.6c0-1.6,0.6-2.7,2-2.7c0.6,0,1.2,0.2,1.7,0.5l0.3-0.9
	c-0.6-0.4-1.3-0.6-2-0.5c-2.1,0-3.1,1.5-3.1,3.6c0,2,1,3.5,3.1,3.5c0.7,0,1.4-0.2,2-0.5L96,24.1C95.5,24.4,94.9,24.6,94.3,24.6z
	 M97.9,18.5v6.9H99v-6.9L97.9,18.5L97.9,18.5z M97.8,15.5v1.2h1.2v-1.2L97.8,15.5L97.8,15.5z M103.8,19.3c1.5,0,1.9,1.3,1.9,2.6
	c0,1.5-0.5,2.6-1.9,2.6c-1.5,0-1.9-1.3-1.9-2.6C101.9,20.5,102.4,19.3,103.8,19.3L103.8,19.3z M103.8,18.4c-1.9,0-3.1,1.6-3.1,3.5
	c0,2.1,1.2,3.6,3.1,3.6c1.9,0,3-1.6,3-3.6C106.9,19.9,105.7,18.4,103.8,18.4L103.8,18.4z M27.2,31.3l3,4.5l-3.1,5h1.3l2.5-4.2
	l2.4,4.2h1.5l-3.1-4.9l3.1-4.6h-1.3L31,35.1l-2.3-3.8H27.2z M39.2,40.8v-8.6l0.1-0.9h-1l-2.3,0.9v1.1l2-0.8h0l0,0.2v8.2H39.2
	L39.2,40.8z M46.6,31.3v9.5h2.9c2.6,0,4.7-1.3,4.7-4.8c0-3.3-2.1-4.7-4.7-4.7L46.6,31.3L46.6,31.3z M47.7,32.3h1.9
	c2.5,0,3.4,1.9,3.4,3.7c0,2.1-0.9,3.9-3.4,3.9h-1.9V32.3z M54.9,31.3l3.1,9.5h1.3l3.1-9.5h-1.3L59,38.7l-0.2,0.8h-0.1l-0.2-0.8
	l-2.2-7.4L54.9,31.3L54.9,31.3z M64,31.3v9.5h1.1v-4.1h2.4l2.5,4.1h1.3l-2.6-4.2c1.2-0.2,2.1-1.3,2-2.6c0-0.7-0.2-1.3-0.7-1.8
	c-0.6-0.6-1.5-0.9-2.4-0.8L64,31.3L64,31.3z M65.1,32.3h2.5c1-0.1,1.8,0.7,1.9,1.6c0.1,1-0.7,1.8-1.6,1.9c-0.1,0-0.2,0-0.3,0h-2.5
	L65.1,32.3L65.1,32.3z M75.7,35.1h0.6v-3l0-0.4h0.1l0.1,0.4l0.8,2.2h0.7l0.8-2.2l0.1-0.4h0.1l0,0.4v3h0.6v-3.8h-1l-0.9,2.4h-0.1
	l-0.9-2.4h-1L75.7,35.1L75.7,35.1z M73.1,35.1h0.6v-3.3h1.1v-0.5H72v0.5h1.1L73.1,35.1L73.1,35.1z"/>
</svg>
