<svg xmlns="http://www.w3.org/2000/svg" width="107" height="38" viewBox="0 0 107 38">
  <defs>
    <style>
      .cls-1 {
        fill: #1899e5;
        fill-rule: evenodd;
      }
    </style>
  </defs>
  <path id="KIDS" class="cls-1" d="M0.995,37.074H12.541V25.885l7.59,11.189H33.869l-13.2-19.662L33.228,0.845H19.276L12.541,9.21V0.845H1V37.074Zm34.21,0h12.08V0.844H35.205V37.074Zm25.978,0a31.429,31.429,0,0,0,8.954-1.168,18.114,18.114,0,0,0,6.628-3.449A14.741,14.741,0,0,0,80.88,26.78,20.259,20.259,0,0,0,82.3,18.931a20.266,20.266,0,0,0-1.416-7.849,14.747,14.747,0,0,0-4.116-5.676,17.81,17.81,0,0,0-6.628-3.422A32.148,32.148,0,0,0,61.183.844H51.294V37.073h9.889Zm1.5-25.909a9.175,9.175,0,0,1,6.2,1.9q2.191,1.9,2.192,5.866T68.88,24.825a9.085,9.085,0,0,1-6.2,1.928V11.164Zm21.06,25.528a25.482,25.482,0,0,0,2.833.652q1.335,0.271,3.073.462a34.8,34.8,0,0,0,3.769.19,17.03,17.03,0,0,0,5.826-.9,11.1,11.1,0,0,0,4.036-2.444,9.564,9.564,0,0,0,2.325-3.639,13.218,13.218,0,0,0,.748-4.481,11.263,11.263,0,0,0-.721-4.128,15.307,15.307,0,0,0-1.764-3.313,16.139,16.139,0,0,0-2.3-2.607q-1.256-1.141-2.3-2.01T97.5,12.956a1.745,1.745,0,0,1-.722-1.086,0.943,0.943,0,0,1,.321-0.76,1.849,1.849,0,0,1,.748-0.38,4.834,4.834,0,0,1,.909-0.136q0.481-.027.8-0.027,0.588,0,1.122.054t0.963,0.109q0.532,0.055.962,0.109V0.681q-1.122-.163-2.3-0.326l-2.3-.244a24.512,24.512,0,0,0-2.566-.136,15.375,15.375,0,0,0-4.624.679,11.241,11.241,0,0,0-3.769,1.983A9.042,9.042,0,0,0,84.542,5.9a10.58,10.58,0,0,0-.909,4.508,10.274,10.274,0,0,0,.748,4.047,13.065,13.065,0,0,0,1.9,3.178,17.867,17.867,0,0,0,2.459,2.5q1.309,1.087,2.459,1.982a22.74,22.74,0,0,1,1.9,1.63,2.079,2.079,0,0,1,.748,1.439q0,1.847-2.459,1.847a23.171,23.171,0,0,1-2.753-.163,19.088,19.088,0,0,1-2.432-.434,17.323,17.323,0,0,1-2.459-.6V36.693Z"/>
</svg>
