<svg xmlns="http://www.w3.org/2000/svg" width="109" height="75" viewBox="0 0 109 75">
  <defs>
    <style>
      .cls-1 {
        fill: #fff;
      }

      .cls-2 {
        fill: #3d3d3d;
        fill-rule: evenodd;
      }
    </style>
  </defs>
  <rect id="line_copy_2" data-name="line copy 2" class="cls-1" y="74" width="109" height="1"/>
  <path id="al_mes_por_1_año" data-name="al mes por 1 año" class="cls-2" d="M74.335,57.09a2.634,2.634,0,0,1,1.129-.287,0.58,0.58,0,0,1,.7.659v0.243c-1.806.029-2.352,0.516-2.352,1.268a1.048,1.048,0,0,0,1.18,1.081,1.38,1.38,0,0,0,1.216-.63,1.427,1.427,0,0,0,.153.551h0.823a1.98,1.98,0,0,1-.2-0.96V57.505a1.232,1.232,0,0,0-1.486-1.332,2.719,2.719,0,0,0-1.486.372Zm1.828,1.074v0.423a0.849,0.849,0,0,1-.932.867,0.517,0.517,0,0,1-.612-0.551C74.619,58.594,74.765,58.257,76.163,58.164Zm2.123-3.459v5.271h0.808V54.705H78.286Zm3.936,1.547,0.073,0.673v3.051H83.1v-2.37a0.75,0.75,0,0,1,.772-0.766,0.606,0.606,0,0,1,.656.666v2.471h0.816v-2.37a0.752,0.752,0,0,1,.779-0.766,0.61,0.61,0,0,1,.655.666v2.471H87.6V57.613a1.486,1.486,0,0,0-.335-1.089,1.167,1.167,0,0,0-.888-0.351,1.22,1.22,0,0,0-1.107.63,1.132,1.132,0,0,0-1.122-.63,1.2,1.2,0,0,0-1.1.673l-0.073-.594h-0.75Zm9.743,2.041c0.022-.222.029-0.372,0.029-0.458a1.523,1.523,0,0,0-1.588-1.662,1.81,1.81,0,0,0-1.777,2.012A1.707,1.707,0,0,0,90.5,60.055a2.358,2.358,0,0,0,1.413-.43l-0.248-.566a2.108,2.108,0,0,1-1.158.365,1.033,1.033,0,0,1-1.056-1.132h2.513ZM90.4,56.775a0.849,0.849,0,0,1,.816,1H89.467A0.977,0.977,0,0,1,90.4,56.775Zm5.123-.408a3.282,3.282,0,0,0-1.165-.208,1.206,1.206,0,0,0-1.449,1.1,1.223,1.223,0,0,0,1.049,1.1c0.561,0.165.918,0.279,0.918,0.645a0.63,0.63,0,0,1-.772.48A2.443,2.443,0,0,1,93,59.2l-0.117.652A2.96,2.96,0,0,0,94.1,60.1a1.339,1.339,0,0,0,1.588-1.189,1.207,1.207,0,0,0-1.1-1.117c-0.539-.143-0.881-0.251-0.881-0.6a0.505,0.505,0,0,1,.626-0.422,2.749,2.749,0,0,1,1.063.244Zm-21.5,7.053,0.073,0.673V68.72H74.9V66.693a1.185,1.185,0,0,0,1.071.53c1.158,0,1.507-1.081,1.507-1.962a1.646,1.646,0,0,0-1.551-1.919,1.21,1.21,0,0,0-1.085.616l-0.073-.537h-0.75ZM74.9,64.781a0.79,0.79,0,0,1,.859-0.774c0.757,0,.867.652,0.867,1.275,0,0.659-.117,1.275-0.9,1.275A0.787,0.787,0,0,1,74.9,65.8V64.781Zm5.189-.774A1.012,1.012,0,0,1,81,65.268c0,0.7-.2,1.289-0.91,1.289a1.034,1.034,0,0,1-.91-1.289C79.182,64.573,79.386,64.007,80.092,64.007Zm0.007-.666a1.951,1.951,0,1,0,1.748,1.927A1.744,1.744,0,0,0,80.1,63.341Zm2.778,0.079,0.073,0.666v3.058h0.808V64.867a0.641,0.641,0,0,1,.721-0.673,1.858,1.858,0,0,1,.415.043l0.095-.8A1.08,1.08,0,0,0,84.6,63.37a1.15,1.15,0,0,0-.918.666l-0.073-.616H82.878Zm7.01,3.724V62.8l0.058-.508H89.211l-1.274.465v0.738l1.092-.451H89.05l-0.022.15v3.953h0.859Zm4.339-2.886a2.634,2.634,0,0,1,1.129-.287,0.58,0.58,0,0,1,.7.659v0.243c-1.806.029-2.352,0.516-2.352,1.268a1.048,1.048,0,0,0,1.18,1.081,1.38,1.38,0,0,0,1.216-.63,1.427,1.427,0,0,0,.153.551h0.823a1.98,1.98,0,0,1-.2-0.96V64.673a1.232,1.232,0,0,0-1.486-1.332,2.718,2.718,0,0,0-1.486.372Zm1.828,1.074v0.423a0.849,0.849,0,0,1-.932.867,0.517,0.517,0,0,1-.612-0.551C94.51,65.762,94.656,65.425,96.054,65.332ZM98.1,63.42l0.073,0.673v3.051h0.808V64.773a0.768,0.768,0,0,1,.808-0.766,0.727,0.727,0,0,1,.568.2,0.651,0.651,0,0,1,.16.466v2.471h0.809V64.781a1.454,1.454,0,0,0-.343-1.089,1.254,1.254,0,0,0-.932-0.351,1.188,1.188,0,0,0-1.129.673l-0.073-.595H98.1Zm2.04-.5a0.854,0.854,0,0,0,.611-0.315l0.263-.272-0.379-.279-0.2.2a0.337,0.337,0,0,1-.226.122A0.38,0.38,0,0,1,100,62.253l-0.124-.107a0.778,0.778,0,0,0-.561-0.272,0.882,0.882,0,0,0-.619.322l-0.262.272,0.379,0.272,0.2-.193a0.289,0.289,0,0,1,.226-0.122,0.379,0.379,0,0,1,.219.122l0.124,0.1A0.731,0.731,0,0,0,100.144,62.919Zm3.98,1.089a1.012,1.012,0,0,1,.91,1.261c0,0.7-.2,1.289-0.91,1.289a1.034,1.034,0,0,1-.911-1.289C103.213,64.573,103.417,64.007,104.124,64.007Zm0.007-.666a1.951,1.951,0,1,0,1.748,1.927A1.744,1.744,0,0,0,104.131,63.341Z"/>
  <path id="_6999" data-name="$6999" class="cls-2" d="M15.685,33.824a11.525,11.525,0,0,0-2.722-.548v-1.8h-1.6v1.856c-1.893.248-3.172,1.237-3.172,2.987,0,2.227,2.055,2.793,3.407,3.111,1.334,0.318,2.578.619,2.578,1.626,0,1.025-1.19,1.378-2.4,1.378a7.619,7.619,0,0,1-3.335-.778L8.06,43.386a8.443,8.443,0,0,0,3.3.672v2.315h1.6V43.951c2.109-.336,3.316-1.5,3.316-3.164,0-2-1.748-2.616-3.713-3.111-1.262-.336-2.307-0.583-2.307-1.538,0-.937.973-1.273,2.019-1.273a8.047,8.047,0,0,1,3.064.654Zm16.1,34.593c7.285,0,12.748-4.286,12.748-11.99,0-7.092-4.787-11.02-11.031-11.02a10.549,10.549,0,0,0-8.533,3.929c0.989-8.214,4.787-12.092,11.655-12.092A37.292,37.292,0,0,1,41,37.5l-0.156-5a15.838,15.838,0,0,0-4.163-.408c-5.463,0-9.314,1.582-11.968,4.286-4.267,4.133-5.724,10.867-5.724,16.888,0,6.173,1.561,10,4.111,12.3A12.964,12.964,0,0,0,31.786,68.417Zm0.208-4.9c-4.475,0-6.92-3.265-6.92-7.041a6.737,6.737,0,0,1,.78-3.367c1.093-1.837,3.174-2.857,5.984-2.857,4.111,0,6.608,2.245,6.608,6.531C38.446,61.223,35.844,63.519,31.994,63.519ZM58.268,32.5c-7.285,0-12.8,4.286-12.8,11.99,0,7.143,4.839,11.072,11.083,11.072a10.7,10.7,0,0,0,8.533-3.929C64.1,59.795,60.3,63.672,53.429,63.672a38.966,38.966,0,0,1-4.423-.255l0.208,5a15.842,15.842,0,0,0,4.163.408c5.411,0,9.262-1.633,11.967-4.286,4.215-4.184,5.672-10.816,5.672-16.888,0-6.173-1.509-10-4.059-12.245A12.824,12.824,0,0,0,58.268,32.5Zm-0.26,4.949c4.527,0,6.972,3.214,6.972,7.041a6.883,6.883,0,0,1-.833,3.367c-1.093,1.837-3.122,2.857-5.932,2.857-4.111,0-6.608-2.245-6.608-6.582C51.608,39.744,54.209,37.448,58.008,37.448Zm21.034-4.37c-3.642,0-6.4,2.143-6.4,5.995a5.206,5.206,0,0,0,5.541,5.536,5.351,5.351,0,0,0,4.267-1.964c-0.494,4.082-2.394,6.02-5.828,6.02a19.457,19.457,0,0,1-2.211-.128l0.1,2.5a7.924,7.924,0,0,0,2.081.2A8.149,8.149,0,0,0,82.58,49.1c2.107-2.092,2.836-5.408,2.836-8.444,0-3.087-.754-5-2.029-6.122A6.412,6.412,0,0,0,79.042,33.077Zm-0.13,2.474a3.321,3.321,0,0,1,3.486,3.52,3.442,3.442,0,0,1-.416,1.684,3.216,3.216,0,0,1-2.966,1.429,2.987,2.987,0,0,1-3.3-3.291A3.009,3.009,0,0,1,78.912,35.552ZM94.1,33.077c-3.642,0-6.4,2.143-6.4,5.995a5.206,5.206,0,0,0,5.541,5.536,5.351,5.351,0,0,0,4.267-1.964c-0.494,4.082-2.394,6.02-5.828,6.02a19.459,19.459,0,0,1-2.211-.128l0.1,2.5a7.923,7.923,0,0,0,2.081.2A8.148,8.148,0,0,0,97.642,49.1c2.107-2.092,2.836-5.408,2.836-8.444,0-3.087-.754-5-2.029-6.122A6.412,6.412,0,0,0,94.1,33.077Zm-0.13,2.474a3.321,3.321,0,0,1,3.486,3.52,3.443,3.443,0,0,1-.416,1.684,3.217,3.217,0,0,1-2.966,1.429,2.987,2.987,0,0,1-3.3-3.291A3.009,3.009,0,0,1,93.974,35.552Z"/>
  <path id="XFINITY_X1_Paquete_Doble_Latino_" data-name="XFINITY X1 Paquete Doble Latino " class="cls-2" d="M25.125,7.375L27.6,11.05,25.06,14.961h1.89l1.631-2.8,1.556,2.8h2.009l-2.549-3.9,2.5-3.686h-1.88l-1.6,2.547L27.091,7.375H25.125Zm8.149,0v7.587h1.642v-3.2h2.927V10.416H34.915V8.7H38.34V7.375H33.273Zm6.409,0v7.587h1.642V7.375H39.683Zm3.675,7.587h1.61V11.49l-0.13-1.87h0.108l0.648,1.408,2.171,3.933h1.966V7.375H48.121v3.471l0.119,1.87H48.132l-0.648-1.408L45.366,7.375H43.357v7.587Zm8.409-7.587v7.587h1.642V7.375H51.766Zm2.832,0V8.7h2.063v6.265H58.3V8.7h2.063V7.375H54.6Zm6.107,0,2.69,4.965v2.622h1.642V12.339l2.711-4.965H65.89l-1.62,3.417-1.62-3.417H60.7Zm9.943,0,2.474,3.675-2.539,3.912h1.89l1.631-2.8,1.555,2.8h2.009l-2.549-3.9,2.5-3.686h-1.88l-1.6,2.547L72.614,7.375H70.648Zm11.7,7.587,0.011-6.63,0.076-.784h-1.4l-1.944.709V9.621l1.62-.688h0.043l-0.032.279v5.749h1.631ZM1.325,19.022v7.586H2.6V23.654H4.177a2.808,2.808,0,0,0,2.063-.613,2.314,2.314,0,0,0,.637-1.719,2.256,2.256,0,0,0-.529-1.58,2.753,2.753,0,0,0-2.171-.72H1.325ZM2.6,20.065H4.274A1.31,1.31,0,0,1,5.3,20.43a1.27,1.27,0,0,1,.292.87,1.363,1.363,0,0,1-.324,1,1.392,1.392,0,0,1-.994.312H2.6V20.065Zm5.794,2.214a3.872,3.872,0,0,1,1.674-.43,0.865,0.865,0,0,1,1.037.989V23.2c-2.679.043-3.489,0.774-3.489,1.9a1.562,1.562,0,0,0,1.75,1.623,2.04,2.04,0,0,0,1.8-.946,2.16,2.16,0,0,0,.227.827h1.221a3,3,0,0,1-.3-1.44V22.9c0-1.451-.789-2-2.2-2a4,4,0,0,0-2.2.559ZM11.1,23.89v0.634a1.266,1.266,0,0,1-1.383,1.3A0.77,0.77,0,0,1,8.815,25C8.815,24.535,9.031,24.03,11.1,23.89Zm6.636-2.869-0.108.763a1.772,1.772,0,0,0-1.61-.881c-1.61,0-2.3,1.354-2.3,2.88,0,1.322.518,2.944,2.236,2.944a1.777,1.777,0,0,0,1.588-.827v3.073h1.2V21.021h-1Zm-0.195,3.568a1.173,1.173,0,0,1-1.221,1.139c-1.167,0-1.339-.924-1.339-1.913,0-.935.162-1.913,1.286-1.913a1.178,1.178,0,0,1,1.275,1.16v1.526Zm7.738,2.02L25.176,25.6V21.021h-1.2v3.568a1.152,1.152,0,0,1-1.21,1.139,1.062,1.062,0,0,1-.832-0.3,0.986,0.986,0,0,1-.248-0.688V21.021h-1.2v3.546A2.243,2.243,0,0,0,21,26.2a1.893,1.893,0,0,0,1.393.526,1.768,1.768,0,0,0,1.674-1.01l0.108,0.892h1.113ZM31.6,24.084c0.032-.333.043-0.559,0.043-0.688A2.274,2.274,0,0,0,29.284,20.9c-1.631,0-2.636,1.29-2.636,3.02a2.547,2.547,0,0,0,2.776,2.8,3.47,3.47,0,0,0,2.1-.645l-0.367-.849a3.1,3.1,0,0,1-1.718.548,1.542,1.542,0,0,1-1.566-1.7H31.6Zm-2.323-2.278a1.27,1.27,0,0,1,1.21,1.494H27.891A1.458,1.458,0,0,1,29.273,21.806Zm4.259-2.267-0.14,1.483H32.485v0.913h0.907v3.428a1.285,1.285,0,0,0,1.426,1.354,2.451,2.451,0,0,0,1.015-.129l0.076-.9H35.066a0.465,0.465,0,0,1-.475-0.537V21.935h1.275V21.021H34.591V19.538H33.533Zm8.19,4.546c0.032-.333.043-0.559,0.043-0.688A2.274,2.274,0,0,0,39.411,20.9c-1.631,0-2.636,1.29-2.636,3.02a2.548,2.548,0,0,0,2.776,2.8,3.47,3.47,0,0,0,2.1-.645l-0.367-.849a3.1,3.1,0,0,1-1.718.548A1.542,1.542,0,0,1,38,24.084h3.727ZM39.4,21.806A1.27,1.27,0,0,1,40.61,23.3H38.018A1.458,1.458,0,0,1,39.4,21.806Zm6.594-2.783v7.586h2.56a3.493,3.493,0,0,0,3.824-3.847,3.479,3.479,0,0,0-3.824-3.739h-2.56Zm1.275,1.042H48.49a2.432,2.432,0,0,1,2.56,2.7c0,1.515-.7,2.8-2.56,2.8H47.269v-5.5ZM56.174,21.9c1.091,0,1.35.935,1.35,1.891,0,1.053-.292,1.934-1.35,1.934-1.1,0-1.35-.978-1.35-1.934C54.824,22.751,55.127,21.9,56.174,21.9Zm0.011-1a2.605,2.605,0,0,0-2.614,2.891c0,1.795,1.015,2.934,2.614,2.934a2.631,2.631,0,0,0,2.593-2.934C58.767,22.031,57.762,20.9,56.185,20.9Zm4.065-2.2v7.909h1l0.108-.741a1.845,1.845,0,0,0,1.674.86c1.739,0,2.236-1.623,2.236-2.923,0-1.558-.691-2.9-2.3-2.9a1.677,1.677,0,0,0-1.523.87V18.7h-1.2Zm1.2,4.363a1.184,1.184,0,0,1,1.275-1.16c1.123,0,1.285.978,1.285,1.891,0,0.946-.162,1.934-1.285,1.934a1.169,1.169,0,0,1-1.275-1.139V23.063Zm5.3-4.363v7.909h1.2V18.7h-1.2Zm7.617,5.384c0.032-.333.043-0.559,0.043-0.688A2.274,2.274,0,0,0,72.051,20.9c-1.631,0-2.636,1.29-2.636,3.02a2.548,2.548,0,0,0,2.776,2.8,3.47,3.47,0,0,0,2.1-.645l-0.367-.849a3.1,3.1,0,0,1-1.718.548,1.542,1.542,0,0,1-1.566-1.7h3.727ZM72.04,21.806A1.27,1.27,0,0,1,73.25,23.3H70.658A1.458,1.458,0,0,1,72.04,21.806Zm6.594-2.783v7.586h4.591V25.567H79.909V19.022H78.634Zm5.977,3.256a3.872,3.872,0,0,1,1.674-.43,0.865,0.865,0,0,1,1.037.989V23.2c-2.679.043-3.489,0.774-3.489,1.9a1.562,1.562,0,0,0,1.75,1.623,2.04,2.04,0,0,0,1.8-.946,2.16,2.16,0,0,0,.227.827h1.221a3,3,0,0,1-.3-1.44V22.9c0-1.451-.789-2-2.2-2a4,4,0,0,0-2.2.559Zm2.711,1.612v0.634a1.266,1.266,0,0,1-1.383,1.3A0.77,0.77,0,0,1,85.032,25C85.032,24.535,85.249,24.03,87.323,23.89Zm3.287-4.352-0.14,1.483H89.562v0.913h0.907v3.428A1.285,1.285,0,0,0,91.9,26.716a2.451,2.451,0,0,0,1.015-.129l0.076-.9H92.144a0.465,0.465,0,0,1-.475-0.537V21.935h1.275V21.021H91.668V19.538H90.61Zm3.7,1.483v5.588h1.2V21.021h-1.2ZM94.252,18.7v1.128h1.307V18.7H94.252Zm2.983,2.321,0.108,1.01v4.578h1.2V23.052a1.145,1.145,0,0,1,1.2-1.15,1.072,1.072,0,0,1,.843.3,0.988,0.988,0,0,1,.237.7v3.707h1.2V23.063a2.2,2.2,0,0,0-.507-1.633,1.851,1.851,0,0,0-1.383-.527,1.759,1.759,0,0,0-1.674,1.01l-0.108-.892H97.235ZM106,21.9c1.091,0,1.35.935,1.35,1.891,0,1.053-.291,1.934-1.35,1.934-1.1,0-1.35-.978-1.35-1.934C104.649,22.751,104.951,21.9,106,21.9Zm0.011-1a2.605,2.605,0,0,0-2.614,2.891c0,1.795,1.015,2.934,2.614,2.934a2.63,2.63,0,0,0,2.592-2.934C108.592,22.031,107.587,20.9,106.01,20.9Z"/>
  <rect id="line" class="cls-1" width="109" height="1"/>
</svg>
