<svg xmlns="http://www.w3.org/2000/svg" width="113" height="23" viewBox="0 0 113 23">
  <defs>
    <style>
      .cls-1 {
        fill: #fff;
        fill-rule: evenodd;
      }
    </style>
  </defs>
  <path id="tienen_el" data-name="tienen el" class="cls-1" d="M3.6,2.782L3.3,6.893H0.779V8.754H3.3V19.047a3.344,3.344,0,0,0,3.541,3.511,6.159,6.159,0,0,0,2.521-.3l0.15-1.86H7.2a1.46,1.46,0,0,1-1.5-1.741v-9.9H9.362V6.893H5.7V2.782H3.6ZM13.26,6.893V22.318h2.4V6.893h-2.4ZM13.08,0.231V2.962H15.84V0.231H13.08ZM32.853,15.056c0.06-.69.09-1.05,0.09-1.53,0-3.961-2.131-6.872-6.092-6.872-4.291,0-6.9,3.451-6.9,8.192,0,4.381,2.251,7.712,7.262,7.712a8.339,8.339,0,0,0,5.372-1.8l-0.96-1.891a7.135,7.135,0,0,1-4.411,1.62c-3.721,0-4.711-2.761-4.771-5.432H32.853ZM26.761,8.634c2.431,0,3.751,1.981,3.751,4.561H22.53C22.92,10.314,24.51,8.634,26.761,8.634Zm10.2-1.741,0.3,2.7V22.318h2.4V12.5a3.646,3.646,0,0,1,3.811-3.781,3.311,3.311,0,0,1,2.521.9,3.257,3.257,0,0,1,.78,2.281V22.318h2.4V12.325a5.78,5.78,0,0,0-1.35-4.2,4.96,4.96,0,0,0-3.691-1.47A4.669,4.669,0,0,0,39.51,9.594l-0.3-2.7H36.959Zm29.133,8.162c0.06-.69.09-1.05,0.09-1.53,0-3.961-2.131-6.872-6.092-6.872-4.291,0-6.9,3.451-6.9,8.192,0,4.381,2.251,7.712,7.262,7.712a8.338,8.338,0,0,0,5.371-1.8l-0.96-1.891a7.136,7.136,0,0,1-4.411,1.62c-3.721,0-4.711-2.761-4.772-5.432H66.092ZM60,8.634c2.431,0,3.751,1.981,3.751,4.561H55.769C56.16,10.314,57.75,8.634,60,8.634ZM70.2,6.893l0.3,2.7V22.318h2.4V12.5a3.646,3.646,0,0,1,3.811-3.781,3.312,3.312,0,0,1,2.521.9,3.257,3.257,0,0,1,.78,2.281V22.318h2.4V12.325a5.78,5.78,0,0,0-1.35-4.2,4.961,4.961,0,0,0-3.691-1.47,4.669,4.669,0,0,0-4.621,2.941l-0.3-2.7H70.2Zm36,8.162c0.06-.69.09-1.05,0.09-1.53,0-3.961-2.131-6.872-6.092-6.872-4.291,0-6.9,3.451-6.9,8.192,0,4.381,2.251,7.712,7.262,7.712a8.34,8.34,0,0,0,5.372-1.8l-0.961-1.891a7.135,7.135,0,0,1-4.411,1.62c-3.721,0-4.711-2.761-4.771-5.432H106.2ZM100.11,8.634c2.431,0,3.751,1.981,3.751,4.561H95.879C96.269,10.314,97.859,8.634,100.11,8.634Zm10.5-8.4V22.318h2.4V0.231h-2.4Z"/>
</svg>
