<?xml version="1.0" encoding="utf-8"?>
<!-- Generator: Adobe Illustrator 19.2.1, SVG Export Plug-In . SVG Version: 6.00 Build 0)  -->
<svg version="1.1" id="Layer_1" xmlns="http://www.w3.org/2000/svg" xmlns:xlink="http://www.w3.org/1999/xlink" x="0px" y="0px"
	 viewBox="0 0 233.1 157" style="enable-background:new 0 0 233.1 157;" xml:space="preserve">
<style type="text/css">
	.st0{display:none;}
	.st1{fill:#010101;}
	.st2{fill:url(#SVGID_1_);}
	.st3{fill:url(#SVGID_2_);}
	.st4{fill:#C1282D;}
	.st5{fill:url(#SVGID_3_);}
	.st6{fill:url(#SVGID_4_);}
	.st7{fill:none;}
</style>
<path class="st0" d="M257.6-8.2c-33,0-251.5,0.1-284.9,0.1C-43.8-8.1-44-4.5-44,8.1c0,11.5,0.1,109,0.1,124.4c0,11.1-0.4,16,17.4,16
	c29.5,0,250.3-0.1,285.1-0.1c16,0,16.7-3.3,16.7-16.5c0-18.6,0-109.6,0-123.5C275.2-3.7,275.1-8.2,257.6-8.2z"/>
<g>
	<path class="st1" d="M108.6,131.9l0,6.4l-31,12.8c0,0-0.8-0.4-1.2-0.1c-0.4,0.3-0.4,0.3-0.4,0.3l-0.9,0.9c0,0-0.5,1-0.6,2.2
		l9.2,2.4l2.3-0.5l0-0.2l31.5-7.9l33.2,6.5l0,0.2l2.5,0.4l7.8-2.6c0,0,0.4-0.1,0.2-0.5c-0.2-0.4-0.7-1.7-0.7-1.7s0-0.3-1.3-1.3
		c0,0-0.4-0.4-1.4,0.1l-31.3-10.9l-0.1-6.7L108.6,131.9z"/>
	<linearGradient id="SVGID_1_" gradientUnits="userSpaceOnUse" x1="114.6127" y1="172.256" x2="96.3252" y2="139.6953">
		<stop  offset="0" style="stop-color:#FFFFFF"/>
		<stop  offset="1.387948e-02" style="stop-color:#F0EFEF"/>
		<stop  offset="0.167" style="stop-color:#9F9C9C"/>
		<stop  offset="0.3199" style="stop-color:#686565"/>
		<stop  offset="0.4692" style="stop-color:#444241"/>
		<stop  offset="0.6141" style="stop-color:#2B2929"/>
		<stop  offset="0.7534" style="stop-color:#171716"/>
		<stop  offset="0.8848" style="stop-color:#070707"/>
		<stop  offset="1" style="stop-color:#010101"/>
	</linearGradient>
	<polygon class="st2" points="117.1,141.8 85.7,153.6 86,156.2 117.5,148.3 	"/>
	
		<linearGradient id="SVGID_2_" gradientUnits="userSpaceOnUse" x1="-10693.5322" y1="174.1653" x2="-10713.6465" y2="138.3529" gradientTransform="matrix(-1 0 0 1 -10574.124 0)">
		<stop  offset="0" style="stop-color:#FFFFFF"/>
		<stop  offset="0.3117" style="stop-color:#8C8989"/>
		<stop  offset="0.6454" style="stop-color:#413F3E"/>
		<stop  offset="0.8832" style="stop-color:#181717"/>
		<stop  offset="1" style="stop-color:#010101"/>
	</linearGradient>
	<polygon class="st3" points="117.1,141.8 150.7,153.3 150.7,154.9 117.2,148.4 	"/>
</g>
<path class="st4" d="M231.8,115.2c0,12.5-7.5,18.4-23.3,18.4c-24.4,0-165.3,0-185.3,0c-15.7,0-20-5.9-20-18.4
	C3.3,103.9,0,38.9,0,30.8c0-12.5,7.6-15.2,23.3-16.5C47,12.4,188,3.8,211.8,3.3c14.4-0.3,20,15,20,27.5
	C231.8,39.9,231.8,102.7,231.8,115.2z"/>
<linearGradient id="SVGID_3_" gradientUnits="userSpaceOnUse" x1="119.9653" y1="-7.3334" x2="112.473" y2="135.0204">
	<stop  offset="0" style="stop-color:#F26923"/>
	<stop  offset="1" style="stop-color:#DF2726"/>
</linearGradient>
<path class="st5" d="M231.8,111.9c0,12.5-7.5,18.4-23.3,18.4c-23.1,0-165.3,0-185.3,0c-15.7,0-20-5.9-20-18.4
	C3.3,100.8,0,35.4,0,27.5C0,15,5,12.3,20.6,11c22.5-1.9,173-11,197-11c15.7,0,15.4,8,15.4,20.7C233.1,30.3,231.8,99.5,231.8,111.9z"
	/>
<path class="st1" d="M24.3,130c-10.3,0-19.7-2.3-19.7-15.4c0-10.8,0-75.5,0-83.3c0-10.9,4-14.9,18-15.4
	c22.1-0.7,166.3-5.9,188.9-5.9c14.5,0,15.8,10.3,15.8,21.4c0,8.8,0,71,0,83c0,10.1-5.5,15.5-19.5,15.5C184.6,130,44.3,130,24.3,130z
	"/>
<linearGradient id="SVGID_4_" gradientUnits="userSpaceOnUse" x1="115.9333" y1="19.243" x2="115.9333" y2="116.1118">
	<stop  offset="0" style="stop-color:#151716"/>
	<stop  offset="1" style="stop-color:#5C5D5C"/>
</linearGradient>
<path class="st6" d="M24.7,128.6c-9.7,0-18.3-1.9-18.3-14.2c0-10.8,0-75.1,0-82.8c0-9.9,4.9-14,18.1-14.2
	c21.7-0.4,163.7-3.3,185.3-3.3c13.7,0,15.7,7.5,15.7,17.6c0,9.4,0,70.6,0,82.5c0,10.2-5.3,14.3-18.1,14.3
	C184.4,128.6,44.1,128.6,24.7,128.6z"/>
<path class="st7" d="M211.6,124.2c-22.7,0-171.7,0.1-190.9,0.1c-9,0-8.7-3.2-8.7-10.5c0-10.1,0-73.9,0-81.4c0-8.2-0.3-10.6,8.3-10.6
	c21.7,0,169.3-0.1,190.7-0.1c9.1,0,8.8,3,8.8,10.8c0,9.1,0,68.7,0,80.8C219.9,122,220.1,124.2,211.6,124.2z"/>
</svg>
