<svg xmlns="http://www.w3.org/2000/svg" viewBox="0 0 610.23 159"><defs><style>.a{fill:#fff;}</style></defs><title>blm_logo</title><path class="a" d="M143,134h-9.75V22.76H143V58.29c3-3,5.25-4.5,8.85-4.5,9.45,0,12.44,8.4,12.44,17.69v45c0,11.55-3.3,18.59-10.2,18.59-3.45,0-6.3-1.65-11.1-6.3Zm7-70.92c-2.25,0-4.5,1.95-7,6.45v49.93c2.7,3.9,4.8,6,7.2,6,3.3,0,4.35-3.15,4.35-7.5V71.34C154.58,65.34,152.48,63.09,150.08,63.09Z"/><path class="a" d="M175.57,110.77V77.93c0-14.69,2.7-25,15-25s14.84,9.9,14.84,25v32.84c0,15.29-2.55,24.59-15,24.59S175.57,125.46,175.57,110.77Zm20.09,6.9V70.74c0-5.85-1.65-9.15-5.1-9.15s-5.25,3.15-5.25,9v46.78c0,6.3,1.8,9.6,5.25,9.6S195.66,123.81,195.66,117.67Z"/><path class="a" d="M226.25,134H216.5V54.39h9.75v5.55c3.15-4.2,5.55-6.15,9.9-6.15,8.7,0,10.2,7.35,10.2,17.09V134H236.6V70.74c0-5.25-.9-7.5-3.45-7.5-1.95,0-3.75,1.5-6.9,4.65Z"/><path class="a" d="M267.18,96.68v20.54c0,6.15,1,9.75,4.8,9.75,4.2,0,5.4-3.45,5.4-11.1v-9.45h9.75v6.45c0,13.94-3.6,22.64-15.14,22.64-12.29,0-14.69-10-14.69-24.74V77.93c0-14.69,2.4-24.89,15-24.89,10.65,0,14.84,8.4,14.84,20.54V96.68Zm0-9.15h10.35V72.39c0-7.5-1-10.95-5.55-10.95-3.75,0-4.8,3.75-4.8,10Z"/><path class="a" d="M325.51,77.48h-9.75V70.74c0-5.4-2.1-8.55-5.4-8.55s-5.55,2.55-5.55,7.95c0,5.1,1.65,8.55,5.4,13.19L319.06,94a30.31,30.31,0,0,1,7.2,20.09c0,13.79-6.15,21.29-15.89,21.29-8.7,0-14.84-7.35-14.84-18.29v-7h9.75v7.2c0,6,1.35,9.45,5.25,9.45,4,0,6.15-3.15,6.15-10,0-6.3-1.65-12-5.25-16.34L302.27,89a29,29,0,0,1-6.75-18.29c0-10.35,6.9-17.39,15.44-17.39,9.3,0,14.54,7,14.54,19.34Z"/><path class="a" d="M336.9,134V22.76h9.75V134Z"/><path class="a" d="M357.89,110.77V77.93c0-14.69,2.7-25,15-25s14.84,9.9,14.84,25v32.84c0,15.29-2.55,24.59-15,24.59C360.44,135.36,357.89,125.46,357.89,110.77Zm20.09,6.9V70.74c0-5.85-1.65-9.15-5.1-9.15s-5.25,3.15-5.25,9v46.78c0,6.3,1.8,9.6,5.25,9.6S378,123.81,378,117.67Z"/><path class="a" d="M415.62,134h-8.55L395.23,54.39H405l6.15,51.13h.3L417,54.39h9.75Z"/><path class="a" d="M444.11,96.68v20.54c0,6.15,1.05,9.75,4.8,9.75,4.2,0,5.4-3.45,5.4-11.1v-9.45H464v6.45c0,13.94-3.6,22.64-15.14,22.64-12.29,0-14.69-10-14.69-24.74V77.93c0-14.69,2.4-24.89,15-24.89C459.85,53,464,61.44,464,73.59V96.68Zm0-9.15h10.35V72.39c0-7.5-1-10.95-5.55-10.95-3.75,0-4.8,3.75-4.8,10Z"/><path class="a" d="M504.83,61.44c4.2-5.55,7-7.35,11.55-7.35,8.55,0,10.2,6.9,10.2,17.09V134h-9.75V70.89c0-5.1-.9-7.5-3.6-7.5-2.85,0-5.1,2.1-7.5,5.85V134H496V70.74c0-5.1-.9-7.5-3.45-7.5-2.1,0-4,1.8-7.5,5.85V134h-9.75V54.39H485v5.55c3.6-4.35,6.15-6.15,10.35-6.15C500.18,53.79,502.43,55.89,504.83,61.44Z"/><path class="a" d="M537.82,22.76h9.6V33h-9.6Zm0,111.25V54.39h9.6V134Z"/><path class="a" d="M558.66,134V22.76h9.75V134Z"/><path class="a" d="M592.69,88.13l7.8-33.44h9.75l-9.3,34.94c6.6,3.45,8.4,6.45,8.4,15V134h-9.6V104.92c0-5.25-1.8-8.1-5.55-8.1h-4.95V134h-9.6V22.76h9.6V88.13Z"/><path class="a" d="M117.47,82.79c-5.81.18-6.27,4.77-15.41,4.63-1.62,0-10.17-.48-20.68-1.07.93-7.46,1.93-15.42,2.85-22.84l13.27.78a92.72,92.72,0,0,1,13.16,4.48c5.22,2.44,11.47.91,11.34-3.7s-3.2-4-3.2-4,3.61-1.93,4.08-4,.4-5.47-5.41-5.29-6.27,4.77-15.41,4.63c-1.42,0-8.14-.37-16.84-.86C86.77,43,87.94,33.61,87.94,33.61s3.28-10,6.85-16.56S96.91,2.37,91,2.15s-5.46,3.78-5.46,3.78S83.34,1.13,80.75.36s-7-1-7.26,6.52,5.61,8.46,4.68,20.21C78,29.25,76.63,40.88,74.92,55L52.69,53.7c1.44-11.58,2.49-20.09,2.49-20.09s3.28-10,6.85-16.56,2.12-14.68-3.82-14.9-5.46,3.78-5.46,3.78S50.58,1.13,48,.36s-7-1-7.26,6.52,5.61,8.46,4.68,20.21c-.16,2.06-1.43,12.77-3,26L34,52.61S22.78,52,16.53,48.13,4.47,41.72,2.69,44.69s4,7.49,2.27,10.56a8.4,8.4,0,0,1-3.12,4.69c-2.42,1.58-3.52,7.71,3.56,7.57s13.29-8.22,27.32-7.12c1,.08,4.24.29,8.71.56-.92,7.57-1.9,15.54-2.81,22.94L34,83.62S22.78,83,16.53,79.14,4.47,72.72,2.69,75.7s4,7.49,2.27,10.56a8.4,8.4,0,0,1-3.12,4.69c-2.42,1.58-3.52,7.71,3.56,7.57s13.29-8.22,27.32-7.12l4.94.33c-1.59,12.94-2.79,22.63-2.79,22.63s-1.74,14.36-7.22,22.09-9.25,15-5.57,17.52,10-4.47,13.78-2a10.83,10.83,0,0,1,5.77,4.4c1.83,3.24,9.63,5.17,10-4s-9.47-17.77-6.9-35.74c.31-2.19,1.57-12.06,3.1-24.27l22.32,1.34c-1.47,11.94-2.55,20.66-2.55,20.66s-1.74,14.36-7.22,22.09-9.25,15-5.57,17.52,10-4.47,13.78-2a10.83,10.83,0,0,1,5.77,4.4c1.83,3.24,9.63,5.17,10-4s-9.47-17.77-6.9-35.74c.3-2.07,1.43-11,2.85-22.32l17.11,1a92.73,92.73,0,0,1,13.16,4.48c5.22,2.44,11.47.91,11.34-3.7s-3.2-4-3.2-4,3.61-1.93,4.08-4S123.28,82.61,117.47,82.79Zm-68.62,1.7c.95-7.57,1.94-15.56,2.86-22.92L74,62.9c-.93,7.63-1.9,15.57-2.8,22.87Z"/></svg>