<svg xmlns="http://www.w3.org/2000/svg" xmlns:xlink="http://www.w3.org/1999/xlink" width="42" height="68" viewBox="0 0 42 68">
    <defs>
        <style>
            .a {
                stroke: #231f20;
                stroke-miterlimit: 10;
                stroke-width: 0.49px;
                fill: url(#a);
            }
            
            .b {
                fill: #3e363a;
            }

        </style>
        <linearGradient id="a" x1="1.56" y1="33.7" x2="42" y2="33.7" gradientUnits="userSpaceOnUse">
            <stop offset="0" stop-color="#fced1c" />
            <stop offset="1" stop-color="#f8bb15" />
        </linearGradient>
    </defs>
    <title>grunge_pin2</title>
    <path class="a" d="M1.81,46.72A19.13,19.13,0,0,0,18.23,62.21l1.94,5,2.7-4.72a29.4,29.4,0,0,0,3.25-.32c13.52-2.07,17.08-15,15.54-20.6A23.48,23.48,0,0,0,34,29.89l-.46-.35a14.79,14.79,0,0,0,7.82-12.67,22.61,22.61,0,0,0-.45-4h0v0a5.42,5.42,0,0,0-.12-.67C39.74,8.05,35.38,1,25.53.29,15.9-.38,5.62,6.66,6.34,15.11h0A23,23,0,0,0,6.55,20a13.08,13.08,0,0,0,5,8.31C5,32,.43,39,1.81,46.72Z" />
    <path class="b" d="M.25,47A19.48,19.48,0,0,0,8.89,59.83a20.55,20.55,0,0,0,7.87,2.9l1.87,4.78.25.64.34-.6L21.84,63a29.68,29.68,0,0,0,3.1-.31,22,22,0,0,0,2.49-.53,18.08,18.08,0,0,0,11.23-8.73A17.75,17.75,0,0,0,41,42.68a8.75,8.75,0,0,0-.21-1,23.64,23.64,0,0,0-3-6.55A22.69,22.69,0,0,0,33,29.86h0l-.07-.05a15.4,15.4,0,0,0,3.15-2.43,15,15,0,0,0,4.4-10.29c0-.73-.08-1.48-.15-2.12A16.49,16.49,0,0,0,40,13a5.87,5.87,0,0,0-.12-.64,16.43,16.43,0,0,0-5.74-8.57A17.6,17.6,0,0,0,24.32.18,19.59,19.59,0,0,0,20.2.34,21.16,21.16,0,0,0,9.75,4.92a13,13,0,0,0-5,8.87,10.36,10.36,0,0,0,0,1.46h0a10.11,10.11,0,0,0-.06,2c.05,1.12.18,2.36.27,3H5a13.37,13.37,0,0,0,4.78,8.21,20.71,20.71,0,0,0-7.81,8A16.12,16.12,0,0,0,.25,47ZM21.06,63,19,66.62l-1.49-3.79h.12q1.12.13,2.31.16h1.12ZM5.42,13.84a12.35,12.35,0,0,1,4.76-8.41A20.49,20.49,0,0,1,20.29,1a19,19,0,0,1,4-.15A16.94,16.94,0,0,1,33.74,4.3a15.74,15.74,0,0,1,5.5,8.21,5.15,5.15,0,0,1,.12.63h0a6.77,6.77,0,0,1,0,.72s0,.05,0,.08c0,.24,0,.49,0,.74v.12c0,.25-.07.51-.11.78l0,.14c-.05.27-.12.54-.2.82l0,.13c-.08.29-.18.58-.29.87l0,.09a13.45,13.45,0,0,1-.89,1.87l0,.09c-.17.3-.36.59-.56.88l-.12.17-.16.22-.22.29-.21.26-.18.22L36,21.9l-.19.21-.26.28-.2.2-.28.27-.22.2-.3.26-.23.19-.32.26-.24.18-.62.43-.31.21-.31.19-.34.2-.32.17-.37.19-.33.16-.39.18-.34.15L30,26l-.36.13-.44.15-.37.12-.46.14-.38.11-.36.09-.9.2-.29.06c-.41.07-.83.14-1.26.19h0a28.91,28.91,0,0,1-3,.21,21.89,21.89,0,0,1-6.83-.9A16.58,16.58,0,0,1,12,25,13,13,0,0,1,5.5,15.86h0A9.59,9.59,0,0,1,5.42,13.84Zm.23,6.35h0c-.06-.44-.14-1.14-.2-1.89l0,.12c.11.3.23.59.36.88l.05.12c.15.31.31.62.48.93l.11.19c.18.31.37.61.58.9v0c.2.29.42.57.65.84l.13.15q.35.41.74.8l.11.11q.37.36.77.7l.1.09c.29.24.59.47.9.68l.18.13c.32.22.65.43,1,.63a17.37,17.37,0,0,0,3.81,1.61c.44.13.88.25,1.34.35.65.14,1.32.25,2,.34a24.83,24.83,0,0,0,3.41.18q1,0,2-.1l1-.11h.11c.41-.05.8-.12,1.19-.19l.29-.06.94-.2.19,0,.18,0,.41-.11.48-.14.38-.12.47-.17.35-.13.47-.19.31-.13.49-.23.26-.13.52-.28.19-.1.66-.39h0q.68-.43,1.29-.9l.08-.06.5-.41.12-.11.42-.38.13-.13.38-.38.13-.14.35-.38.13-.14.32-.39.06-.08h0l.05-.07.39-.52.06-.09,0,0,.07-.11c.18-.26.35-.53.51-.8l.14-.24c.17-.3.32-.59.47-.89l.1-.21q.17-.38.32-.75l.09-.22q.16-.44.29-.87l.06-.22c0-.11.06-.22.09-.32,0,.27,0,.54,0,.81a10.64,10.64,0,0,1-.14,1.83c-4.74,11-18.81,9.92-18.85,9.92l0,.25s13.5,1,18.67-9.16a14.77,14.77,0,0,1-1.36,3.56C32.9,29,24.56,29.33,24.53,29.33v.25s7.8-.33,13.1-5.27a14.51,14.51,0,0,1-2.05,2.59c-.33.33-.69.65-1.07,1a28.43,28.43,0,0,1-9.26,2.58v.25a27.66,27.66,0,0,0,8.45-2.22,15.33,15.33,0,0,1-1.4.88h0l-.19.1-.36.19-.32.16-.06,0a17.61,17.61,0,0,1-2.85,1.08,20.67,20.67,0,0,1-3.16.63l-1,.11-.46,0-.54,0-.52,0H21.4l-.53,0-.41,0-.51,0-.4,0-.49-.06-.39-.05-.47-.07-.4-.07-.42-.08-.46-.1-.39-.09L16.08,31l-.37-.11-.46-.15-.33-.11-.52-.19-.24-.09L13.43,30,13.31,30l-.59-.29-.21-.11-.46-.26-.29-.18-.38-.24-.48-.33-.18-.13A12.78,12.78,0,0,1,5.65,20.19Zm5.73,9.47.23.14.21.13.12.07.29.16.37.2.33.16.37.17.35.15L14,31l.38.14.37.13.4.13.38.12.43.12.38.1.45.11.39.08.28.06.18,0,.41.07.47.07.43.06.47.05.46,0,.47,0,.49,0,.47,0h1l.59,0h.43l.68,0,.36,0,1.06-.11a20.2,20.2,0,0,0,5.77-1.53l0,.85c-8.65,3-13.7,1-13.72,1l-.09.24s5.12,2,13.81-1v.72l-.06,0-.09,0-.08,0,.09.24.08,0,.07,0,0,.59v.4c0,.06,0,.11,0,.17a18.65,18.65,0,0,1-12.11,1.91l-.06.25a18.89,18.89,0,0,0,12.18-1.88c0,.22,0,.44,0,.66v.39l0,0-.08,0h0l.12.22h0l0,.56h0l-.09.06-.09.06-.09.06-.09.06-.09.05-.09.05-.09.05-.09.05-.09.05-.09.05-.09.05-.07,0,.12.22.07,0,.09-.05.09-.05.09-.05.09-.05.09-.05.09-.05.09-.05.09-.06.09-.06.07,0v0c0,.76,0,1.48,0,2.13l0,.06-.06.07-.06.07-.06.07-.06.07-.06.06-.06.06L31,39,31,39.1l-.06.06-.06.06-.06.06-.06.06-.06.06,0,0,.18.18,0,0,.06-.06.06-.06L31,39.4l.06-.06.06-.06.06-.06.06-.07.06-.06.06-.07.06-.07,0,0c0,.31,0,.61,0,.87-3.83,4.27-9.83,4.63-9.84,4.63l0,.25a16.43,16.43,0,0,0,9.35-4l-.06.09-.07.09-.07.09-.07.09-.07.09-.07.09-.07.09-.07.09-.07.08,0,0,.19.16,0,0,.07-.09.07-.09.07-.09.07-.09.07-.09.07-.09.07-.09.07-.09.07-.09.07-.1.07-.1.07-.1.06-.09a6.2,6.2,0,0,1-2.88,4.79,14.92,14.92,0,0,1-7.51,2.38c-10.8-1.26-10.92-8.24-10.92-8.67ZM2.55,36.8a20.1,20.1,0,0,1,7.77-7.86l.11.08,0,0,.07,0h0l.23.16L9.49,38.83v0s-.23,8,11.53,9.36h.06A15.61,15.61,0,0,0,29,45.72a6.81,6.81,0,0,0,3.17-5.45c0-1,0-2.34-.05-3.89,0-.41,0-.83,0-1.26,0-.2,0-.4,0-.61s0-.55,0-.83,0-.54,0-.8l0-.74,0-1.1v-.22l0-.47.41-.2,0,0h0l.24.19h0l.57.48c3.28,16.91-7.49,17.71-7.52,17.71l0,.25s10.94-.82,7.8-17.69q.66.6,1.26,1.23l-.19,0v0l0,.13,0,.13,0,.13,0,.13,0,.13,0,.13v.13l0,.13v1.43l.25,0V33.41l0-.13,0-.13V33l0-.13,0-.13,0-.13,0-.13v-.07q.7.75,1.31,1.53c1.71,12.82-6.26,15.49-6.28,15.5l.08.24s8-2.68,6.51-15.34c.28.37.54.74.79,1.12a24.15,24.15,0,0,1,1.68,3c.3,16-9,18.8-9.08,18.81l.08.24s9.33-2.84,9.26-18.48c.24.54.44,1.07.62,1.58h-.12v.25h.21c.11.33.21.65.29,1a8.3,8.3,0,0,1,.2.94A17.07,17.07,0,0,1,38.09,53.1a17.43,17.43,0,0,1-10.83,8.41,21.11,21.11,0,0,1-2.42.51,28.89,28.89,0,0,1-3.32.32H20.39l-.95,0h-.17l-1.12-.08h-.06l-1-.12a19.93,19.93,0,0,1-7.85-2.84A18.82,18.82,0,0,1,.9,46.88h0A15.46,15.46,0,0,1,2.55,36.8Z" />
    <path class="b" d="M16.64,45.37h0a9.72,9.72,0,0,0,1.23.32l.05-.25c-.41-.09-.8-.19-1.19-.31h0Z" />
    <polygon class="b" points="16.64 45.37 16.64 45.37 16.64 45.37 16.64 45.37" />
    <polygon class="b" points="25.45 45.28 25.53 45.25 25.61 45.22 25.69 45.19 25.77 45.16 25.85 45.13 25.93 45.09 26.01 45.06 26.09 45.03 26.17 44.99 26.25 44.96 26.33 44.92 26.41 44.88 26.49 44.85 26.57 44.81 26.65 44.77 26.73 44.73 26.81 44.69 26.89 44.65 26.97 44.61 27.04 44.56 27.12 44.52 27.2 44.48 27.28 44.43 27.36 44.39 27.44 44.34 27.52 44.29 27.6 44.24 27.67 44.2 27.71 44.17 27.57 43.96 27.54 43.98 27.46 44.03 27.39 44.08 27.31 44.12 27.23 44.17 27.16 44.21 27.08 44.26 27 44.3 26.92 44.34 26.85 44.38 26.77 44.43 26.69 44.47 26.61 44.51 26.54 44.54 26.46 44.58 26.38 44.62 26.3 44.66 26.23 44.69 26.15 44.73 26.07 44.76 25.99 44.79 25.91 44.83 25.84 44.86 25.76 44.89 25.68 44.92 25.6 44.95 25.52 44.98 25.45 45.01 25.37 45.04 25.34 45.05 25.42 45.29 25.45 45.28" />
    <polygon class="b" points="22.95 45.89 23.03 45.88 23.11 45.87 23.18 45.85 23.26 45.84 23.34 45.83 23.41 45.82 23.49 45.8 23.57 45.79 23.64 45.77 23.72 45.76 23.8 45.74 23.88 45.73 23.95 45.71 24.03 45.69 24.11 45.67 24.19 45.66 24.2 45.65 24.14 45.41 24.13 45.41 24.05 45.43 23.98 45.45 23.9 45.46 23.82 45.48 23.75 45.49 23.67 45.51 23.6 45.53 23.52 45.54 23.45 45.55 23.37 45.57 23.29 45.58 23.22 45.59 23.14 45.6 23.07 45.62 22.99 45.63 22.92 45.64 22.91 45.64 22.94 45.89 22.95 45.89" />
    <polygon class="b" points="16.73 45.13 16.73 45.13 16.73 45.13 16.73 45.13" />
    <polygon class="b" points="21.55 45.76 21.48 45.76 21.41 45.76 21.34 45.76 21.27 45.76 21.2 45.77 21.13 45.77 21.06 45.77 21 45.77 20.93 45.77 20.86 45.77 20.8 45.77 20.73 45.76 20.66 45.76 20.6 45.76 20.53 45.76 20.47 45.76 20.4 45.75 20.34 45.75 20.28 45.75 20.21 45.74 20.15 45.74 20.09 45.74 20.03 45.73 19.96 45.73 19.9 45.72 19.84 45.72 19.78 45.72 19.72 45.71 19.66 45.7 19.6 45.7 19.54 45.69 19.49 45.69 19.43 45.68 19.37 45.67 19.31 45.67 19.26 45.66 19.2 45.66 19.17 45.65 19.14 45.9 19.17 45.91 19.23 45.91 19.29 45.92 19.34 45.93 19.4 45.93 19.46 45.94 19.52 45.95 19.58 45.95 19.64 45.96 19.7 45.96 19.76 45.97 19.82 45.97 19.89 45.98 19.95 45.98 20.01 45.98 20.07 45.99 20.14 45.99 20.2 46 20.26 46 20.33 46 20.39 46.01 20.46 46.01 20.52 46.01 20.59 46.01 20.66 46.01 20.73 46.02 20.79 46.02 20.86 46.02 20.93 46.02 21 46.02 21.07 46.02 21.14 46.02 21.2 46.02 21.27 46.02 21.34 46.02 21.41 46.01 21.48 46.01 21.56 46.01 21.63 46.01 21.68 46 21.67 45.75 21.62 45.75 21.55 45.76" />
    <polygon class="b" points="28.76 43.42 28.83 43.36 28.91 43.3 28.99 43.23 29.06 43.17 29.14 43.1 29.21 43.04 29.29 42.97 29.36 42.9 29.43 42.83 29.51 42.76 29.58 42.69 29.66 42.62 29.7 42.58 29.52 42.4 29.48 42.44 29.41 42.51 29.34 42.58 29.26 42.65 29.19 42.72 29.12 42.78 29.04 42.85 28.97 42.91 28.89 42.98 28.82 43.04 28.75 43.1 28.67 43.16 28.6 43.23 28.59 43.23 28.75 43.43 28.76 43.42" />
    <polygon class="b" points="28.01 37.83 27.93 37.87 27.84 37.9 27.83 37.91 27.92 38.14 27.93 38.14 28.02 38.1 28.11 38.07 28.2 38.03 28.28 37.99 28.37 37.96 28.46 37.92 28.55 37.88 28.63 37.84 28.72 37.8 28.81 37.77 28.9 37.73 28.99 37.68 29.08 37.64 29.17 37.6 29.25 37.56 29.34 37.52 29.43 37.47 29.52 37.43 29.61 37.38 29.7 37.34 29.79 37.29 29.88 37.25 29.97 37.2 30.06 37.15 30.16 37.1 30.22 37.07 30.1 36.85 30.04 36.88 29.95 36.93 29.86 36.98 29.77 37.02 29.68 37.07 29.59 37.11 29.5 37.16 29.41 37.2 29.32 37.25 29.23 37.29 29.15 37.33 29.06 37.37 28.97 37.41 28.88 37.45 28.79 37.49 28.71 37.53 28.62 37.58 28.53 37.61 28.45 37.65 28.36 37.69 28.27 37.72 28.18 37.76 28.1 37.8 28.01 37.83" />
    <polygon class="b" points="24.81 38.84 24.73 38.85 24.65 38.87 24.57 38.88 24.5 38.9 24.42 38.92 24.34 38.93 24.27 38.95 24.19 38.96 24.12 38.98 24.04 38.99 23.97 39 23.89 39.02 23.82 39.03 23.74 39.04 23.67 39.05 23.6 39.06 23.52 39.07 23.45 39.09 23.38 39.1 23.31 39.11 23.23 39.12 23.16 39.13 23.09 39.13 23.02 39.14 22.95 39.15 22.88 39.16 22.81 39.17 22.74 39.18 22.67 39.18 22.6 39.19 22.53 39.2 22.48 39.2 22.51 39.45 22.55 39.45 22.63 39.44 22.69 39.44 22.77 39.43 22.84 39.42 22.91 39.41 22.98 39.4 23.05 39.4 23.12 39.38 23.2 39.38 23.27 39.37 23.34 39.36 23.41 39.35 23.49 39.34 23.56 39.32 23.64 39.31 23.71 39.3 23.78 39.29 23.86 39.28 23.94 39.26 24.01 39.25 24.09 39.24 24.16 39.22 24.24 39.21 24.32 39.19 24.39 39.18 24.47 39.16 24.55 39.15 24.63 39.13 24.7 39.12 24.78 39.1 24.86 39.08 24.94 39.06 25.02 39.05 24.96 38.8 24.88 38.82 24.81 38.84" />
    <polygon class="b" points="17.01 38.84 17.02 38.84 17.02 38.84 17.01 38.84" />
    <polygon class="b" points="21.1 39.28 21.04 39.28 20.98 39.28 20.92 39.29 20.86 39.29 20.8 39.29 20.74 39.29 20.68 39.29 20.62 39.29 20.56 39.29 20.51 39.28 20.45 39.28 20.39 39.28 20.33 39.28 20.28 39.28 20.22 39.28 20.17 39.28 20.11 39.27 20.06 39.27 20 39.27 19.95 39.27 19.9 39.27 19.85 39.26 19.79 39.26 19.74 39.26 19.73 39.26 19.71 39.51 19.73 39.51 19.78 39.51 19.83 39.52 19.89 39.52 19.94 39.52 20 39.52 20.05 39.53 20.1 39.53 20.16 39.53 20.22 39.53 20.27 39.53 20.33 39.53 20.39 39.53 20.44 39.54 20.5 39.54 20.56 39.54 20.62 39.54 20.68 39.54 20.74 39.54 20.8 39.54 20.86 39.54 20.92 39.54 20.98 39.54 21.04 39.54 21.1 39.53 21.17 39.53 21.23 39.53 21.29 39.53 21.36 39.53 21.42 39.53 21.48 39.52 21.55 39.52 21.61 39.52 21.68 39.52 21.74 39.51 21.81 39.51 21.88 39.5 21.94 39.5 22.01 39.49 22.07 39.49 22.14 39.48 22.21 39.48 22.25 39.48 22.23 39.23 22.19 39.23 22.12 39.23 22.06 39.24 21.99 39.24 21.92 39.25 21.86 39.25 21.79 39.26 21.73 39.26 21.66 39.26 21.6 39.27 21.54 39.27 21.47 39.27 21.41 39.27 21.35 39.28 21.28 39.28 21.22 39.28 21.16 39.28 21.1 39.28" />
    <polygon class="b" points="25.34 38.97 25.42 38.95 25.5 38.93 25.58 38.91 25.66 38.89 25.74 38.86 25.82 38.84 25.91 38.82 25.99 38.8 26.07 38.77 26.15 38.75 26.24 38.72 26.32 38.7 26.4 38.67 26.48 38.65 26.57 38.62 26.65 38.6 26.74 38.57 26.82 38.54 26.91 38.51 26.99 38.48 27.07 38.45 27.16 38.42 27.25 38.39 27.33 38.36 27.42 38.33 27.5 38.3 27.59 38.27 27.67 38.24 27.68 38.23 27.59 38 27.58 38 27.5 38.03 27.41 38.06 27.33 38.1 27.24 38.13 27.16 38.16 27.07 38.19 26.99 38.22 26.91 38.24 26.82 38.27 26.74 38.3 26.66 38.33 26.57 38.35 26.49 38.38 26.41 38.41 26.33 38.43 26.25 38.46 26.16 38.48 26.08 38.51 26 38.53 25.92 38.55 25.84 38.58 25.76 38.6 25.68 38.62 25.6 38.64 25.52 38.66 25.44 38.68 25.36 38.7 25.28 38.72 25.2 38.74 25.26 38.99 25.34 38.97" />
    <path class="b" d="M16.94,39.08h0a12.22,12.22,0,0,0,2.51.4l0-.25a13.87,13.87,0,0,1-2.46-.4h0l-.08.24Z" />
    <polygon class="b" points="25.28 42.6 25.22 42.62 25.16 42.63 25.09 42.66 25.03 42.67 24.96 42.69 24.9 42.71 24.84 42.73 24.77 42.74 24.71 42.76 24.65 42.78 24.59 42.8 24.52 42.81 24.46 42.83 24.4 42.84 24.34 42.86 24.27 42.87 24.21 42.89 24.15 42.9 24.1 42.91 24.16 43.16 24.21 43.15 24.27 43.13 24.33 43.12 24.39 43.1 24.46 43.09 24.52 43.07 24.59 43.06 24.65 43.04 24.71 43.02 24.78 43.01 24.84 42.99 24.91 42.97 24.97 42.95 25.03 42.93 25.1 42.91 25.16 42.9 25.23 42.88 25.29 42.86 25.36 42.84 25.39 42.83 25.31 42.59 25.28 42.6" />
    <polygon class="b" points="22.84 43.15 22.79 43.15 22.73 43.16 22.68 43.17 22.62 43.18 22.57 43.19 22.51 43.19 22.45 43.2 22.4 43.2 22.35 43.21 22.29 43.22 22.24 43.22 22.19 43.23 22.13 43.23 22.08 43.24 22.03 43.24 21.98 43.25 21.92 43.26 21.87 43.26 21.82 43.26 21.77 43.27 21.72 43.27 21.67 43.28 21.62 43.28 21.64 43.53 21.69 43.53 21.74 43.52 21.79 43.52 21.84 43.52 21.89 43.51 21.95 43.51 22 43.5 22.05 43.5 22.11 43.49 22.16 43.49 22.21 43.48 22.27 43.47 22.32 43.47 22.38 43.46 22.43 43.46 22.49 43.45 22.54 43.44 22.6 43.44 22.65 43.43 22.71 43.42 22.77 43.41 22.82 43.4 22.88 43.4 22.91 43.39 22.87 43.14 22.84 43.15" />
    <path class="b" d="M19.1,43.52a9.86,9.86,0,0,0,1.27.06v-.25a11.2,11.2,0,0,1-1.25-.06h0l0,.25h0Z" />
    <polygon class="b" points="19.1 43.52 19.1 43.52 19.08 43.52 19.1 43.52" />
    <polygon class="b" points="29.69 40.28 29.63 40.33 29.56 40.38 29.5 40.43 29.44 40.48 29.38 40.53 29.31 40.58 29.25 40.62 29.19 40.67 29.12 40.71 29.06 40.76 28.99 40.8 28.93 40.85 28.87 40.89 28.8 40.94 28.74 40.98 28.7 41 28.84 41.22 28.88 41.19 28.94 41.15 29.01 41.1 29.07 41.06 29.14 41.01 29.2 40.97 29.27 40.92 29.33 40.87 29.4 40.83 29.46 40.78 29.53 40.73 29.59 40.68 29.66 40.63 29.72 40.58 29.78 40.53 29.85 40.48 29.87 40.47 29.71 40.27 29.69 40.28" />
    <polygon class="b" points="27.57 41.66 27.5 41.7 27.44 41.73 27.37 41.76 27.3 41.8 27.24 41.83 27.17 41.86 27.11 41.89 27.04 41.92 26.98 41.95 26.91 41.98 26.85 42.01 26.78 42.04 26.71 42.07 26.65 42.09 26.58 42.12 26.52 42.15 26.49 42.16 26.58 42.4 26.61 42.38 26.68 42.35 26.75 42.33 26.82 42.3 26.88 42.27 26.95 42.24 27.02 42.21 27.08 42.18 27.15 42.15 27.22 42.12 27.28 42.09 27.35 42.05 27.42 42.02 27.48 41.99 27.55 41.95 27.62 41.92 27.68 41.89 27.74 41.86 27.62 41.64 27.57 41.66" />
    <polygon class="b" points="27.78 33.85 27.86 33.83 27.93 33.81 28.01 33.8 27.95 33.55 27.87 33.57 27.8 33.59 27.72 33.6 27.71 33.61 27.76 33.86 27.78 33.85" />
    <polygon class="b" points="24.29 34.42 24.35 34.42 24.41 34.41 24.48 34.4 24.51 34.4 24.49 34.15 24.45 34.15 24.39 34.16 24.33 34.16 24.26 34.17 24.24 34.17 24.26 34.42 24.29 34.42" />
    <polygon class="b" points="24.81 34.37 24.88 34.36 24.94 34.35 25.01 34.35 25.02 34.35 24.99 34.09 24.98 34.09 24.91 34.1 24.85 34.11 24.78 34.12 24.74 34.12 24.76 34.37 24.81 34.37" />
    <polygon class="b" points="20.75 34.45 20.79 34.45 20.84 34.46 20.88 34.46 20.92 34.46 20.96 34.47 20.98 34.21 20.94 34.21 20.9 34.21 20.85 34.2 20.81 34.2 20.77 34.2 20.73 34.2 20.73 34.19 20.71 34.45 20.71 34.45 20.75 34.45" />
    <path class="b" d="M18.69,34.14h.07a11.28,11.28,0,0,0,1.19.21l0-.25c-.43-.05-.8-.13-1.22-.21h0Z" />
    <polygon class="b" points="18.69 34.14 18.69 34.14 18.68 34.14 18.69 34.14" />
    <polygon class="b" points="22.33 34.51 22.39 34.51 22.44 34.51 22.49 34.51 22.55 34.51 22.61 34.51 22.66 34.51 22.72 34.51 22.77 34.5 22.83 34.5 22.89 34.5 22.94 34.5 23 34.5 23.06 34.5 23.12 34.49 23.18 34.49 23.23 34.49 23.29 34.49 23.35 34.48 23.41 34.48 23.47 34.48 23.5 34.48 23.49 34.23 23.46 34.23 23.4 34.23 23.34 34.23 23.28 34.23 23.22 34.24 23.16 34.24 23.11 34.24 23.05 34.24 22.99 34.25 22.93 34.25 22.88 34.25 22.82 34.25 22.77 34.25 22.71 34.25 22.66 34.26 22.6 34.26 22.55 34.26 22.49 34.26 22.44 34.26 22.39 34.26 22.33 34.26 22.28 34.26 22.23 34.26 22.23 34.51 22.28 34.51 22.33 34.51" />
    <polygon class="b" points="21.28 34.48 21.32 34.49 21.37 34.49 21.42 34.49 21.47 34.49 21.47 34.49 21.48 34.24 21.48 34.24 21.43 34.24 21.38 34.24 21.34 34.23 21.29 34.23 21.25 34.23 21.23 34.23 21.21 34.48 21.23 34.48 21.28 34.48" />
    <polygon class="b" points="28.33 33.72 28.41 33.7 28.49 33.67 28.5 33.67 28.44 33.43 28.42 33.43 28.34 33.45 28.26 33.47 28.19 33.49 28.25 33.73 28.33 33.72" />
    <polygon class="b" points="25.77 34.24 25.84 34.23 25.91 34.22 25.99 34.21 26.06 34.2 26.13 34.19 26.2 34.17 26.27 34.16 26.35 34.15 26.42 34.13 26.49 34.12 26.57 34.11 26.64 34.09 26.71 34.08 26.79 34.07 26.86 34.05 26.94 34.04 27.01 34.02 27.02 34.02 26.97 33.77 26.96 33.77 26.89 33.79 26.81 33.8 26.74 33.82 26.67 33.83 26.59 33.85 26.52 33.86 26.45 33.87 26.38 33.89 26.3 33.9 26.23 33.91 26.16 33.92 26.09 33.94 26.02 33.95 25.95 33.96 25.88 33.97 25.8 33.98 25.73 33.99 25.73 33.99 25.77 34.24 25.77 34.24" />
    <polygon class="b" points="29.3 33.44 29.38 33.42 29.46 33.39 29.54 33.37 29.63 33.34 29.71 33.32 29.79 33.29 29.87 33.26 29.96 33.23 30.04 33.21 30.13 33.18 30.21 33.15 30.29 33.12 30.38 33.09 30.44 33.07 30.36 32.83 30.3 32.85 30.21 32.88 30.13 32.91 30.04 32.94 29.96 32.97 29.88 32.99 29.8 33.02 29.71 33.05 29.63 33.08 29.55 33.1 29.47 33.13 29.38 33.15 29.3 33.18 29.22 33.2 29.16 33.22 29.23 33.46 29.3 33.44" />
    <path class="b" d="M21.36,35.46A21.84,21.84,0,0,0,30.06,34L30,33.8a21.59,21.59,0,0,1-8.6,1.41Z" />
    <path class="b" d="M24.91,37l0-.25a18.05,18.05,0,0,1-7-.07l-.06.24A18.3,18.3,0,0,0,24.91,37Z" />
    <polygon class="b" points="21.25 38.32 21.29 38.32 21.32 38.32 21.36 38.32 21.4 38.32 21.44 38.31 21.48 38.31 21.51 38.31 21.55 38.31 21.59 38.31 21.63 38.31 21.67 38.31 21.71 38.3 21.75 38.3 21.8 38.3 21.84 38.3 21.88 38.3 21.92 38.3 21.96 38.29 22.01 38.29 22.05 38.29 22.09 38.29 22.14 38.28 22.18 38.28 22.21 38.28 22.19 38.03 22.16 38.03 22.12 38.03 22.08 38.03 22.04 38.04 21.99 38.04 21.95 38.04 21.91 38.04 21.87 38.05 21.82 38.05 21.78 38.05 21.74 38.05 21.7 38.05 21.66 38.05 21.62 38.06 21.59 38.06 21.55 38.06 21.51 38.06 21.47 38.06 21.43 38.06 21.39 38.06 21.36 38.06 21.32 38.06 21.28 38.06 21.25 38.07 21.21 38.07 21.19 38.07 21.2 38.32 21.22 38.32 21.25 38.32" />
    <circle class="b" cx="19.71" cy="38" />
    <polygon class="b" points="19.68 38 19.7 38 19.7 38 19.68 38" />
    <polygon class="b" points="19.66 38.25 19.66 38.25 19.66 38.25 19.67 38.25 19.68 38.25 19.68 38.25 19.69 38.25 19.7 38.25 19.7 38.26 19.71 38.26 19.71 38.26 19.72 38.26 19.73 38.26 19.74 38.26 19.75 38.26 19.76 38.26 19.77 38.26 19.78 38.26 19.79 38.26 19.8 38.27 19.81 38.27 19.82 38.27 19.83 38.27 19.85 38.27 19.86 38.27 19.87 38.27 19.89 38.27 19.9 38.27 19.92 38.28 19.92 38.28 19.94 38.03 19.94 38.02 19.92 38.02 19.91 38.02 19.9 38.02 19.88 38.02 19.87 38.02 19.86 38.02 19.85 38.02 19.83 38.02 19.82 38.01 19.81 38.01 19.8 38.01 19.79 38.01 19.78 38.01 19.77 38.01 19.77 38.01 19.76 38.01 19.75 38.01 19.75 38.01 19.74 38.01 19.73 38 19.73 38 19.72 38 19.72 38 19.71 38 19.71 38 19.71 38 19.71 38 19.71 38 19.71 38 19.7 38 19.7 38 19.66 38.25 19.66 38.25" />
    <polygon class="b" points="27.91 37.07 27.98 37.04 28.06 37.02 28.13 36.99 28.15 36.98 28.06 36.75 28.04 36.76 27.97 36.78 27.9 36.81 27.83 36.83 27.82 36.83 27.91 37.07 27.91 37.07" />
    <polygon class="b" points="25.78 37.71 25.84 37.69 25.9 37.68 25.97 37.66 26.03 37.65 26.09 37.63 26.16 37.61 26.23 37.59 26.29 37.58 26.36 37.56 26.42 37.54 26.49 37.52 26.55 37.5 26.62 37.48 26.68 37.46 26.7 37.46 26.63 37.22 26.61 37.22 26.55 37.24 26.48 37.26 26.42 37.28 26.35 37.3 26.29 37.31 26.22 37.33 26.16 37.35 26.09 37.37 26.03 37.38 25.97 37.4 25.91 37.42 25.84 37.43 25.78 37.45 25.72 37.46 25.66 37.48 25.72 37.72 25.78 37.71" />
    <polygon class="b" points="23.5 38.15 23.55 38.14 23.61 38.13 23.66 38.12 23.71 38.12 23.77 38.11 23.82 38.1 23.88 38.09 23.93 38.08 23.99 38.07 24.05 38.06 24.1 38.05 24.16 38.05 24.21 38.04 24.27 38.03 24.33 38.02 24.39 38.01 24.44 37.99 24.48 37.99 24.43 37.74 24.4 37.75 24.34 37.76 24.28 37.77 24.23 37.78 24.17 37.79 24.11 37.8 24.06 37.81 24 37.81 23.95 37.82 23.89 37.83 23.84 37.84 23.79 37.85 23.73 37.86 23.68 37.87 23.63 37.87 23.57 37.88 23.52 37.89 23.47 37.9 23.44 37.9 23.47 38.15 23.5 38.15" />
    <polygon class="b" points="29.35 36.51 29.43 36.48 29.5 36.44 29.57 36.41 29.65 36.38 29.72 36.35 29.8 36.31 29.87 36.28 29.94 36.24 30.02 36.21 30.09 36.17 30.17 36.14 30.24 36.1 30.25 36.1 30.14 35.87 30.14 35.88 30.06 35.91 29.99 35.95 29.91 35.98 29.84 36.02 29.77 36.05 29.69 36.08 29.62 36.12 29.54 36.15 29.47 36.18 29.4 36.21 29.32 36.24 29.25 36.27 29.23 36.29 29.33 36.52 29.35 36.51" />
    <path class="b" d="M21.37,40.93a20.75,20.75,0,0,0,9.69-3.22l-.15-.21a20.49,20.49,0,0,1-9.56,3.17Z" />
    <path class="b" d="M18.08,41.55l-.07.24s5.93,1.77,12.5-2.69l-.14-.21C23.9,43.29,18.1,41.55,18.08,41.55Z" />
    <polygon class="b" points="28.56 59.56 28.49 59.59 28.42 59.62 28.35 59.64 28.29 59.67 28.22 59.69 28.15 59.71 28.08 59.74 28.02 59.76 27.95 59.78 27.89 59.8 27.82 59.83 27.76 59.85 27.73 59.85 27.81 60.09 27.84 60.09 27.9 60.07 27.96 60.04 28.03 60.02 28.1 60 28.17 59.98 28.23 59.95 28.3 59.93 28.37 59.9 28.44 59.88 28.51 59.85 28.58 59.83 28.65 59.8 28.72 59.77 28.77 59.76 28.68 59.52 28.63 59.54 28.56 59.56" />
    <polygon class="b" points="34.31 56.22 34.39 56.13 34.47 56.05 34.56 55.97 34.64 55.88 34.72 55.8 34.8 55.71 34.89 55.62 34.97 55.53 35.01 55.49 34.83 55.32 34.78 55.37 34.7 55.45 34.62 55.54 34.54 55.62 34.46 55.71 34.38 55.79 34.3 55.87 34.21 55.95 34.13 56.04 34.13 56.04 34.3 56.22 34.31 56.22" />
    <polygon class="b" points="35.85 54.49 35.92 54.39 36 54.29 36.08 54.18 36.15 54.08 36.23 53.97 36.3 53.87 36.38 53.76 36.43 53.69 36.22 53.55 36.17 53.61 36.1 53.72 36.02 53.83 35.95 53.93 35.87 54.03 35.8 54.13 35.72 54.24 35.65 54.34 35.63 54.36 35.83 54.51 35.85 54.49" />
    <polygon class="b" points="29.94 59.25 30.02 59.21 30.1 59.17 30.18 59.13 30.26 59.09 30.34 59.05 30.42 59.01 30.5 58.97 30.59 58.92 30.67 58.88 30.75 58.83 30.84 58.79 30.84 58.78 30.72 58.56 30.71 58.57 30.63 58.61 30.55 58.66 30.47 58.7 30.39 58.74 30.31 58.78 30.23 58.83 30.15 58.87 30.07 58.91 29.99 58.94 29.91 58.98 29.83 59.02 29.83 59.02 29.93 59.25 29.94 59.25" />
    <polygon class="b" points="37.17 52.49 37.24 52.37 37.3 52.25 37.37 52.12 37.44 52 37.5 51.87 37.57 51.74 37.58 51.72 37.36 51.6 37.34 51.63 37.28 51.76 37.22 51.88 37.15 52 37.08 52.13 37.02 52.25 36.95 52.37 36.88 52.48 37.1 52.61 37.17 52.49" />
    <polygon class="b" points="33.21 57.19 33.29 57.12 33.36 57.07 33.2 56.87 33.13 56.93 33.05 57 33 57.03 33.16 57.23 33.21 57.19" />
    <polygon class="b" points="39.54 45.37 39.56 45.19 39.59 45 39.62 44.81 39.64 44.62 39.66 44.43 39.66 44.43 39.41 44.4 39.41 44.41 39.39 44.59 39.37 44.78 39.34 44.97 39.31 45.15 39.29 45.33 39.28 45.39 39.53 45.43 39.54 45.37" />
    <polygon class="b" points="38.12 50.53 38.18 50.39 38.21 50.33 37.98 50.23 37.95 50.3 37.89 50.44 37.88 50.46 38.11 50.56 38.12 50.53" />
    <polygon class="b" points="25.58 60.62 25.58 60.62 25.58 60.62 25.59 60.62 25.59 60.62 25.6 60.62 25.61 60.62 25.62 60.61 25.63 60.61 25.64 60.61 25.66 60.61 25.67 60.61 25.69 60.6 25.71 60.6 25.73 60.6 25.75 60.6 25.77 60.59 25.79 60.59 25.81 60.59 25.84 60.58 25.86 60.58 25.89 60.57 25.92 60.57 25.95 60.56 25.98 60.56 26.01 60.55 26.04 60.55 26.08 60.54 26.11 60.53 26.15 60.53 26.18 60.52 26.22 60.51 26.26 60.5 26.3 60.5 26.34 60.49 26.38 60.48 26.42 60.47 26.47 60.46 26.51 60.45 26.56 60.44 26.58 60.43 26.53 60.19 26.5 60.19 26.46 60.2 26.41 60.21 26.37 60.22 26.33 60.23 26.29 60.24 26.25 60.25 26.21 60.26 26.17 60.27 26.14 60.27 26.1 60.28 26.06 60.28 26.03 60.29 26 60.3 25.96 60.3 25.93 60.31 25.91 60.31 25.88 60.32 25.85 60.32 25.82 60.33 25.8 60.33 25.77 60.34 25.75 60.34 25.73 60.34 25.71 60.35 25.69 60.35 25.67 60.35 25.65 60.35 25.64 60.36 25.63 60.36 25.61 60.36 25.6 60.36 25.59 60.36 25.58 60.36 25.57 60.37 25.57 60.37 25.56 60.37 25.55 60.37 25.55 60.37 25.57 60.62 25.58 60.62" />
    <polygon class="b" points="39.79 43.06 39.8 42.86 39.82 42.66 39.83 42.45 39.84 42.24 39.84 42.15 39.59 42.14 39.59 42.23 39.58 42.44 39.56 42.64 39.55 42.84 39.54 43.04 39.53 43.15 39.78 43.16 39.79 43.06" />
    <polygon class="b" points="38.67 49.07 38.72 48.91 38.72 48.89 38.48 48.81 38.48 48.84 38.43 48.99 38.41 49.05 38.65 49.13 38.67 49.07" />
    <polygon class="b" points="39.08 47.64 39.12 47.47 39.16 47.3 39.2 47.13 39.24 46.97 39.28 46.79 39.3 46.68 39.05 46.63 39.03 46.74 38.99 46.91 38.96 47.08 38.92 47.25 38.88 47.41 38.84 47.58 38.83 47.61 39.07 47.67 39.08 47.64" />
    <polygon class="b" points="32.01 58.07 32.1 58.01 32.14 57.98 32 57.78 31.95 57.8 31.87 57.86 31.79 57.92 31.93 58.13 32.01 58.07" />
    <path class="b" d="M31.18,46.9l.14.21h0l.12-.1A7.74,7.74,0,0,0,33,45.17L32.78,45a7.28,7.28,0,0,1-1.6,1.86h0Z" />
    <polygon class="b" points="35.04 38.09 35.04 37.99 35.05 37.89 35.05 37.79 35.06 37.69 35.06 37.58 35.07 37.48 35.07 37.38 35.08 37.27 35.08 37.16 35.08 37.06 35.08 36.95 35.08 36.84 35.09 36.73 35.09 36.63 35.09 36.52 35.09 36.4 35.08 36.29 35.08 36.18 35.08 36.07 35.08 35.95 35.07 35.84 35.07 35.73 35.07 35.62 34.81 35.63 34.82 35.73 34.82 35.85 34.82 35.96 34.83 36.07 34.83 36.19 34.83 36.3 34.83 36.41 34.83 36.52 34.83 36.63 34.83 36.73 34.83 36.84 34.83 36.95 34.83 37.05 34.83 37.16 34.82 37.26 34.82 37.37 34.82 37.47 34.81 37.57 34.81 37.68 34.8 37.78 34.8 37.88 34.79 37.98 34.79 38.08 34.78 38.14 35.03 38.15 35.04 38.09" />
    <polygon class="b" points="33.39 44.49 33.42 44.44 33.44 44.39 33.47 44.34 33.49 44.29 33.52 44.24 33.55 44.19 33.57 44.13 33.6 44.08 33.62 44.03 33.65 43.98 33.67 43.92 33.7 43.87 33.72 43.81 33.75 43.75 33.77 43.7 33.8 43.64 33.82 43.58 33.85 43.52 33.87 43.47 33.9 43.41 33.92 43.35 33.94 43.28 33.97 43.23 33.99 43.16 34.02 43.1 34.04 43.04 34.06 42.98 34.09 42.91 34.11 42.85 34.13 42.78 34.16 42.72 34.18 42.65 34.2 42.58 34.22 42.52 34.25 42.45 34.27 42.38 34.29 42.31 34.31 42.24 34.33 42.17 34.34 42.15 34.1 42.08 34.09 42.1 34.07 42.17 34.05 42.24 34.03 42.3 34.01 42.37 33.98 42.44 33.96 42.5 33.94 42.57 33.92 42.63 33.9 42.7 33.87 42.76 33.85 42.83 33.83 42.89 33.8 42.95 33.78 43.01 33.76 43.07 33.73 43.13 33.71 43.19 33.69 43.25 33.66 43.31 33.64 43.37 33.61 43.43 33.59 43.48 33.57 43.54 33.54 43.6 33.52 43.65 33.49 43.71 33.47 43.76 33.44 43.81 33.42 43.87 33.39 43.92 33.37 43.97 33.34 44.02 33.32 44.08 33.29 44.13 33.27 44.18 33.24 44.23 33.22 44.28 33.19 44.33 33.17 44.37 33.16 44.39 33.38 44.51 33.39 44.49" />
    <polygon class="b" points="34.55 41.36 34.57 41.28 34.59 41.21 34.61 41.13 34.63 41.05 34.65 40.97 34.66 40.89 34.68 40.81 34.7 40.73 34.71 40.65 34.73 40.56 34.74 40.48 34.76 40.4 34.77 40.31 34.79 40.23 34.8 40.14 34.82 40.05 34.83 39.97 34.85 39.88 34.86 39.79 34.87 39.7 34.89 39.61 34.9 39.52 34.91 39.43 34.92 39.34 34.93 39.25 34.94 39.16 34.95 39.06 34.96 38.97 34.97 38.91 34.72 38.89 34.71 38.94 34.7 39.03 34.69 39.13 34.68 39.22 34.67 39.31 34.66 39.4 34.65 39.49 34.64 39.58 34.62 39.67 34.61 39.75 34.6 39.84 34.58 39.93 34.57 40.01 34.55 40.1 34.54 40.18 34.53 40.27 34.51 40.35 34.49 40.43 34.48 40.52 34.46 40.6 34.45 40.68 34.43 40.76 34.41 40.84 34.4 40.91 34.38 40.99 34.36 41.07 34.34 41.15 34.33 41.23 34.31 41.3 34.3 41.36 34.54 41.42 34.55 41.36" />
    <path class="b" d="M37.21,39.81H37c0,9.78-7.87,11.46-7.89,11.46l.06.25S37.2,49.8,37.21,39.81Z" />
    <polygon class="b" points="33.86 51.04 33.91 50.99 33.95 50.94 34 50.9 34.05 50.85 34.1 50.8 34.14 50.75 34.19 50.7 34.24 50.65 34.28 50.6 34.33 50.55 34.38 50.49 34.43 50.44 34.48 50.39 34.52 50.34 34.57 50.28 34.62 50.23 34.67 50.17 34.71 50.12 34.76 50.06 34.79 50.02 34.6 49.86 34.57 49.9 34.52 49.95 34.48 50.01 34.43 50.06 34.38 50.12 34.33 50.17 34.29 50.22 34.24 50.27 34.19 50.33 34.15 50.38 34.1 50.43 34.05 50.48 34.01 50.53 33.96 50.58 33.91 50.62 33.87 50.67 33.82 50.72 33.78 50.77 33.73 50.81 33.68 50.86 33.64 50.9 33.59 50.95 33.55 50.99 33.5 51.03 33.46 51.08 33.41 51.12 33.37 51.16 33.32 51.2 33.28 51.24 33.23 51.28 33.19 51.33 33.15 51.36 33.1 51.4 33.06 51.44 33.01 51.48 32.97 51.52 32.93 51.55 32.88 51.59 32.84 51.63 32.84 51.63 33 51.82 33.01 51.82 33.05 51.78 33.09 51.75 33.14 51.71 33.18 51.67 33.22 51.63 33.27 51.59 33.31 51.55 33.36 51.51 33.4 51.47 33.45 51.43 33.49 51.39 33.54 51.35 33.59 51.3 33.63 51.26 33.68 51.22 33.72 51.17 33.77 51.13 33.81 51.08 33.86 51.04" />
    <polygon class="b" points="36.02 47.82 35.98 47.89 35.94 47.97 35.89 48.04 35.85 48.11 35.81 48.18 35.76 48.25 35.72 48.33 35.67 48.39 35.63 48.46 35.58 48.53 35.54 48.6 35.49 48.67 35.45 48.73 35.4 48.8 35.36 48.86 35.57 49.01 35.61 48.95 35.66 48.88 35.7 48.81 35.75 48.74 35.8 48.67 35.84 48.6 35.88 48.53 35.93 48.46 35.98 48.39 36.02 48.31 36.07 48.24 36.11 48.17 36.16 48.09 36.2 48.02 36.24 47.94 36.25 47.93 36.03 47.81 36.02 47.82" />
    <path class="b" d="M31.84,52.39a8.62,8.62,0,0,1-1.06.63h0l.11.23a8.51,8.51,0,0,0,1.1-.66Z" />
    <polygon class="b" points="37.16 45.39 37.12 45.48 37.09 45.58 37.05 45.67 37.02 45.76 36.98 45.85 36.95 45.94 36.91 46.03 36.87 46.12 36.84 46.2 36.8 46.29 36.76 46.38 36.72 46.46 36.68 46.55 36.64 46.63 36.61 46.7 36.84 46.81 36.87 46.74 36.91 46.65 36.95 46.56 36.99 46.48 37.03 46.39 37.07 46.3 37.1 46.21 37.14 46.12 37.18 46.03 37.22 45.94 37.25 45.85 37.29 45.76 37.32 45.67 37.36 45.57 37.39 45.48 37.43 45.38 37.46 45.29 37.49 45.19 37.53 45.1 37.56 45 37.59 44.9 37.63 44.8 37.66 44.7 37.69 44.6 37.72 44.5 37.74 44.43 37.49 44.36 37.48 44.43 37.45 44.53 37.41 44.63 37.38 44.73 37.35 44.82 37.32 44.92 37.29 45.02 37.26 45.11 37.22 45.2 37.19 45.3 37.16 45.39" />
    <polygon class="b" points="38.06 43.13 38.09 43.02 38.11 42.9 38.13 42.79 38.15 42.68 38.17 42.57 38.19 42.45 38.21 42.34 38.23 42.22 38.25 42.1 38.27 41.99 38.27 41.95 38.02 41.91 38.02 41.95 38 42.07 37.98 42.18 37.96 42.3 37.94 42.41 37.92 42.52 37.9 42.63 37.88 42.74 37.86 42.85 37.84 42.97 37.82 43.07 37.8 43.14 38.05 43.2 38.06 43.13" />
    <polygon class="b" points="30.89 53.25 30.89 53.25 30.88 53.25 30.89 53.25" />
    <polygon class="b" points="38.41 40.65 38.42 40.53 38.43 40.4 38.44 40.27 38.45 40.15 38.45 40.02 38.46 39.89 38.47 39.76 38.47 39.63 38.47 39.49 38.48 39.36 38.48 39.23 38.48 39.09 38.48 38.96 38.48 38.82 38.48 38.69 38.48 38.55 38.47 38.41 38.47 38.27 38.47 38.15 38.21 38.15 38.22 38.28 38.22 38.42 38.22 38.56 38.23 38.69 38.23 38.83 38.23 38.96 38.23 39.09 38.23 39.23 38.22 39.36 38.22 39.49 38.22 39.62 38.21 39.75 38.21 39.88 38.2 40 38.2 40.13 38.19 40.26 38.18 40.38 38.17 40.51 38.16 40.63 38.16 40.66 38.41 40.68 38.41 40.65" />
    <polygon class="b" points="27.4 56.3 27.41 56.3 27.39 56.3 27.4 56.3" />
    <polygon class="b" points="30.85 54.95 30.82 54.97 30.78 54.99 30.74 55.01 30.7 55.04 30.66 55.06 30.63 55.08 30.59 55.1 30.55 55.12 30.51 55.14 30.48 55.16 30.44 55.19 30.4 55.2 30.36 55.23 30.33 55.24 30.29 55.27 30.26 55.28 30.22 55.3 30.18 55.32 30.15 55.34 30.11 55.36 30.08 55.38 30.04 55.39 30.01 55.41 29.97 55.43 29.94 55.45 29.9 55.46 29.87 55.48 29.83 55.5 29.8 55.51 29.77 55.53 29.75 55.53 29.86 55.76 29.88 55.76 29.91 55.74 29.94 55.72 29.98 55.71 30.01 55.69 30.05 55.67 30.08 55.66 30.12 55.64 30.16 55.62 30.19 55.6 30.23 55.58 30.26 55.56 30.3 55.55 30.34 55.53 30.37 55.51 30.41 55.49 30.45 55.47 30.48 55.45 30.52 55.43 30.56 55.41 30.6 55.38 30.64 55.36 30.67 55.34 30.71 55.32 30.75 55.3 30.79 55.28 30.83 55.26 30.87 55.23 30.91 55.21 30.94 55.19 30.98 55.16 30.98 55.16 30.86 54.95 30.85 54.95" />
    <polygon class="b" points="27.43 56.55 27.43 56.55 27.41 56.55 27.43 56.55" />
    <polygon class="b" points="27.44 56.55 27.43 56.55 27.43 56.55 27.44 56.55" />
    <polygon class="b" points="34.66 51.74 34.61 51.79 34.57 51.84 34.52 51.89 34.47 51.94 34.43 51.99 34.38 52.04 34.34 52.09 34.29 52.14 34.24 52.19 34.2 52.23 34.15 52.28 34.11 52.33 34.06 52.38 34.01 52.42 33.97 52.47 33.92 52.52 33.88 52.56 33.83 52.6 33.8 52.63 33.98 52.81 34.01 52.78 34.06 52.74 34.1 52.69 34.15 52.65 34.2 52.6 34.24 52.55 34.29 52.51 34.33 52.46 34.38 52.41 34.43 52.36 34.47 52.31 34.52 52.26 34.57 52.21 34.61 52.16 34.66 52.11 34.71 52.06 34.75 52.01 34.8 51.96 34.85 51.9 34.86 51.89 34.67 51.73 34.66 51.74" />
    <polygon class="b" points="32.85 53.51 32.8 53.55 32.76 53.58 32.72 53.62 32.67 53.66 32.63 53.69 32.59 53.73 32.54 53.76 32.5 53.8 32.45 53.83 32.41 53.87 32.37 53.9 32.33 53.93 32.28 53.97 32.24 54 32.2 54.03 32.15 54.06 32.11 54.1 32.07 54.13 32.03 54.16 31.98 54.19 31.94 54.22 31.9 54.25 31.9 54.26 32.05 54.46 32.05 54.46 32.09 54.42 32.13 54.39 32.18 54.36 32.22 54.33 32.26 54.3 32.31 54.27 32.35 54.23 32.39 54.2 32.44 54.17 32.48 54.13 32.52 54.1 32.57 54.06 32.61 54.03 32.66 53.99 32.7 53.96 32.74 53.92 32.79 53.89 32.83 53.85 32.88 53.81 32.92 53.78 32.97 53.74 33.01 53.7 33.05 53.67 32.88 53.48 32.85 53.51" />
    <path class="b" d="M27.4,56.3l0,.25h0a6.3,6.3,0,0,0,1.24-.3L28.6,56a6.46,6.46,0,0,1-1.18.29h0Z" />
</svg>
