<?xml version="1.0" encoding="utf-8"?>
<!-- Generator: Adobe Illustrator 19.2.1, SVG Export Plug-In . SVG Version: 6.00 Build 0)  -->
<svg version="1.1" id="Layer_1" xmlns="http://www.w3.org/2000/svg" xmlns:xlink="http://www.w3.org/1999/xlink" x="0px" y="0px"
	 viewBox="0 0 227 93.4" style="enable-background:new 0 0 227 93.4;" xml:space="preserve">
<style type="text/css">
	.st0{fill:#FFFFFF;}
</style>
<g>
	<path class="st0" d="M119.7,0l-19.4,2.6l-14,65.7c-0.1,0.7-0.3,1.5-0.4,2.2c-2.2,5.5-6.4,9.6-11.1,9.6c-3.6,0-5.4-1.2-5.4-4.8
		c0-1.5,0.1-2.8,0.6-4.2L85.2,0.3L65.8,2.9l-14,65.7C45.3,76,39,81.8,28.7,81.8c-6.3,0-9.3-2-9.3-11.1c0-1.6,0.1-3.3,0.3-5.2
		c15.6-0.9,30-12.5,30-27.7c0-6.6-2.8-12.5-14.4-12.5C8.4,25.3,0,56.9,0,71.9c0,14.9,8.2,20.8,20.4,20.8c13.5,0,23.3-7.4,30.4-16.5
		c0,0.3,0,0.4,0,0.7c0,11.1,6.1,15.7,14,15.7c5.2,0,13.8-1.6,21-11.5c1.5,8,6.8,11.5,13.5,11.5c7,0,13.7-4.5,14.4-13.8
		c-1.3,0.6-2.8,0.9-4.2,0.7c-4.1,0-5.4-2.2-5.4-5.2c0-1.3,0.3-2.6,0.6-3.8L119.7,0z M36.4,32.2c2.5,0,3.2,2,3.2,5.4
		c0,10.9-8.9,21-18.9,21.7C23.3,46.3,29.7,32.2,36.4,32.2z"/>
	<path class="st0" d="M224.1,22.4L204.7,25c-3.9,13.4-9.3,26.5-16,38.7c-4.4,2.5-7.1,7.1-6.8,12.2c0,8,5.7,16.7,19.1,16.7
		c10.6,0,26.1-5.7,26.1-22.7C226.9,61.4,225.5,56.3,224.1,22.4z M196.6,82.4c-5.7,0-8-3.1-8-9.2c0.7,1.2,2.2,1.9,3.5,1.7
		c3.3,0,5.7-3.3,5.7-6.4l0,0c0-2-1.2-3.8-3.1-4.7c4.2-7.9,7.9-16.2,10.6-24.8c1.3,20.2,2.5,24.3,2.5,31
		C207.9,79.4,202.4,82.4,196.6,82.4z"/>
</g>
<path id="kid_face" class="st0" d="M136.7,57.5c1.7,0,3.2,1.5,3.2,3.2s-1.5,3.2-3.2,3.2c-1.7,0-3.2-1.5-3.2-3.2l0,0
	C133.5,59,135,57.5,136.7,57.5z M179.7,57.8c0-0.1,4.7-11.1,1.5-17.9c-3.6-7.7-11.2-12.1-16.9-9.6l-0.9,0.4c-2.6-6-6.7-7.1-13.5-7.1
	h-0.7c-10.8,0.1-16.9,5.4-22.4,10.8c-1.2,1.2-2.5,2.3-3.8,3.3c-7,5.7-10.2,8.4-10.2,8.4c-0.7,0.1-1.2,0.7-1.2,1.5s0.3,1.3,0.9,1.6
	c0.3,0.1,0.4,0.7,5,2.3c-0.4,2-0.9,4.1-1,6.1c-2.6,2.2-4.1,5.2-4.1,8.6c0,4.7,3.1,8.9,7.4,10.5c8.7,15.6,28.4,21.3,44,12.5
	c5.2-2.9,9.6-7.3,12.5-12.7c5.8-2,8.7-8.4,6.7-14.3C182.3,60.7,181.1,59.1,179.7,57.8L179.7,57.8z M173,70.6c-0.4,0-0.9-0.1-1.3-0.3
	c-5,13.1-19.5,19.8-32.6,14.9c-6.8-2.6-12.2-8-14.9-14.9c-0.4,0.1-1,0.3-1.5,0.3c-2.3-0.3-3.9-2.3-3.6-4.7c0.1-1.7,1.6-3.2,3.3-3.6
	c0.6,0.9,1.2,1.7,1.7,2.5c-0.6-2-1-4.2-1-6.4c0.1-1.6,0.4-3.2,0.9-4.8c4.4,1,8.9,1.6,13.4,1.6c5.2,0,10.3-0.9,15.3-2.6
	c2.8-1,5.5-2.3,8-3.8c0.1,0.1,0.1,0.4,0.3,0.6c2.6,5.5,7.1,9.5,11.6,10.2c-0.1,1.9-0.4,3.6-1,5.4c0.7-0.7,1.3-1.6,1.7-2.5
	c2,0.3,3.5,2,3.3,4.1C176.9,68.6,175.2,70.3,173,70.6L173,70.6z M159.1,57.5c1.7,0,3.2,1.5,3.2,3.2s-1.5,3.2-3.2,3.2
	s-3.2-1.5-3.2-3.2l0,0C155.9,59,157.4,57.5,159.1,57.5L159.1,57.5z M141.5,76L141.5,76c0,3.2,3.1,5.8,6.8,5.8s6.8-2.6,6.8-5.7l0,0
	c-1.7,1.9-4.4,2.9-6.8,2.8C145.9,78.9,143.3,77.9,141.5,76L141.5,76z"/>
</svg>
