<?xml version="1.0" encoding="utf-8"?>
<!-- Generator: Adobe Illustrator 19.2.1, SVG Export Plug-In . SVG Version: 6.00 Build 0)  -->
<svg version="1.1" id="Layer_1" xmlns="http://www.w3.org/2000/svg" xmlns:xlink="http://www.w3.org/1999/xlink" x="0px" y="0px"
	 viewBox="0 0 234 53" style="enable-background:new 0 0 234 53;" xml:space="preserve">
<style type="text/css">
	.st0{fill:#FFFFFF;}
</style>
<g>
	<path class="st0" d="M142.8,0.2c-4.2,0-6.2,2.3-6.2,5.4c0,2.2,1.2,5.1,3.6,5.1c0.8,0,2.9-0.3,3.2-1c0,11-7.5,33.3-17.2,33.3
		c-2.4,0-3.4-1.3-3.4-3.3c0.1-1.2,0.2-2.4,0.5-3.6l7.2-33.9h-14.3l-7.2,33.9c-0.3,1.6-0.5,3.2-0.5,4.8c0,7.9,4.7,11.8,12.2,11.8
		C141,52.6,149,24.8,149,8.9C149,4.5,147.5,0.2,142.8,0.2z"/>
	<path class="st0" d="M230.7,43c-3,0-4-1.7-4-4.2c0-5.6,4.8-17.6,4.8-25.7c0-8-4.7-11.3-11.1-11.3c-3.1,0-7.5,0.8-11.6,5.6l1.1-5.2
		h-14.3l-6.8,32c-5,5.7-9.8,10-17.6,10c-4.8,0-7.2-1.6-7.2-8.4c0-1.2,0.1-2.6,0.2-4c11.9-0.7,22.9-9.6,22.9-21c0-5-2.1-9.6-11-9.6
		c-20.4,0-26.9,24-26.9,35.5c0,11.3,6.2,15.8,15.5,15.8c9.9,0,17.2-5.2,22.6-11.7L185,52h14.3l6.8-32c1.5-5,4.2-9.2,7.8-9.2
		c2.4,0,3.6,1.8,3.6,5.1h0c0,6.4-4.5,18.6-4.5,25.4c0,5.7,2.4,11.3,10.1,11.3c5.3,0,10.1-3.1,11-10.3
		C232.9,42.9,231.8,43.1,230.7,43z M176.9,6.6c1.9,0,2.5,1.6,2.5,4.1c0,8.3-6.8,15.9-14.4,16.4C167,17.3,171.8,6.6,176.9,6.6z"/>
</g>
<path id="de_lo_que" class="st0" d="M9.3,14.3V22c-0.7-1.4-2.2-2.2-3.8-2.1c-3.8,0-5.4,3.1-5.4,6.9c0,3,1,7,5.2,7
	c1.7,0.1,3.2-0.8,4.1-2.2l0.3,2h1.7V14.3H9.3z M9.3,28.7c0,1.8-1.4,3.2-3.2,3.2c-0.1,0-0.2,0-0.3,0c-3,0-3.5-2.7-3.5-5.2
	s0.5-5.1,3.5-5.1c1.8-0.1,3.4,1.2,3.5,3c0,0.1,0,0.2,0,0.2V28.7L9.3,28.7z M26.4,27.2c0.1-0.6,0.1-0.9,0.1-1.3c0-3.5-1.9-6-5.3-6
	c-3.7,0-6,3-6,7.1c0,3.8,2,6.7,6.3,6.7c1.7,0,3.4-0.5,4.7-1.6l-0.8-1.6c-1.1,0.9-2.4,1.4-3.8,1.4c-3.2,0-4.1-2.4-4.2-4.7L26.4,27.2
	L26.4,27.2z M21.1,21.6c2.1,0,3.3,1.7,3.3,4h-7C17.8,23.1,19.1,21.6,21.1,21.6z M36.2,14.3v19.3h2.1V14.3L36.2,14.3L36.2,14.3z
	 M48,21.7c2.9,0,3.7,2.5,3.7,5.1c0,2.8-1,5.2-3.7,5.2c-2.9,0-3.7-2.6-3.7-5.2C44.2,24,45.2,21.7,48,21.7L48,21.7z M48,19.9
	c-3.8,0-5.9,3.1-5.9,6.9c0,4.2,2.2,7,5.9,7c3.8,0,5.9-3.2,5.9-7C53.9,22.7,51.7,19.9,48,19.9L48,19.9z M72.2,20.1l-0.3,2
	c-0.7-1.5-2.3-2.3-3.9-2.2c-3.8,0-5.4,3.1-5.4,6.8c0,3.1,1.1,7,5.2,7c1.6,0.1,3.1-0.7,4-2.1v7.7h2.1V20.1L72.2,20.1L72.2,20.1z
	 M71.8,28.7c0,1.8-1.5,3.2-3.3,3.2c0,0,0,0,0,0c-3.2,0-3.7-2.5-3.7-5.1c0-2.5,0.5-5.2,3.5-5.2c1.8-0.1,3.4,1.2,3.5,3
	c0,0.1,0,0.2,0,0.3L71.8,28.7L71.8,28.7z M89,33.5l-0.3-2.4V20.1h-2.1v8.6c0.1,1.8-1.3,3.2-3.1,3.3c-0.1,0-0.2,0-0.3,0
	c-0.8,0.1-1.6-0.2-2.2-0.8c-0.5-0.6-0.7-1.3-0.7-2v-9.1h-2.1v8.7c-0.1,1.3,0.3,2.6,1.2,3.7c0.8,0.9,2,1.3,3.2,1.3
	c1.8,0.1,3.4-0.9,4-2.6l0.3,2.4H89L89,33.5z M103.8,27.2c0.1-0.6,0.1-0.9,0.1-1.3c0-3.5-1.9-6-5.3-6c-3.7,0-6,3-6,7.1
	c0,3.8,2,6.7,6.3,6.7c1.7,0,3.4-0.5,4.7-1.6l-0.8-1.6c-1.1,0.9-2.4,1.4-3.8,1.4c-3.2,0-4.1-2.4-4.2-4.7L103.8,27.2L103.8,27.2z
	 M98.5,21.6c2.1,0,3.3,1.7,3.3,4h-7C95.1,23.1,96.5,21.6,98.5,21.6z"/>
</svg>
