<?xml version="1.0" encoding="utf-8"?>
<!-- Generator: Adobe Illustrator 19.2.1, SVG Export Plug-In . SVG Version: 6.00 Build 0)  -->
<svg version="1.1" id="objects" xmlns="http://www.w3.org/2000/svg" xmlns:xlink="http://www.w3.org/1999/xlink" x="0px" y="0px"
	 viewBox="0 0 53 35.9" style="enable-background:new 0 0 53 35.9;" xml:space="preserve">
<style type="text/css">
	.st0{fill:#F1F2F2;}
</style>
<path class="st0" d="M45.4,0.3C44.7,0.1,43.9,0,43.1,0c-1.6,0-3.1,0.4-4.3,1.2c-2,1.2-3.3,3.3-3.6,5.6c-0.4,2.3,0.6,4.8,2.4,6.1
	c1.9,1.4,4.6,1.7,6.4,0.5c2-1.2,2.9-3.9,2-5.9c-0.5-1-1.4-1.8-2.5-2.1c-0.3-0.1-0.6-0.1-0.9-0.2c0.3,0,0.6,0.1,0.9,0.2
	c1,0.4,1.9,1.2,2.3,2.2c0.2,0.5,0.3,1,0.3,1.5c0,0.5-0.1,1.1-0.3,1.6c-0.4,1-1.1,1.9-2,2.4c-0.7,0.4-1.5,0.6-2.4,0.6
	c-1.3,0-2.6-0.5-3.6-1.3c-1.6-1.3-2.5-3.5-2.1-5.6c0.3-2.1,1.5-4,3.4-5.1c0.9-0.5,1.9-0.9,2.9-1c0.4-0.1,1-0.1,1.6,0
	c0.5,0,1.1,0.1,1.6,0.3c2.1,0.5,3.9,1.8,5.2,3.6c1.3,1.7,1.9,3.8,1.8,6.1c-0.1,2.1-0.8,4.3-2.1,6.1c-1.2,1.8-3,3.2-5,4.1
	c-0.9,0.4-2,0.7-3.2,0.9c-0.7,0.1-1.5,0.1-2.4,0.1l-25.9,0.3l-4.4,0.2l29.3,0c0.3,0,0.7,0,1,0l0.6,0c0.6,0,1.2,0,1.9-0.1
	c1.2-0.1,2.3-0.4,3.3-0.9c2.1-0.9,4-2.4,5.4-4.3c1.3-1.9,2.1-4.2,2.3-6.5c0.2-2.3-0.5-4.7-1.9-6.6C49.7,2.2,47.7,0.8,45.4,0.3
	L45.4,0.3z M45.4,0.3"/>
<path class="st0" d="M25.2,19.6l0.8,0c0.2,0,0.5,0,0.7,0c0.4,0,0.9,0,1.5-0.1c1.1-0.2,2.1-0.6,2.9-1.3c1.7-1.3,2.6-3.6,2.3-5.7
	c-0.3-2.1-2.2-3.9-4.3-4.1c-1.1-0.1-2.2,0.1-3,0.8c-0.9,0.6-1.4,1.6-1.6,2.7c-0.2,1.1,0.2,2.2,1,2.8c0.8,0.7,2,1,2.9,0.7
	c0.7-0.2,1.2-0.8,1.5-1.4c-0.3,0.6-0.9,1.1-1.6,1.2c-0.2,0-0.4,0.1-0.6,0.1c-0.7,0-1.5-0.3-2-0.8c-0.7-0.7-0.9-1.6-0.7-2.5
	c0.2-0.8,0.7-1.7,1.4-2.2c0.7-0.5,1.6-0.7,2.5-0.6c1.8,0.2,3.4,1.8,3.6,3.6c0.3,1.8-0.5,3.8-1.9,5c-0.7,0.6-1.6,1-2.6,1.2
	c-0.4,0.1-0.8,0.1-1.2,0.1L2.2,19.4c-0.7,0.1-1.5,0.1-2.2,0.2l24.8,0C24.9,19.6,25.1,19.6,25.2,19.6L25.2,19.6z M25.2,19.6"/>
<path class="st0" d="M33.1,24.6c-0.1,0-0.2,0-0.3,0L6,24.6c0.8,0.1,1.5,0.1,2.2,0.2l26.4,0.4c0.4,0,0.8,0,1.2,0.1
	c1,0.2,1.8,0.6,2.6,1.2c1.5,1.2,2.2,3.2,1.9,5c-0.2,1.8-1.8,3.4-3.6,3.6c-1,0.1-1.8-0.1-2.5-0.6c-0.7-0.5-1.2-1.3-1.4-2.2
	c-0.2-1,0.1-1.8,0.7-2.5c0.5-0.5,1.3-0.8,2-0.8c0.2,0,0.4,0,0.6,0.1c0.7,0.2,1.2,0.6,1.6,1.2c-0.3-0.6-0.8-1.2-1.5-1.4
	c-0.9-0.3-2.1,0-2.9,0.7c-0.8,0.7-1.2,1.8-1,2.8c0.1,1,0.7,2,1.6,2.7c0.8,0.6,1.9,0.9,3,0.8c2.1-0.2,4-2,4.3-4.1
	c0.3-2.1-0.6-4.4-2.3-5.7C38,25.3,37,24.9,36,24.7c-0.5-0.1-1.1-0.1-1.5-0.1c-0.2,0-0.5,0-0.7,0L33.1,24.6L33.1,24.6z M33.1,24.6"/>
</svg>
